%TF.GenerationSoftware,KiCad,Pcbnew,10.0.3*%
%TF.CreationDate,2026-09-21T21:17:41+02:00*%
%TF.ProjectId,wulpus_pro_wifi_host,77756c70-7573-45f7-9072-6f5f77696669,v1.0.1*%
%TF.SameCoordinates,Original*%
%TF.FileFunction,Soldermask,Bot*%
%TF.FilePolarity,Negative*%
%FSLAX45Y45*%
G04 Gerber Fmt 4.5, Leading zero omitted, Abs format (unit mm)*
G04 Created by KiCad (PCBNEW 10.0.3) date 2026-09-21 21:17:41*
%MOMM*%
%LPD*%
G01*
G04 APERTURE LIST*
G04 Aperture macros list*
%AMRoundRect*
0 Rectangle with rounded corners*
0 $1 Rounding radius*
0 $2 $3 $4 $5 $6 $7 $8 $9 X,Y pos of 4 corners*
0 Add a 4 corners polygon primitive as box body*
4,1,4,$2,$3,$4,$5,$6,$7,$8,$9,$2,$3,0*
0 Add four circle primitives for the rounded corners*
1,1,$1+$1,$2,$3*
1,1,$1+$1,$4,$5*
1,1,$1+$1,$6,$7*
1,1,$1+$1,$8,$9*
0 Add four rect primitives between the rounded corners*
20,1,$1+$1,$2,$3,$4,$5,0*
20,1,$1+$1,$4,$5,$6,$7,0*
20,1,$1+$1,$6,$7,$8,$9,0*
20,1,$1+$1,$8,$9,$2,$3,0*%
G04 Aperture macros list end*
%ADD10RoundRect,0.059250X-0.177750X0.552750X-0.177750X-0.552750X0.177750X-0.552750X0.177750X0.552750X0*%
%ADD11RoundRect,0.059250X-0.177750X0.512750X-0.177750X-0.512750X0.177750X-0.512750X0.177750X0.512750X0*%
%ADD12RoundRect,0.185000X0.235000X-0.185000X0.235000X0.185000X-0.235000X0.185000X-0.235000X-0.185000X0*%
%ADD13RoundRect,0.185000X0.185000X0.235000X-0.185000X0.235000X-0.185000X-0.235000X0.185000X-0.235000X0*%
%ADD14RoundRect,0.198500X-0.508500X-0.198500X0.508500X-0.198500X0.508500X0.198500X-0.508500X0.198500X0*%
%ADD15RoundRect,0.185000X-0.185000X-0.235000X0.185000X-0.235000X0.185000X0.235000X-0.185000X0.235000X0*%
%ADD16RoundRect,0.100000X0.500000X0.500000X-0.500000X0.500000X-0.500000X-0.500000X0.500000X-0.500000X0*%
%ADD17RoundRect,0.275000X-0.275000X-0.300000X0.275000X-0.300000X0.275000X0.300000X-0.275000X0.300000X0*%
%ADD18RoundRect,0.050000X-0.330000X0.115000X-0.330000X-0.115000X0.330000X-0.115000X0.330000X0.115000X0*%
%ADD19RoundRect,0.102000X-0.330000X0.175000X-0.330000X-0.175000X0.330000X-0.175000X0.330000X0.175000X0*%
%ADD20RoundRect,0.190000X-0.190000X-0.220000X0.190000X-0.220000X0.190000X0.220000X-0.190000X0.220000X0*%
G04 APERTURE END LIST*
D10*
%TO.C,U3*%
X9495850Y-8406000D03*
D11*
X9545850Y-8402000D03*
X9595850Y-8402000D03*
X9595850Y-8528000D03*
X9545850Y-8528000D03*
X9495850Y-8528000D03*
%TD*%
D12*
%TO.C,R14*%
X9370850Y-8531000D03*
X9370850Y-8429000D03*
%TD*%
D13*
%TO.C,R16*%
X9991850Y-8235000D03*
X9889850Y-8235000D03*
%TD*%
D14*
%TO.C,Q1*%
X9800000Y-8550000D03*
X9800000Y-8455000D03*
X9800000Y-8360000D03*
X10051000Y-8360000D03*
X10051000Y-8455000D03*
X10051000Y-8550000D03*
%TD*%
D13*
%TO.C,R11*%
X7265000Y-8541667D03*
X7163000Y-8541667D03*
%TD*%
D15*
%TO.C,R2*%
X7163000Y-9005000D03*
X7265000Y-9005000D03*
%TD*%
D16*
%TO.C,TP2*%
X7539000Y-8977000D03*
%TD*%
D13*
%TO.C,R8*%
X7265000Y-8275000D03*
X7163000Y-8275000D03*
%TD*%
D17*
%TO.C,C10*%
X7138500Y-9150000D03*
X7293500Y-9150000D03*
%TD*%
D13*
%TO.C,R17*%
X9981850Y-8675000D03*
X9879850Y-8675000D03*
%TD*%
D17*
%TO.C,C9*%
X7138500Y-9460000D03*
X7293500Y-9460000D03*
%TD*%
D16*
%TO.C,TP3*%
X7539000Y-9303000D03*
%TD*%
D13*
%TO.C,R10*%
X7265000Y-8408333D03*
X7163000Y-8408333D03*
%TD*%
D18*
%TO.C,J2*%
X6905500Y-8522000D03*
X6634500Y-8522000D03*
X6905500Y-8562000D03*
X6634500Y-8562000D03*
X6905500Y-8602000D03*
X6634500Y-8602000D03*
X6905500Y-8642000D03*
X6634500Y-8642000D03*
X6905500Y-8682000D03*
X6634500Y-8682000D03*
X6905500Y-8722000D03*
X6634500Y-8722000D03*
X6905500Y-8762000D03*
X6634500Y-8762000D03*
X6905500Y-8802000D03*
X6634500Y-8802000D03*
X6905500Y-8842000D03*
X6634500Y-8842000D03*
X6905500Y-8882000D03*
X6634500Y-8882000D03*
X6905500Y-8922000D03*
X6634500Y-8922000D03*
X6905500Y-8962000D03*
X6634500Y-8962000D03*
X6905500Y-9002000D03*
X6634500Y-9002000D03*
X6905500Y-9042000D03*
X6634500Y-9042000D03*
X6905500Y-9082000D03*
X6634500Y-9082000D03*
X6905500Y-9122000D03*
X6634500Y-9122000D03*
X6905500Y-9162000D03*
X6634500Y-9162000D03*
X6905500Y-9202000D03*
X6634500Y-9202000D03*
X6905500Y-9242000D03*
X6634500Y-9242000D03*
X6905500Y-9282000D03*
X6634500Y-9282000D03*
X6905500Y-9322000D03*
X6634500Y-9322000D03*
X6905500Y-9362000D03*
X6634500Y-9362000D03*
X6905500Y-9402000D03*
X6634500Y-9402000D03*
X6905500Y-9442000D03*
X6634500Y-9442000D03*
X6905500Y-9482000D03*
X6634500Y-9482000D03*
D19*
X6905500Y-8474500D03*
X6634500Y-8474500D03*
X6905500Y-9529500D03*
X6634500Y-9529500D03*
%TD*%
D13*
%TO.C,R9*%
X7265000Y-8141667D03*
X7163000Y-8141667D03*
%TD*%
D15*
%TO.C,R19*%
X9379000Y-8660000D03*
X9481000Y-8660000D03*
%TD*%
D20*
%TO.C,C4*%
X9482000Y-8765000D03*
X9578000Y-8765000D03*
%TD*%
M02*
