%TF.GenerationSoftware,KiCad,Pcbnew,10.0.3*%
%TF.CreationDate,2026-09-21T21:17:41+02:00*%
%TF.ProjectId,wulpus_pro_wifi_host,77756c70-7573-45f7-9072-6f5f77696669,v1.0.1*%
%TF.SameCoordinates,Original*%
%TF.FileFunction,Copper,L1,Top*%
%TF.FilePolarity,Positive*%
%FSLAX45Y45*%
G04 Gerber Fmt 4.5, Leading zero omitted, Abs format (unit mm)*
G04 Created by KiCad (PCBNEW 10.0.3) date 2026-09-21 21:17:41*
%MOMM*%
%LPD*%
G01*
G04 APERTURE LIST*
G04 Aperture macros list*
%AMRoundRect*
0 Rectangle with rounded corners*
0 $1 Rounding radius*
0 $2 $3 $4 $5 $6 $7 $8 $9 X,Y pos of 4 corners*
0 Add a 4 corners polygon primitive as box body*
4,1,4,$2,$3,$4,$5,$6,$7,$8,$9,$2,$3,0*
0 Add four circle primitives for the rounded corners*
1,1,$1+$1,$2,$3*
1,1,$1+$1,$4,$5*
1,1,$1+$1,$6,$7*
1,1,$1+$1,$8,$9*
0 Add four rect primitives between the rounded corners*
20,1,$1+$1,$2,$3,$4,$5,0*
20,1,$1+$1,$4,$5,$6,$7,0*
20,1,$1+$1,$6,$7,$8,$9,0*
20,1,$1+$1,$8,$9,$2,$3,0*%
%AMFreePoly0*
4,1,153,0.256581,0.129743,0.258810,0.129000,0.260000,0.129000,0.261581,0.128743,0.263810,0.128000,0.265000,0.128000,0.266581,0.127743,0.269581,0.126743,0.270236,0.126472,0.271920,0.125630,0.274581,0.124743,0.276536,0.123536,0.277964,0.122108,0.279236,0.121472,0.280536,0.120536,0.281964,0.119108,0.283236,0.118472,0.284536,0.117536,0.292536,0.109536,0.293472,0.108236,
0.294108,0.106964,0.295536,0.105536,0.296472,0.104236,0.297108,0.102964,0.298536,0.101536,0.299743,0.099581,0.300630,0.096920,0.301472,0.095236,0.301743,0.094581,0.302743,0.091581,0.303000,0.090000,0.303000,0.088810,0.303743,0.086581,0.304000,0.085000,0.304000,0.083810,0.304743,0.081581,0.305000,0.080000,0.305000,-0.080000,0.304743,-0.081581,0.304000,-0.083810,
0.304000,-0.085000,0.303743,-0.086581,0.303000,-0.088810,0.303000,-0.090000,0.302743,-0.091581,0.301743,-0.094581,0.301472,-0.095236,0.300630,-0.096920,0.299743,-0.099581,0.298536,-0.101536,0.297108,-0.102964,0.296472,-0.104236,0.295536,-0.105536,0.294108,-0.106964,0.293472,-0.108236,0.292536,-0.109536,0.284536,-0.117536,0.283236,-0.118472,0.281964,-0.119108,0.280536,-0.120536,
0.279236,-0.121472,0.277964,-0.122108,0.276536,-0.123536,0.274581,-0.124743,0.271920,-0.125630,0.270236,-0.126472,0.269581,-0.126743,0.266581,-0.127743,0.265000,-0.128000,0.263810,-0.128000,0.261581,-0.128743,0.260000,-0.129000,0.258810,-0.129000,0.256581,-0.129743,0.255000,-0.130000,-0.255000,-0.130000,-0.256581,-0.129743,-0.258810,-0.129000,-0.260000,-0.129000,-0.261581,-0.128743,
-0.263810,-0.128000,-0.265000,-0.128000,-0.266581,-0.127743,-0.269581,-0.126743,-0.270236,-0.126472,-0.271920,-0.125630,-0.274581,-0.124743,-0.276536,-0.123536,-0.277964,-0.122108,-0.279236,-0.121472,-0.280536,-0.120536,-0.281964,-0.119108,-0.283236,-0.118472,-0.284536,-0.117536,-0.292536,-0.109536,-0.293472,-0.108236,-0.294108,-0.106964,-0.295536,-0.105536,-0.296472,-0.104236,-0.297108,-0.102964,
-0.298536,-0.101536,-0.299743,-0.099581,-0.300630,-0.096920,-0.301472,-0.095236,-0.301743,-0.094581,-0.302743,-0.091581,-0.303000,-0.090000,-0.303000,-0.088810,-0.303743,-0.086581,-0.304000,-0.085000,-0.304000,-0.083810,-0.304743,-0.081581,-0.305000,-0.080000,-0.305000,0.080000,-0.304743,0.081581,-0.304000,0.083810,-0.304000,0.085000,-0.303743,0.086581,-0.303000,0.088810,-0.303000,0.090000,
-0.302743,0.091581,-0.301743,0.094581,-0.301472,0.095236,-0.300630,0.096920,-0.299743,0.099581,-0.298536,0.101536,-0.297108,0.102964,-0.296472,0.104236,-0.295536,0.105536,-0.294108,0.106964,-0.293472,0.108236,-0.292536,0.109536,-0.284536,0.117536,-0.283236,0.118472,-0.281964,0.119108,-0.280536,0.120536,-0.279236,0.121472,-0.277964,0.122108,-0.276536,0.123536,-0.274581,0.124743,
-0.271920,0.125630,-0.270236,0.126472,-0.269581,0.126743,-0.266581,0.127743,-0.265000,0.128000,-0.263810,0.128000,-0.261581,0.128743,-0.260000,0.129000,-0.258810,0.129000,-0.256581,0.129743,-0.255000,0.130000,0.255000,0.130000,0.256581,0.129743,0.256581,0.129743,$1*%
%AMFreePoly1*
4,1,153,0.556581,1.004743,0.558810,1.004000,0.560000,1.004000,0.561581,1.003743,0.563810,1.003000,0.565000,1.003000,0.566581,1.002743,0.569581,1.001743,0.570236,1.001472,0.571920,1.000630,0.574581,0.999743,0.576536,0.998536,0.577964,0.997108,0.579236,0.996472,0.580536,0.995536,0.581964,0.994108,0.583236,0.993472,0.584536,0.992536,0.592536,0.984536,0.593472,0.983236,
0.594108,0.981964,0.595536,0.980536,0.596472,0.979236,0.597108,0.977964,0.598536,0.976536,0.599743,0.974581,0.600630,0.971920,0.601472,0.970236,0.601743,0.969581,0.602743,0.966581,0.603000,0.965000,0.603000,0.963810,0.603743,0.961581,0.604000,0.960000,0.604000,0.958810,0.604743,0.956581,0.605000,0.955000,0.605000,-0.955000,0.604743,-0.956581,0.604000,-0.958810,
0.604000,-0.960000,0.603743,-0.961581,0.603000,-0.963810,0.603000,-0.965000,0.602743,-0.966581,0.601743,-0.969581,0.601472,-0.970236,0.600630,-0.971920,0.599743,-0.974581,0.598536,-0.976536,0.597108,-0.977964,0.596472,-0.979236,0.595536,-0.980536,0.594108,-0.981964,0.593472,-0.983236,0.592536,-0.984536,0.584536,-0.992536,0.583236,-0.993472,0.581964,-0.994108,0.580536,-0.995536,
0.579236,-0.996472,0.577964,-0.997108,0.576536,-0.998536,0.574581,-0.999743,0.571920,-1.000630,0.570236,-1.001472,0.569581,-1.001743,0.566581,-1.002743,0.565000,-1.003000,0.563810,-1.003000,0.561581,-1.003743,0.560000,-1.004000,0.558810,-1.004000,0.556581,-1.004743,0.555000,-1.005000,-0.555000,-1.005000,-0.556581,-1.004743,-0.558810,-1.004000,-0.560000,-1.004000,-0.561581,-1.003743,
-0.563810,-1.003000,-0.565000,-1.003000,-0.566581,-1.002743,-0.569581,-1.001743,-0.570236,-1.001472,-0.571920,-1.000630,-0.574581,-0.999743,-0.576536,-0.998536,-0.577964,-0.997108,-0.579236,-0.996472,-0.580536,-0.995536,-0.581964,-0.994108,-0.583236,-0.993472,-0.584536,-0.992536,-0.592536,-0.984536,-0.593472,-0.983236,-0.594108,-0.981964,-0.595536,-0.980536,-0.596472,-0.979236,-0.597108,-0.977964,
-0.598536,-0.976536,-0.599743,-0.974581,-0.600630,-0.971920,-0.601472,-0.970236,-0.601743,-0.969581,-0.602743,-0.966581,-0.603000,-0.965000,-0.603000,-0.963810,-0.603743,-0.961581,-0.604000,-0.960000,-0.604000,-0.958810,-0.604743,-0.956581,-0.605000,-0.955000,-0.605000,0.955000,-0.604743,0.956581,-0.604000,0.958810,-0.604000,0.960000,-0.603743,0.961581,-0.603000,0.963810,-0.603000,0.965000,
-0.602743,0.966581,-0.601743,0.969581,-0.601472,0.970236,-0.600630,0.971920,-0.599743,0.974581,-0.598536,0.976536,-0.597108,0.977964,-0.596472,0.979236,-0.595536,0.980536,-0.594108,0.981964,-0.593472,0.983236,-0.592536,0.984536,-0.584536,0.992536,-0.583236,0.993472,-0.581964,0.994108,-0.580536,0.995536,-0.579236,0.996472,-0.577964,0.997108,-0.576536,0.998536,-0.574581,0.999743,
-0.571920,1.000630,-0.570236,1.001472,-0.569581,1.001743,-0.566581,1.002743,-0.565000,1.003000,-0.563810,1.003000,-0.561581,1.003743,-0.560000,1.004000,-0.558810,1.004000,-0.556581,1.004743,-0.555000,1.005000,0.555000,1.005000,0.556581,1.004743,0.556581,1.004743,$1*%
G04 Aperture macros list end*
%TA.AperFunction,SMDPad,CuDef*%
%ADD10RoundRect,0.135000X0.185000X-0.135000X0.185000X0.135000X-0.185000X0.135000X-0.185000X-0.135000X0*%
%TD*%
%TA.AperFunction,SMDPad,CuDef*%
%ADD11RoundRect,0.050000X-0.075000X0.150000X-0.075000X-0.150000X0.075000X-0.150000X0.075000X0.150000X0*%
%TD*%
%TA.AperFunction,SMDPad,CuDef*%
%ADD12RoundRect,0.050000X-0.300000X0.150000X-0.300000X-0.150000X0.300000X-0.150000X0.300000X0.150000X0*%
%TD*%
%TA.AperFunction,SMDPad,CuDef*%
%ADD13R,1.000000X1.000000*%
%TD*%
%TA.AperFunction,SMDPad,CuDef*%
%ADD14R,1.200000X1.820000*%
%TD*%
%TA.AperFunction,SMDPad,CuDef*%
%ADD15RoundRect,0.225000X-0.250000X0.225000X-0.250000X-0.225000X0.250000X-0.225000X0.250000X0.225000X0*%
%TD*%
%TA.AperFunction,SMDPad,CuDef*%
%ADD16RoundRect,0.135000X-0.185000X0.135000X-0.185000X-0.135000X0.185000X-0.135000X0.185000X0.135000X0*%
%TD*%
%TA.AperFunction,SMDPad,CuDef*%
%ADD17RoundRect,0.050000X0.300000X-0.150000X0.300000X0.150000X-0.300000X0.150000X-0.300000X-0.150000X0*%
%TD*%
%TA.AperFunction,SMDPad,CuDef*%
%ADD18RoundRect,0.140000X0.170000X-0.140000X0.170000X0.140000X-0.170000X0.140000X-0.170000X-0.140000X0*%
%TD*%
%TA.AperFunction,SMDPad,CuDef*%
%ADD19RoundRect,0.225000X0.250000X-0.225000X0.250000X0.225000X-0.250000X0.225000X-0.250000X-0.225000X0*%
%TD*%
%TA.AperFunction,SMDPad,CuDef*%
%ADD20FreePoly0,270.000000*%
%TD*%
%TA.AperFunction,SMDPad,CuDef*%
%ADD21FreePoly1,270.000000*%
%TD*%
%TA.AperFunction,ComponentPad*%
%ADD22C,0.600000*%
%TD*%
%TA.AperFunction,SMDPad,CuDef*%
%ADD23RoundRect,0.500000X-0.875000X-0.500000X0.875000X-0.500000X0.875000X0.500000X-0.875000X0.500000X0*%
%TD*%
%TA.AperFunction,SMDPad,CuDef*%
%ADD24C,1.700000*%
%TD*%
%TA.AperFunction,SMDPad,CuDef*%
%ADD25RoundRect,0.275000X-0.275000X0.975000X-0.275000X-0.975000X0.275000X-0.975000X0.275000X0.975000X0*%
%TD*%
%TA.AperFunction,SMDPad,CuDef*%
%ADD26RoundRect,0.135000X-0.135000X-0.185000X0.135000X-0.185000X0.135000X0.185000X-0.135000X0.185000X0*%
%TD*%
%TA.AperFunction,SMDPad,CuDef*%
%ADD27R,1.000000X3.500000*%
%TD*%
%TA.AperFunction,SMDPad,CuDef*%
%ADD28R,1.500000X3.400000*%
%TD*%
%TA.AperFunction,ViaPad*%
%ADD29C,0.600000*%
%TD*%
%TA.AperFunction,Conductor*%
%ADD30C,0.200000*%
%TD*%
%TA.AperFunction,Conductor*%
%ADD31C,0.500000*%
%TD*%
%TA.AperFunction,Conductor*%
%ADD32C,0.300000*%
%TD*%
G04 APERTURE END LIST*
D10*
%TO.P,R12,1*%
%TO.N,Net-(U2-CFG1)*%
X10056000Y-9337000D03*
%TO.P,R12,2*%
%TO.N,GND*%
X10056000Y-9235000D03*
%TD*%
D11*
%TO.P,Q2,1,G_1*%
%TO.N,Net-(Q2-G)*%
X9197500Y-8544000D03*
%TO.P,Q2,2,S_2*%
%TO.N,+V_board*%
X9152500Y-8544000D03*
D12*
%TO.P,Q2,3,D_3*%
%TO.N,/Power/VBAT*%
X9175000Y-8614000D03*
%TD*%
D13*
%TO.P,TP5,1,1_1*%
%TO.N,GND*%
X9148000Y-9073000D03*
%TD*%
D14*
%TO.P,L2,1*%
%TO.N,Net-(U4-LX2)*%
X9354000Y-9885000D03*
%TO.P,L2,2*%
%TO.N,Net-(U4-LX1)*%
X9526000Y-9885000D03*
%TD*%
D15*
%TO.P,C1,1*%
%TO.N,+3V3*%
X9824000Y-9776500D03*
%TO.P,C1,2*%
%TO.N,GND*%
X9824000Y-9931500D03*
%TD*%
D16*
%TO.P,R6,1*%
%TO.N,/b2b_connector Sheet/MSP_JTAG.TMS*%
X6910000Y-9459000D03*
%TO.P,R6,2*%
%TO.N,Net-(U1-D5)*%
X6910000Y-9561000D03*
%TD*%
D17*
%TO.P,D1,1,K_1*%
%TO.N,+V_board*%
X9055000Y-8529000D03*
%TO.P,D1,2,A_2*%
%TO.N,/Power/VBUS*%
X9055000Y-8459000D03*
%TD*%
D14*
%TO.P,L1,1*%
%TO.N,Net-(U2-LX2)*%
X10004000Y-9886000D03*
%TO.P,L1,2*%
%TO.N,Net-(U2-LX1)*%
X10176000Y-9886000D03*
%TD*%
D18*
%TO.P,C8,1*%
%TO.N,/Power/VBUS*%
X9055000Y-8363000D03*
%TO.P,C8,2*%
%TO.N,GND*%
X9055000Y-8267000D03*
%TD*%
D16*
%TO.P,R21,1*%
%TO.N,GND*%
X9206000Y-9229000D03*
%TO.P,R21,2*%
%TO.N,Net-(U4-CFG3)*%
X9206000Y-9331000D03*
%TD*%
D10*
%TO.P,R18,1*%
%TO.N,Net-(U4-CFG1)*%
X9398000Y-9332000D03*
%TO.P,R18,2*%
%TO.N,GND*%
X9398000Y-9230000D03*
%TD*%
D16*
%TO.P,R15,1*%
%TO.N,GND*%
X9858000Y-9235000D03*
%TO.P,R15,2*%
%TO.N,Net-(U2-CFG3)*%
X9858000Y-9337000D03*
%TD*%
D15*
%TO.P,C5,1*%
%TO.N,+5V*%
X9176000Y-9775500D03*
%TO.P,C5,2*%
%TO.N,GND*%
X9176000Y-9930500D03*
%TD*%
D13*
%TO.P,TP6,1,1_1*%
%TO.N,GND*%
X6657000Y-9709000D03*
%TD*%
D16*
%TO.P,R5,1*%
%TO.N,/b2b_connector Sheet/MSP_JTAG.TDI*%
X6910000Y-9209000D03*
%TO.P,R5,2*%
%TO.N,Net-(U1-D4)*%
X6910000Y-9311000D03*
%TD*%
D19*
%TO.P,C3,1*%
%TO.N,+V_board*%
X10286000Y-9606500D03*
%TO.P,C3,2*%
%TO.N,GND*%
X10286000Y-9451500D03*
%TD*%
%TO.P,C7,1*%
%TO.N,+V_board*%
X9632000Y-9611000D03*
%TO.P,C7,2*%
%TO.N,GND*%
X9632000Y-9456000D03*
%TD*%
D20*
%TO.P,U2,1,EN_1*%
%TO.N,+V_board*%
X10161000Y-9436000D03*
%TO.P,U2,2,SEL_2*%
%TO.N,GND*%
X10111000Y-9436000D03*
%TO.P,U2,3,CFG1_3*%
%TO.N,Net-(U2-CFG1)*%
X10061000Y-9436000D03*
%TO.P,U2,4,CFG2_4*%
%TO.N,Net-(U2-CFG2)*%
X10011000Y-9436000D03*
%TO.P,U2,5,CFG3_5*%
%TO.N,Net-(U2-CFG3)*%
X9961000Y-9436000D03*
%TO.P,U2,6,VOUT_6*%
%TO.N,+3V3*%
X9961000Y-9666000D03*
%TO.P,U2,7,LX2_7*%
%TO.N,Net-(U2-LX2)*%
X10011000Y-9666000D03*
%TO.P,U2,8,GND_8*%
%TO.N,GND*%
X10061000Y-9666000D03*
%TO.P,U2,9,LX1_9*%
%TO.N,Net-(U2-LX1)*%
X10111000Y-9666000D03*
%TO.P,U2,10,VIN_10*%
%TO.N,+V_board*%
X10161000Y-9666000D03*
D21*
%TO.P,U2,11,EXP_11*%
%TO.N,GND*%
X10061000Y-9551000D03*
D22*
%TO.P,U2,14*%
X10121000Y-9551000D03*
%TO.P,U2,15*%
X10001000Y-9551000D03*
%TD*%
D23*
%TO.P,U1,1,D0_1*%
%TO.N,Net-(U1-D0)*%
X7180450Y-8296025D03*
%TO.P,U1,2,D1_2*%
%TO.N,Net-(U1-D1)*%
X7180450Y-8550025D03*
%TO.P,U1,3,D2_3*%
%TO.N,Net-(U1-D2)*%
X7180450Y-8804025D03*
%TO.P,U1,4,D3_4*%
%TO.N,Net-(U1-D3)*%
X7180450Y-9058025D03*
%TO.P,U1,5,D4_5*%
%TO.N,Net-(U1-D4)*%
X7180450Y-9312025D03*
%TO.P,U1,6,D5_6*%
%TO.N,Net-(U1-D5)*%
X7180450Y-9566025D03*
%TO.P,U1,7,D6_7*%
%TO.N,Net-(U1-D6)*%
X7180450Y-9820025D03*
%TO.P,U1,8,D7_8*%
%TO.N,Net-(U1-D7)*%
X8796950Y-9820025D03*
%TO.P,U1,9,D8_9*%
%TO.N,Net-(U1-D8)*%
X8796950Y-9566025D03*
%TO.P,U1,10,D9_10*%
%TO.N,Net-(U1-D9)*%
X8796950Y-9312025D03*
%TO.P,U1,11,D10_11*%
%TO.N,Net-(U1-D10)*%
X8796950Y-9058025D03*
%TO.P,U1,12,3V3_OUT_12*%
%TO.N,+3V3 ESP*%
X8796950Y-8804025D03*
%TO.P,U1,13,GND_13*%
%TO.N,GND*%
X8796950Y-8550025D03*
%TO.P,U1,14,VBUS_14*%
%TO.N,/Power/VBUS*%
X8796950Y-8296025D03*
D24*
%TO.P,U1,15,MTDI_15*%
%TO.N,unconnected-(U1-MTDI-Pad15)*%
X7858610Y-8193875D03*
%TO.P,U1,16,MTDO_16*%
%TO.N,unconnected-(U1-MTDO-Pad16)*%
X8112610Y-8193875D03*
%TO.P,U1,17,EN_17*%
%TO.N,unconnected-(U1-EN-Pad17)*%
X7858610Y-8447875D03*
%TO.P,U1,18,GND_18*%
%TO.N,unconnected-(U1-GND-Pad18)*%
X8112610Y-8447875D03*
%TO.P,U1,19,MTMS_19*%
%TO.N,unconnected-(U1-MTMS-Pad19)*%
X7858610Y-8701875D03*
%TO.P,U1,20,MTCK_20*%
%TO.N,unconnected-(U1-MTCK-Pad20)*%
X8112610Y-8701875D03*
%TO.P,U1,21,BOOT_21*%
%TO.N,unconnected-(U1-BOOT-Pad21)*%
X7858610Y-8955875D03*
%TO.P,U1,22,3V3_OUT_22*%
%TO.N,unconnected-(U1-3V3_OUT-Pad22)*%
X8103350Y-8950195D03*
D25*
%TO.P,U1,23,VBAT_23*%
%TO.N,/Power/VBAT*%
X7807810Y-9611195D03*
%TO.P,U1,24,GND_24*%
%TO.N,GND*%
X8061810Y-9611195D03*
%TD*%
D20*
%TO.P,U4,1,EN_1*%
%TO.N,+V_board*%
X9508000Y-9441000D03*
%TO.P,U4,2,SEL_2*%
%TO.N,GND*%
X9458000Y-9441000D03*
%TO.P,U4,3,CFG1_3*%
%TO.N,Net-(U4-CFG1)*%
X9408000Y-9441000D03*
%TO.P,U4,4,CFG2_4*%
%TO.N,Net-(U4-CFG2)*%
X9358000Y-9441000D03*
%TO.P,U4,5,CFG3_5*%
%TO.N,Net-(U4-CFG3)*%
X9308000Y-9441000D03*
%TO.P,U4,6,VOUT_6*%
%TO.N,+5V*%
X9308000Y-9671000D03*
%TO.P,U4,7,LX2_7*%
%TO.N,Net-(U4-LX2)*%
X9358000Y-9671000D03*
%TO.P,U4,8,GND_8*%
%TO.N,GND*%
X9408000Y-9671000D03*
%TO.P,U4,9,LX1_9*%
%TO.N,Net-(U4-LX1)*%
X9458000Y-9671000D03*
%TO.P,U4,10,VIN_10*%
%TO.N,+V_board*%
X9508000Y-9671000D03*
D21*
%TO.P,U4,11,EXP_11*%
%TO.N,GND*%
X9408000Y-9556000D03*
D22*
%TO.P,U4,14*%
X9468000Y-9556000D03*
%TO.P,U4,15*%
X9348000Y-9556000D03*
%TD*%
D26*
%TO.P,R7,1*%
%TO.N,/b2b_connector Sheet/MSP_JTAG.TCK*%
X6809000Y-9820000D03*
%TO.P,R7,2*%
%TO.N,Net-(U1-D6)*%
X6911000Y-9820000D03*
%TD*%
D13*
%TO.P,TP4,1,1_1*%
%TO.N,+V_board*%
X9646000Y-9217000D03*
%TD*%
D19*
%TO.P,C6,1*%
%TO.N,+5V*%
X9183000Y-9613000D03*
%TO.P,C6,2*%
%TO.N,GND*%
X9183000Y-9458000D03*
%TD*%
D13*
%TO.P,TP7,1,1_1*%
%TO.N,Net-(J2-Pad24)*%
X6785000Y-8470000D03*
%TD*%
D19*
%TO.P,C2,1*%
%TO.N,+3V3*%
X9836000Y-9605500D03*
%TO.P,C2,2*%
%TO.N,GND*%
X9836000Y-9450500D03*
%TD*%
D13*
%TO.P,TP1,1,1_1*%
%TO.N,Net-(Q1-Pad2)*%
X10215000Y-9005000D03*
%TD*%
D26*
%TO.P,R1,1*%
%TO.N,/b2b_connector Sheet/MSP_JTAG.RST_n*%
X6814000Y-8175000D03*
%TO.P,R1,2*%
%TO.N,Net-(U1-D0)*%
X6916000Y-8175000D03*
%TD*%
D16*
%TO.P,R4,1*%
%TO.N,/b2b_connector Sheet/MSP_JTAG.TDO*%
X6915000Y-8954000D03*
%TO.P,R4,2*%
%TO.N,Net-(U1-D3)*%
X6915000Y-9056000D03*
%TD*%
D10*
%TO.P,R20,1*%
%TO.N,Net-(U4-CFG2)*%
X9303000Y-9332000D03*
%TO.P,R20,2*%
%TO.N,GND*%
X9303000Y-9230000D03*
%TD*%
%TO.P,R13,1*%
%TO.N,Net-(U2-CFG2)*%
X9956000Y-9337000D03*
%TO.P,R13,2*%
%TO.N,GND*%
X9956000Y-9235000D03*
%TD*%
D16*
%TO.P,R3,1*%
%TO.N,/b2b_connector Sheet/MSP_JTAG.TEST*%
X6915000Y-8699000D03*
%TO.P,R3,2*%
%TO.N,Net-(U1-D2)*%
X6915000Y-8801000D03*
%TD*%
D10*
%TO.P,R22,1*%
%TO.N,/Power/VBUS*%
X9175000Y-8450000D03*
%TO.P,R22,2*%
%TO.N,GND*%
X9175000Y-8348000D03*
%TD*%
D27*
%TO.P,J1,1,1_1*%
%TO.N,/Power/VBAT*%
X9946000Y-8810000D03*
%TO.P,J1,2,2_2*%
%TO.N,Net-(U3-VSS)*%
X9746000Y-8810000D03*
D28*
%TO.P,J1,S1,SHIELD_S1*%
%TO.N,GND*%
X10181000Y-8235000D03*
%TO.P,J1,S2,SHIELD_S2*%
X9511000Y-8235000D03*
%TD*%
D10*
%TO.P,R23,1*%
%TO.N,Net-(Q2-G)*%
X9280000Y-8530000D03*
%TO.P,R23,2*%
%TO.N,/Power/VBUS*%
X9280000Y-8428000D03*
%TD*%
D29*
%TO.N,GND*%
X8549000Y-8618000D03*
X7387000Y-9958000D03*
X6816000Y-8654000D03*
X6636000Y-9832000D03*
X9304000Y-8274000D03*
X9144000Y-8968000D03*
X9314000Y-9075000D03*
X8183000Y-9483000D03*
X6660000Y-9938000D03*
X8539000Y-8491000D03*
X6758000Y-8715000D03*
X8599000Y-9371000D03*
X7431000Y-9737000D03*
X7941000Y-9465000D03*
X10298000Y-9959000D03*
X7434000Y-8335000D03*
X10083000Y-8924000D03*
X9735000Y-9640000D03*
X6969000Y-9946000D03*
X9305000Y-8111000D03*
X9972000Y-9154000D03*
X6974000Y-8336000D03*
X7378000Y-9432000D03*
X10143000Y-8702000D03*
X9937000Y-8324000D03*
X6721000Y-9370000D03*
X6748000Y-8241000D03*
X9683000Y-9969000D03*
X9020000Y-8114000D03*
X8574000Y-9869000D03*
X7381000Y-9248000D03*
X9685000Y-8408000D03*
X8409000Y-9498000D03*
X9182000Y-8205000D03*
X8318000Y-8521000D03*
X7412000Y-8213000D03*
X9497000Y-9339000D03*
X8532000Y-8201000D03*
X9101000Y-9350000D03*
X7987000Y-9085000D03*
X7581000Y-9441000D03*
X7382000Y-9092000D03*
X9683000Y-8330000D03*
X9898000Y-9153000D03*
X6949000Y-9681000D03*
X9767000Y-8151000D03*
X9072000Y-10011000D03*
X10314000Y-9344000D03*
X8378000Y-8968000D03*
X6693000Y-8295000D03*
X9736000Y-9402000D03*
X8318000Y-8200000D03*
%TO.N,+V_board*%
X9011000Y-8707000D03*
X10214000Y-9705000D03*
X9093000Y-8712000D03*
X9037000Y-8628000D03*
X10276000Y-9706000D03*
X9664000Y-9059000D03*
X10216000Y-9238000D03*
X9580000Y-9699000D03*
X6994000Y-9493000D03*
X6996000Y-9435000D03*
X9654000Y-9721000D03*
%TO.N,/Power/VBAT*%
X9293000Y-8667000D03*
%TO.N,+3V3*%
X9833000Y-9694000D03*
X7028942Y-9185025D03*
X6992950Y-9093890D03*
X9906000Y-9676000D03*
%TO.N,/b2b_connector Sheet/MSP_JTAG.TMS*%
X6730000Y-9145000D03*
%TO.N,+5V*%
X9115000Y-9687000D03*
X6988478Y-9254995D03*
%TO.N,/b2b_connector Sheet/MSP_JTAG.TDI*%
X6760769Y-9071154D03*
%TO.N,Net-(U1-D1)*%
X7370000Y-8665000D03*
%TO.N,Net-(U1-D7)*%
X7390000Y-8550000D03*
%TO.N,Net-(U1-D8)*%
X7390000Y-8420000D03*
%TO.N,Net-(U1-D9)*%
X7505000Y-8160000D03*
%TO.N,Net-(U1-D10)*%
X7660000Y-8360000D03*
%TO.N,+3V3 ESP*%
X6805000Y-9208000D03*
X8549000Y-8764000D03*
X8550000Y-8838000D03*
X6818000Y-9281000D03*
%TO.N,/b2b_connector Sheet/MSP_JTAG.TCK*%
X6750000Y-9465000D03*
%TO.N,Net-(J2-Pad24)*%
X6788658Y-8908327D03*
%TO.N,Net-(Q1-Pad2)*%
X10245000Y-8895000D03*
%TO.N,/b2b_connector Sheet/MSP_JTAG.RST_n*%
X6717500Y-9540000D03*
%TO.N,/b2b_connector Sheet/MSP_JTAG.TDO*%
X6771514Y-8986468D03*
%TO.N,/b2b_connector Sheet/MSP_JTAG.TEST*%
X6777242Y-8807242D03*
%TO.N,Net-(U3-VSS)*%
X9636000Y-8609000D03*
X9744000Y-8885000D03*
X9744000Y-8775000D03*
X9746000Y-8680000D03*
X9597000Y-8671000D03*
X9638000Y-8827000D03*
X9640000Y-8734000D03*
%TO.N,Net-(U3-DOUT)*%
X9690000Y-8230000D03*
X10185000Y-8545000D03*
%TD*%
%TO.N,Net-(U2-CFG1)*%
D30*
X10056000Y-9337000D02*
X10056000Y-9431000D01*
X10056000Y-9431000D02*
X10061000Y-9436000D01*
%TO.N,GND*%
X10061000Y-9666000D02*
X10061000Y-9586000D01*
X9408000Y-9671000D02*
X9408000Y-9591000D01*
X9458000Y-9441000D02*
X9458000Y-9506000D01*
X10111000Y-9436000D02*
X10111000Y-9501000D01*
%TO.N,Net-(Q2-G)*%
X9197500Y-8544000D02*
X9266000Y-8544000D01*
%TO.N,+V_board*%
X9508000Y-9410000D02*
X9508000Y-9441000D01*
X10161000Y-9293000D02*
X10161000Y-9436000D01*
X9646000Y-9217000D02*
X9646000Y-9272000D01*
X9660000Y-9203000D02*
X9646000Y-9217000D01*
X9664000Y-9059000D02*
X9660000Y-9063000D01*
X9070000Y-8544000D02*
X9055000Y-8529000D01*
X9660000Y-9063000D02*
X9660000Y-9203000D01*
X9646000Y-9272000D02*
X9508000Y-9410000D01*
X10216000Y-9238000D02*
X10161000Y-9293000D01*
X9152500Y-8544000D02*
X9070000Y-8544000D01*
%TO.N,/Power/VBAT*%
D31*
X9525000Y-8477000D02*
X9006000Y-8996000D01*
X8937000Y-10023000D02*
X8526000Y-10023000D01*
X9945000Y-8780000D02*
X9945000Y-8588000D01*
X8350000Y-9847000D02*
X7960000Y-9847000D01*
X9834000Y-8477000D02*
X9525000Y-8477000D01*
X7960000Y-9847000D02*
X7807810Y-9694810D01*
D32*
X9175000Y-8614000D02*
X9241000Y-8614000D01*
D31*
X8526000Y-10023000D02*
X8350000Y-9847000D01*
X9293000Y-8667000D02*
X9293500Y-8666500D01*
X9006000Y-9954000D02*
X8937000Y-10023000D01*
X9945000Y-8588000D02*
X9834000Y-8477000D01*
X9006000Y-8996000D02*
X9006000Y-9954000D01*
D32*
X9241000Y-8614000D02*
X9293500Y-8666500D01*
%TO.N,/b2b_connector Sheet/MSP_JTAG.TMS*%
D30*
X6730000Y-9279000D02*
X6730000Y-9145000D01*
X6910000Y-9459000D02*
X6730000Y-9279000D01*
%TO.N,Net-(U1-D5)*%
X7180450Y-9566025D02*
X6915025Y-9566025D01*
%TO.N,Net-(U4-CFG3)*%
X9212000Y-9337000D02*
X9212000Y-9345000D01*
X9206000Y-9331000D02*
X9212000Y-9337000D01*
X9212000Y-9345000D02*
X9308000Y-9441000D01*
%TO.N,Net-(U4-CFG1)*%
X9408000Y-9441000D02*
X9408000Y-9342000D01*
%TO.N,Net-(U2-CFG3)*%
X9957000Y-9436000D02*
X9858000Y-9337000D01*
X9961000Y-9436000D02*
X9957000Y-9436000D01*
%TO.N,+5V*%
D32*
X9099000Y-9687000D02*
X9115000Y-9687000D01*
D30*
X9183000Y-9613000D02*
X9203000Y-9633000D01*
D32*
X9096000Y-9684000D02*
X9099000Y-9687000D01*
%TO.N,/b2b_connector Sheet/MSP_JTAG.TDI*%
D30*
X6898616Y-9209000D02*
X6760769Y-9071154D01*
%TO.N,Net-(U1-D4)*%
X7180450Y-9312025D02*
X6911025Y-9312025D01*
%TO.N,Net-(U2-CFG2)*%
X10011000Y-9436000D02*
X10011000Y-9392000D01*
X10011000Y-9392000D02*
X9956000Y-9337000D01*
%TO.N,Net-(U1-D0)*%
X7180450Y-8296025D02*
X7037025Y-8296025D01*
X7037025Y-8296025D02*
X6916000Y-8175000D01*
%TO.N,Net-(U1-D1)*%
X7370000Y-8665000D02*
X7370000Y-8660000D01*
X7370000Y-8660000D02*
X7260025Y-8550025D01*
%TO.N,Net-(U1-D2)*%
X7180450Y-8804025D02*
X6918025Y-8804025D01*
%TO.N,Net-(U1-D3)*%
X6916000Y-9056000D02*
X6974000Y-8998000D01*
X6974000Y-8998000D02*
X7120425Y-8998000D01*
%TO.N,Net-(U1-D6)*%
X7180450Y-9820025D02*
X6911025Y-9820025D01*
%TO.N,Net-(U1-D7)*%
X7445000Y-8605000D02*
X7390000Y-8550000D01*
X8200000Y-9390000D02*
X7660000Y-9390000D01*
X8630025Y-9820025D02*
X8200000Y-9390000D01*
X8796950Y-9820025D02*
X8630025Y-9820025D01*
X7660000Y-9390000D02*
X7445000Y-9175000D01*
X7445000Y-9175000D02*
X7445000Y-8605000D01*
%TO.N,Net-(U1-D8)*%
X7690000Y-9310000D02*
X8335000Y-9310000D01*
X8335000Y-9310000D02*
X8591025Y-9566025D01*
X7505000Y-9125000D02*
X7690000Y-9310000D01*
X7390000Y-8420000D02*
X7505000Y-8535000D01*
X8591025Y-9566025D02*
X8796950Y-9566025D01*
X7505000Y-8535000D02*
X7505000Y-9125000D01*
%TO.N,Net-(U1-D9)*%
X8502025Y-9312025D02*
X8435000Y-9245000D01*
X8796950Y-9312025D02*
X8502025Y-9312025D01*
X7580000Y-8442000D02*
X7505000Y-8367000D01*
X7580000Y-9070000D02*
X7580000Y-8442000D01*
X7755000Y-9245000D02*
X7580000Y-9070000D01*
X8435000Y-9245000D02*
X7755000Y-9245000D01*
X7505000Y-8367000D02*
X7505000Y-8160000D01*
%TO.N,Net-(U1-D10)*%
X8255000Y-9170000D02*
X8366975Y-9058025D01*
X7660000Y-9020000D02*
X7810000Y-9170000D01*
X7810000Y-9170000D02*
X8255000Y-9170000D01*
X7660000Y-8360000D02*
X7660000Y-9020000D01*
X8366975Y-9058025D02*
X8796950Y-9058025D01*
%TO.N,+3V3 ESP*%
D32*
X8549000Y-8764000D02*
X8756925Y-8764000D01*
X8550000Y-8838000D02*
X8762975Y-8838000D01*
%TO.N,Net-(U4-CFG2)*%
D30*
X9358000Y-9387000D02*
X9303000Y-9332000D01*
X9358000Y-9441000D02*
X9358000Y-9387000D01*
%TO.N,/b2b_connector Sheet/MSP_JTAG.TCK*%
X6809000Y-9524000D02*
X6750000Y-9465000D01*
X6809000Y-9820000D02*
X6809000Y-9524000D01*
%TO.N,Net-(J2-Pad24)*%
X6788658Y-8908327D02*
X6700000Y-8819668D01*
X6785000Y-8595000D02*
X6785000Y-8470000D01*
X6700000Y-8819668D02*
X6700000Y-8680000D01*
X6700000Y-8680000D02*
X6785000Y-8595000D01*
%TO.N,Net-(Q1-Pad2)*%
X10220000Y-8920000D02*
X10220000Y-9000000D01*
X10245000Y-8895000D02*
X10220000Y-8920000D01*
%TO.N,/b2b_connector Sheet/MSP_JTAG.RST_n*%
X6814000Y-8175000D02*
X6735000Y-8175000D01*
X6635000Y-9457500D02*
X6717500Y-9540000D01*
X6635000Y-8275000D02*
X6635000Y-9457500D01*
X6735000Y-8175000D02*
X6635000Y-8275000D01*
%TO.N,/b2b_connector Sheet/MSP_JTAG.TDO*%
X6882532Y-8986468D02*
X6771514Y-8986468D01*
X6915000Y-8954000D02*
X6882532Y-8986468D01*
%TO.N,/b2b_connector Sheet/MSP_JTAG.TEST*%
X6885484Y-8699000D02*
X6915000Y-8699000D01*
X6777242Y-8807242D02*
X6885484Y-8699000D01*
%TO.N,Net-(U3-DOUT)*%
X10180000Y-8545000D02*
X10115000Y-8480000D01*
X9995000Y-8480000D02*
X9745000Y-8230000D01*
X10115000Y-8480000D02*
X9995000Y-8480000D01*
X10185000Y-8545000D02*
X10180000Y-8545000D01*
X9745000Y-8230000D02*
X9690000Y-8230000D01*
%TD*%
%TA.AperFunction,Conductor*%
%TO.N,+3V3*%
G36*
X9881389Y-9577422D02*
G01*
X9884433Y-9578237D01*
X9887422Y-9579475D01*
X9933471Y-9606041D01*
X9935929Y-9607902D01*
X9936091Y-9608059D01*
X9936911Y-9608919D01*
X9937288Y-9609226D01*
X9937683Y-9609611D01*
X9939136Y-9612193D01*
X9940814Y-9614636D01*
X9941006Y-9615298D01*
X9941354Y-9615996D01*
X9941451Y-9616194D01*
X9941543Y-9616386D01*
X9941635Y-9616582D01*
X9942026Y-9617438D01*
X9943300Y-9619988D01*
X9943458Y-9620170D01*
X9944072Y-9620938D01*
X9944222Y-9621142D01*
X9944234Y-9621162D01*
X9944421Y-9621422D01*
X9944469Y-9621479D01*
X9944640Y-9621710D01*
X9944642Y-9621716D01*
X9944712Y-9621809D01*
X9944721Y-9621821D01*
X9944721Y-9621822D01*
X9944721Y-9621822D01*
X9946862Y-9624338D01*
X9947662Y-9625138D01*
X9950178Y-9627279D01*
X9950182Y-9627281D01*
X9950552Y-9627557D01*
X9950578Y-9627579D01*
X9950706Y-9627671D01*
X9951386Y-9628176D01*
X9951657Y-9628522D01*
X9952251Y-9628819D01*
X9952251Y-9628819D01*
X9954426Y-9629907D01*
X9954426Y-9629907D01*
X9954563Y-9629975D01*
X9955884Y-9630578D01*
X9955950Y-9630605D01*
X9956015Y-9630633D01*
X9956700Y-9630888D01*
X9957385Y-9631144D01*
X9957685Y-9631244D01*
X9960744Y-9631997D01*
X9960744Y-9631997D01*
X9960940Y-9632045D01*
X9960942Y-9632046D01*
X9961084Y-9632081D01*
X9961571Y-9632170D01*
X9961804Y-9632215D01*
X9961835Y-9632222D01*
X9961886Y-9632232D01*
X9961892Y-9632233D01*
X9961893Y-9632234D01*
X9962209Y-9632285D01*
X9962210Y-9632285D01*
X9962457Y-9632315D01*
X9962455Y-9632325D01*
X9962456Y-9632325D01*
X9962454Y-9632332D01*
X9962451Y-9632363D01*
X9965494Y-9633054D01*
X9966954Y-9633613D01*
X9972509Y-9637851D01*
X9972509Y-9637851D01*
X9972804Y-9638251D01*
X9975005Y-9643348D01*
X9975045Y-9643563D01*
X9975248Y-9645610D01*
X9975893Y-9686273D01*
X9975893Y-9686273D01*
X9975893Y-9686273D01*
X9975446Y-9689774D01*
X9974729Y-9692368D01*
X9971909Y-9697453D01*
X9868791Y-9809696D01*
X9866058Y-9811929D01*
X9864313Y-9812980D01*
X9858437Y-9814747D01*
X9857659Y-9814779D01*
X9855007Y-9814606D01*
X9789026Y-9803097D01*
X9785670Y-9802002D01*
X9784269Y-9801311D01*
X9779128Y-9796580D01*
X9778773Y-9795990D01*
X9777000Y-9789601D01*
X9777000Y-9748799D01*
X9777011Y-9748269D01*
X9777034Y-9747733D01*
X9777068Y-9747208D01*
X9784919Y-9655946D01*
X9784989Y-9655319D01*
X9785075Y-9654690D01*
X9785178Y-9654067D01*
X9789000Y-9634000D01*
X9789755Y-9590965D01*
X9790319Y-9587481D01*
X9790785Y-9585989D01*
X9794665Y-9580178D01*
X9794848Y-9580025D01*
X9800274Y-9577398D01*
X9800933Y-9577261D01*
X9803463Y-9577000D01*
X9878181Y-9577000D01*
X9881389Y-9577422D01*
G37*
%TD.AperFunction*%
%TD*%
%TA.AperFunction,Conductor*%
%TO.N,+V_board*%
G36*
X9673499Y-9588086D02*
G01*
X9678186Y-9593268D01*
X9679412Y-9598241D01*
X9683842Y-9730038D01*
X9683115Y-9732865D01*
X9682663Y-9735748D01*
X9682187Y-9736469D01*
X9682100Y-9736805D01*
X9680717Y-9738693D01*
X9671120Y-9749490D01*
X9665194Y-9753193D01*
X9662841Y-9753613D01*
X9634056Y-9755915D01*
X9631945Y-9755904D01*
X9581952Y-9751359D01*
X9575454Y-9748792D01*
X9574991Y-9748413D01*
X9521000Y-9702000D01*
X9507400Y-9702000D01*
X9500696Y-9700032D01*
X9496121Y-9694751D01*
X9495000Y-9689600D01*
X9495000Y-9653400D01*
X9496969Y-9646696D01*
X9502249Y-9642121D01*
X9507400Y-9641000D01*
X9520000Y-9641000D01*
X9520000Y-9641000D01*
X9581694Y-9590696D01*
X9588133Y-9587985D01*
X9589264Y-9587909D01*
X9666755Y-9586261D01*
X9673499Y-9588086D01*
G37*
%TD.AperFunction*%
%TD*%
%TA.AperFunction,Conductor*%
%TO.N,Net-(U2-LX1)*%
G36*
X10118149Y-9639604D02*
G01*
X10122726Y-9644883D01*
X10123565Y-9647401D01*
X10123716Y-9648096D01*
X10124000Y-9650733D01*
X10124000Y-9695000D01*
X10124780Y-9695704D01*
X10125762Y-9696695D01*
X10126544Y-9697578D01*
X10126652Y-9697808D01*
X10126773Y-9697968D01*
X10127446Y-9698728D01*
X10127923Y-9699415D01*
X10128825Y-9700937D01*
X10128852Y-9700991D01*
X10128949Y-9701190D01*
X10129045Y-9701391D01*
X10129136Y-9701586D01*
X10129525Y-9702438D01*
X10130800Y-9704988D01*
X10130958Y-9705170D01*
X10131572Y-9705938D01*
X10131722Y-9706142D01*
X10131734Y-9706162D01*
X10131921Y-9706422D01*
X10131969Y-9706479D01*
X10132140Y-9706710D01*
X10132142Y-9706716D01*
X10132212Y-9706809D01*
X10132221Y-9706821D01*
X10134362Y-9709338D01*
X10135162Y-9710138D01*
X10135162Y-9710138D01*
X10136354Y-9711153D01*
X10137364Y-9712115D01*
X10140716Y-9715690D01*
X10140717Y-9715691D01*
X10161742Y-9732510D01*
X10182767Y-9749330D01*
X10183613Y-9749972D01*
X10183615Y-9749973D01*
X10184657Y-9750722D01*
X10185243Y-9751008D01*
X10185562Y-9751164D01*
X10188425Y-9753098D01*
X10230581Y-9791113D01*
X10232839Y-9793826D01*
X10234163Y-9795979D01*
X10236001Y-9802473D01*
X10236022Y-9962954D01*
X10235521Y-9966447D01*
X10235080Y-9967947D01*
X10231304Y-9973826D01*
X10231302Y-9973828D01*
X10231168Y-9973943D01*
X10225677Y-9976689D01*
X10224914Y-9976855D01*
X10222269Y-9977137D01*
X10130167Y-9977018D01*
X10126674Y-9976511D01*
X10125175Y-9976069D01*
X10119303Y-9972285D01*
X10119182Y-9972145D01*
X10116444Y-9966663D01*
X10116281Y-9965914D01*
X10116000Y-9963287D01*
X10116000Y-9796001D01*
X10116000Y-9796000D01*
X10116000Y-9795999D01*
X10116000Y-9795998D01*
X10116000Y-9795997D01*
X10113776Y-9783523D01*
X10113776Y-9783523D01*
X10108146Y-9751929D01*
X10098316Y-9696775D01*
X10098164Y-9695590D01*
X10098068Y-9694394D01*
X10098031Y-9693197D01*
X10098759Y-9650968D01*
X10098946Y-9649810D01*
X10098917Y-9649808D01*
X10098954Y-9649341D01*
X10099081Y-9648853D01*
X10099040Y-9648571D01*
X10099276Y-9647768D01*
X10099322Y-9647483D01*
X10099442Y-9647099D01*
X10099470Y-9647107D01*
X10100033Y-9645185D01*
X10100167Y-9644891D01*
X10104741Y-9639609D01*
X10111444Y-9637638D01*
X10118149Y-9639604D01*
G37*
%TD.AperFunction*%
%TD*%
%TA.AperFunction,Conductor*%
%TO.N,Net-(U2-LX2)*%
G36*
X10015118Y-9637502D02*
G01*
X10016617Y-9637943D01*
X10018117Y-9638906D01*
X10019827Y-9639408D01*
X10022494Y-9641719D01*
X10023062Y-9642374D01*
X10025694Y-9647381D01*
X10026355Y-9649928D01*
X10026652Y-9651471D01*
X10026850Y-9653023D01*
X10026950Y-9654593D01*
X10026950Y-9691502D01*
X10027215Y-9694790D01*
X10027215Y-9694790D01*
X10027267Y-9695110D01*
X10027309Y-9695316D01*
X10027309Y-9695316D01*
X10027322Y-9695383D01*
X10027364Y-9695593D01*
X10027367Y-9695607D01*
X10027369Y-9695618D01*
X10027396Y-9695755D01*
X10027396Y-9695756D01*
X10027419Y-9695876D01*
X10027426Y-9695909D01*
X10027426Y-9695909D01*
X10027466Y-9696106D01*
X10028256Y-9699313D01*
X10028256Y-9699315D01*
X10028334Y-9699550D01*
X10028356Y-9699615D01*
X10028868Y-9700985D01*
X10028922Y-9701116D01*
X10029215Y-9701759D01*
X10029216Y-9701760D01*
X10029264Y-9701865D01*
X10029264Y-9701866D01*
X10029525Y-9702438D01*
X10030800Y-9704988D01*
X10030958Y-9705170D01*
X10031572Y-9705938D01*
X10031722Y-9706142D01*
X10031734Y-9706162D01*
X10031921Y-9706422D01*
X10031969Y-9706479D01*
X10032140Y-9706710D01*
X10032142Y-9706716D01*
X10032212Y-9706809D01*
X10032221Y-9706821D01*
X10032221Y-9706822D01*
X10032221Y-9706822D01*
X10034362Y-9709338D01*
X10035162Y-9710138D01*
X10037678Y-9712279D01*
X10037679Y-9712280D01*
X10037805Y-9712379D01*
X10039047Y-9713495D01*
X10039506Y-9713967D01*
X10040142Y-9714778D01*
X10041731Y-9716256D01*
X10041948Y-9716480D01*
X10043378Y-9719190D01*
X10045059Y-9722008D01*
X10063408Y-9792717D01*
X10063704Y-9794254D01*
X10063902Y-9795797D01*
X10064003Y-9797358D01*
X10064226Y-9962280D01*
X10064008Y-9963815D01*
X10063729Y-9965774D01*
X10063290Y-9967274D01*
X10059521Y-9973157D01*
X10059521Y-9973158D01*
X10059384Y-9973277D01*
X10053904Y-9976029D01*
X10053149Y-9976195D01*
X10050516Y-9976482D01*
X9958203Y-9976632D01*
X9958203Y-9976633D01*
X9958203Y-9976632D01*
X9958203Y-9976633D01*
X9954709Y-9976136D01*
X9953208Y-9975698D01*
X9951576Y-9974653D01*
X9947325Y-9971931D01*
X9947209Y-9971798D01*
X9944452Y-9966307D01*
X9944285Y-9965541D01*
X9944000Y-9962897D01*
X9944000Y-9799677D01*
X9944378Y-9796639D01*
X9945111Y-9793738D01*
X9946222Y-9790885D01*
X9998000Y-9695000D01*
X9998000Y-9651182D01*
X9998187Y-9649038D01*
X9998351Y-9648105D01*
X9998491Y-9647822D01*
X9998502Y-9647689D01*
X9998631Y-9647252D01*
X9998728Y-9647281D01*
X9999138Y-9645674D01*
X9999069Y-9645648D01*
X9999175Y-9645363D01*
X9999239Y-9645277D01*
X9999285Y-9645098D01*
X9999409Y-9644827D01*
X9999533Y-9644884D01*
X10000747Y-9643263D01*
X10001449Y-9641843D01*
X10002102Y-9641451D01*
X10003002Y-9640249D01*
X10002912Y-9640145D01*
X10003018Y-9640054D01*
X10003216Y-9639963D01*
X10003361Y-9639769D01*
X10003365Y-9639766D01*
X10003609Y-9639584D01*
X10003720Y-9639733D01*
X10009372Y-9637148D01*
X10009530Y-9637125D01*
X10011287Y-9637000D01*
X10011624Y-9637000D01*
X10015118Y-9637502D01*
G37*
%TD.AperFunction*%
%TD*%
%TA.AperFunction,Conductor*%
%TO.N,/Power/VBUS*%
G36*
X8913257Y-8199888D02*
G01*
X8919921Y-8201987D01*
X8922629Y-8204453D01*
X9029000Y-8335000D01*
X9074273Y-8335888D01*
X9080937Y-8337987D01*
X9083627Y-8340433D01*
X9134000Y-8402000D01*
X9293761Y-8401071D01*
X9300476Y-8403001D01*
X9305082Y-8408254D01*
X9306231Y-8413237D01*
X9306808Y-8443809D01*
X9304966Y-8450549D01*
X9299773Y-8455223D01*
X9297039Y-8456161D01*
X9202189Y-8476742D01*
X9199783Y-8477022D01*
X9089999Y-8479000D01*
X9026390Y-8480844D01*
X9019632Y-8479070D01*
X9017210Y-8477164D01*
X8984252Y-8443809D01*
X8938000Y-8397000D01*
X8938000Y-8397000D01*
X8667967Y-8399863D01*
X8661242Y-8397965D01*
X8656611Y-8392734D01*
X8655443Y-8387040D01*
X8661583Y-8207212D01*
X8663779Y-8200579D01*
X8669213Y-8196187D01*
X8674217Y-8195238D01*
X8913257Y-8199888D01*
G37*
%TD.AperFunction*%
%TD*%
%TA.AperFunction,Conductor*%
%TO.N,+V_board*%
G36*
X9085357Y-8509065D02*
G01*
X9086615Y-8509194D01*
X9087871Y-8509389D01*
X9151377Y-8522585D01*
X9154686Y-8523782D01*
X9154695Y-8523787D01*
X9155878Y-8524419D01*
X9155896Y-8524427D01*
X9156080Y-8524525D01*
X9158374Y-8526773D01*
X9160630Y-8528852D01*
X9160704Y-8528804D01*
X9160808Y-8528966D01*
X9160809Y-8528966D01*
X9161031Y-8529313D01*
X9161057Y-8529401D01*
X9161071Y-8529415D01*
X9161104Y-8529561D01*
X9163000Y-8536017D01*
X9163000Y-8547817D01*
X9163000Y-8547818D01*
X9163000Y-8547818D01*
X9162498Y-8551311D01*
X9162057Y-8552811D01*
X9158283Y-8558686D01*
X9158279Y-8558689D01*
X9158279Y-8558689D01*
X9158279Y-8558689D01*
X9158146Y-8558804D01*
X9152660Y-8561552D01*
X9151904Y-8561716D01*
X9149267Y-8562000D01*
X9142000Y-8562000D01*
X9113000Y-8592000D01*
X9114000Y-8642000D01*
X9144758Y-8671904D01*
X9144758Y-8671904D01*
X9146913Y-8674699D01*
X9148154Y-8676897D01*
X9149746Y-8683479D01*
X9148274Y-8721011D01*
X9147635Y-8724483D01*
X9146803Y-8726955D01*
X9143375Y-8732189D01*
X9099865Y-8771594D01*
X9096939Y-8773567D01*
X9094463Y-8774764D01*
X9089066Y-8776000D01*
X9010817Y-8776000D01*
X9007324Y-8775498D01*
X9004769Y-8774748D01*
X8999619Y-8771741D01*
X8973075Y-8745934D01*
X8970920Y-8743139D01*
X8969650Y-8740888D01*
X8968049Y-8734697D01*
X8968953Y-8618012D01*
X8969483Y-8614524D01*
X8970350Y-8611653D01*
X8972464Y-8607585D01*
X9020000Y-8547000D01*
X9020653Y-8522847D01*
X9021249Y-8519369D01*
X9021730Y-8517881D01*
X9025664Y-8512108D01*
X9025877Y-8511933D01*
X9031266Y-8509372D01*
X9031874Y-8509249D01*
X9034345Y-8509000D01*
X9084089Y-8509000D01*
X9085357Y-8509065D01*
G37*
%TD.AperFunction*%
%TD*%
%TA.AperFunction,Conductor*%
%TO.N,+5V*%
G36*
X9220307Y-9573943D02*
G01*
X9226986Y-9575993D01*
X9228479Y-9577150D01*
X9299000Y-9641000D01*
X9306510Y-9641000D01*
X9313214Y-9642969D01*
X9317790Y-9648249D01*
X9318910Y-9653490D01*
X9318601Y-9696189D01*
X9316585Y-9702879D01*
X9315176Y-9704657D01*
X9225128Y-9799100D01*
X9219078Y-9802594D01*
X9216449Y-9802940D01*
X9138759Y-9804791D01*
X9132010Y-9802983D01*
X9127311Y-9797813D01*
X9126878Y-9796813D01*
X9091056Y-9702879D01*
X9086941Y-9692090D01*
X9086392Y-9685125D01*
X9087436Y-9682127D01*
X9138527Y-9579947D01*
X9143285Y-9574831D01*
X9149766Y-9573094D01*
X9220307Y-9573943D01*
G37*
%TD.AperFunction*%
%TD*%
%TA.AperFunction,Conductor*%
%TO.N,Net-(U3-VSS)*%
G36*
X9695739Y-8543916D02*
G01*
X9697712Y-8545385D01*
X9791970Y-8631326D01*
X9795598Y-8637297D01*
X9796016Y-8640453D01*
X9796965Y-8972565D01*
X9795015Y-8979274D01*
X9789748Y-8983865D01*
X9784565Y-8985000D01*
X9702022Y-8985000D01*
X9695318Y-8983032D01*
X9693393Y-8981505D01*
X9568000Y-8860000D01*
X9567993Y-8859993D01*
X9537867Y-8830754D01*
X9534428Y-8824672D01*
X9534106Y-8821612D01*
X9537923Y-8627927D01*
X9540023Y-8621264D01*
X9540325Y-8620833D01*
X9592424Y-8549871D01*
X9597978Y-8545632D01*
X9602040Y-8544815D01*
X9688978Y-8542154D01*
X9695739Y-8543916D01*
G37*
%TD.AperFunction*%
%TD*%
%TA.AperFunction,Conductor*%
%TO.N,Net-(U4-LX1)*%
G36*
X9457915Y-9641557D02*
G01*
X9458313Y-9641440D01*
X9458968Y-9641633D01*
X9461330Y-9641802D01*
X9461684Y-9641906D01*
X9461811Y-9641943D01*
X9463310Y-9642906D01*
X9465018Y-9643407D01*
X9467686Y-9645717D01*
X9467804Y-9645854D01*
X9470552Y-9651340D01*
X9470716Y-9652096D01*
X9471000Y-9654733D01*
X9471000Y-9699000D01*
X9471100Y-9699214D01*
X9472488Y-9700674D01*
X9474179Y-9702930D01*
X9475629Y-9705422D01*
X9475676Y-9705530D01*
X9475696Y-9705575D01*
X9475780Y-9705782D01*
X9475783Y-9705781D01*
X9475921Y-9706114D01*
X9475922Y-9706116D01*
X9475922Y-9706116D01*
X9476135Y-9706583D01*
X9476135Y-9706584D01*
X9476136Y-9706585D01*
X9476136Y-9706585D01*
X9476525Y-9707437D01*
X9477800Y-9709988D01*
X9477958Y-9710170D01*
X9478572Y-9710938D01*
X9478722Y-9711142D01*
X9478734Y-9711162D01*
X9478921Y-9711422D01*
X9478969Y-9711479D01*
X9479140Y-9711710D01*
X9479142Y-9711716D01*
X9479212Y-9711809D01*
X9479221Y-9711821D01*
X9479221Y-9711822D01*
X9479221Y-9711822D01*
X9481362Y-9714338D01*
X9482162Y-9715138D01*
X9484678Y-9717279D01*
X9484682Y-9717281D01*
X9485052Y-9717557D01*
X9485078Y-9717579D01*
X9485206Y-9717671D01*
X9485886Y-9718176D01*
X9486157Y-9718522D01*
X9486751Y-9718819D01*
X9486751Y-9718819D01*
X9488926Y-9719907D01*
X9488926Y-9719907D01*
X9489063Y-9719975D01*
X9490384Y-9720578D01*
X9490450Y-9720605D01*
X9490515Y-9720633D01*
X9491200Y-9720888D01*
X9491885Y-9721144D01*
X9492185Y-9721244D01*
X9495244Y-9721997D01*
X9495244Y-9721997D01*
X9495440Y-9722045D01*
X9495442Y-9722046D01*
X9495617Y-9722089D01*
X9498024Y-9722953D01*
X9500700Y-9724239D01*
X9503267Y-9725889D01*
X9579201Y-9789167D01*
X9579201Y-9789167D01*
X9581563Y-9791790D01*
X9582934Y-9793835D01*
X9584890Y-9798857D01*
X9584894Y-9798882D01*
X9585019Y-9800460D01*
X9585031Y-9800500D01*
X9585024Y-9800527D01*
X9585037Y-9800695D01*
X9585939Y-9961957D01*
X9585456Y-9965454D01*
X9585024Y-9966956D01*
X9584067Y-9968464D01*
X9583573Y-9970180D01*
X9581282Y-9972850D01*
X9581279Y-9972855D01*
X9581204Y-9972921D01*
X9581158Y-9972962D01*
X9575648Y-9975744D01*
X9574851Y-9975919D01*
X9572168Y-9976207D01*
X9480158Y-9976028D01*
X9476666Y-9975519D01*
X9475167Y-9975075D01*
X9473668Y-9974108D01*
X9471958Y-9973602D01*
X9469299Y-9971288D01*
X9469297Y-9971287D01*
X9469295Y-9971285D01*
X9469173Y-9971142D01*
X9466442Y-9965666D01*
X9466281Y-9964921D01*
X9466000Y-9962297D01*
X9466000Y-9794000D01*
X9465999Y-9793996D01*
X9459914Y-9765888D01*
X9446700Y-9704851D01*
X9446700Y-9704851D01*
X9446709Y-9704720D01*
X9446702Y-9704710D01*
X9446481Y-9703840D01*
X9446322Y-9703106D01*
X9446322Y-9703106D01*
X9445421Y-9698943D01*
X9445210Y-9697640D01*
X9445070Y-9696330D01*
X9445000Y-9695012D01*
X9445000Y-9655183D01*
X9445502Y-9651689D01*
X9445938Y-9650206D01*
X9449716Y-9644328D01*
X9451536Y-9643497D01*
X9451610Y-9643411D01*
X9451928Y-9643318D01*
X9456071Y-9641425D01*
X9457915Y-9641557D01*
G37*
%TD.AperFunction*%
%TD*%
%TA.AperFunction,Conductor*%
%TO.N,+V_board*%
G36*
X10326155Y-9582382D02*
G01*
X10330805Y-9587597D01*
X10332000Y-9592908D01*
X10332000Y-9677162D01*
X10330084Y-9683784D01*
X10300755Y-9730222D01*
X10295511Y-9734839D01*
X10290271Y-9736000D01*
X10203350Y-9736000D01*
X10196646Y-9734032D01*
X10195604Y-9733283D01*
X10191777Y-9730222D01*
X10153555Y-9699644D01*
X10149550Y-9693919D01*
X10148903Y-9690168D01*
X10148148Y-9644871D01*
X10148176Y-9644767D01*
X10148146Y-9644664D01*
X10149102Y-9641408D01*
X10150004Y-9638135D01*
X10150084Y-9638063D01*
X10150115Y-9637960D01*
X10152680Y-9635737D01*
X10155208Y-9633472D01*
X10155341Y-9633432D01*
X10155395Y-9633385D01*
X10156117Y-9633197D01*
X10158782Y-9632390D01*
X10159164Y-9632335D01*
X10159791Y-9632285D01*
X10160107Y-9632234D01*
X10160332Y-9632178D01*
X10160607Y-9632134D01*
X10160662Y-9632120D01*
X10160700Y-9632115D01*
X10160815Y-9632091D01*
X10160901Y-9632075D01*
X10161105Y-9632034D01*
X10161107Y-9632034D01*
X10164315Y-9631244D01*
X10164615Y-9631144D01*
X10165985Y-9630633D01*
X10166116Y-9630578D01*
X10167437Y-9629975D01*
X10167574Y-9629907D01*
X10167574Y-9629907D01*
X10169988Y-9628699D01*
X10170106Y-9628530D01*
X10170678Y-9628096D01*
X10171014Y-9627856D01*
X10171162Y-9627766D01*
X10171422Y-9627579D01*
X10171527Y-9627489D01*
X10171545Y-9627476D01*
X10171562Y-9627466D01*
X10171822Y-9627279D01*
X10174338Y-9625138D01*
X10175138Y-9624338D01*
X10177279Y-9621822D01*
X10177466Y-9621562D01*
X10177476Y-9621545D01*
X10177489Y-9621527D01*
X10177579Y-9621422D01*
X10177766Y-9621162D01*
X10177856Y-9621014D01*
X10178096Y-9620678D01*
X10178521Y-9620344D01*
X10178866Y-9619656D01*
X10183558Y-9614580D01*
X10235323Y-9583396D01*
X10241545Y-9581619D01*
X10319423Y-9580510D01*
X10326155Y-9582382D01*
G37*
%TD.AperFunction*%
%TD*%
%TA.AperFunction,Conductor*%
%TO.N,Net-(U4-LX2)*%
G36*
X9363261Y-9641502D02*
G01*
X9364760Y-9641943D01*
X9366259Y-9642906D01*
X9367968Y-9643407D01*
X9370636Y-9645717D01*
X9370754Y-9645854D01*
X9373502Y-9651340D01*
X9373666Y-9652096D01*
X9373950Y-9654733D01*
X9373950Y-9696502D01*
X9374215Y-9699790D01*
X9374215Y-9699790D01*
X9374267Y-9700110D01*
X9374309Y-9700316D01*
X9374309Y-9700316D01*
X9374322Y-9700383D01*
X9374364Y-9700593D01*
X9374367Y-9700607D01*
X9374369Y-9700618D01*
X9374396Y-9700755D01*
X9374396Y-9700756D01*
X9374419Y-9700876D01*
X9374426Y-9700909D01*
X9374426Y-9700909D01*
X9374466Y-9701106D01*
X9375256Y-9704313D01*
X9375256Y-9704315D01*
X9375334Y-9704550D01*
X9375356Y-9704615D01*
X9375868Y-9705985D01*
X9375922Y-9706116D01*
X9376215Y-9706759D01*
X9376216Y-9706760D01*
X9376264Y-9706865D01*
X9376264Y-9706866D01*
X9376525Y-9707438D01*
X9377800Y-9709988D01*
X9377958Y-9710170D01*
X9378572Y-9710938D01*
X9378722Y-9711142D01*
X9378734Y-9711162D01*
X9378921Y-9711422D01*
X9378969Y-9711479D01*
X9379140Y-9711710D01*
X9379142Y-9711716D01*
X9379212Y-9711809D01*
X9379221Y-9711821D01*
X9379221Y-9711822D01*
X9379221Y-9711822D01*
X9381362Y-9714338D01*
X9382162Y-9715138D01*
X9384678Y-9717279D01*
X9384938Y-9717466D01*
X9384954Y-9717476D01*
X9384973Y-9717489D01*
X9385078Y-9717579D01*
X9385338Y-9717766D01*
X9385486Y-9717856D01*
X9385824Y-9718097D01*
X9386157Y-9718522D01*
X9388034Y-9719461D01*
X9388655Y-9719870D01*
X9388960Y-9720232D01*
X9390269Y-9721139D01*
X9391633Y-9722408D01*
X9392125Y-9722866D01*
X9395617Y-9728590D01*
X9413307Y-9791534D01*
X9413653Y-9793196D01*
X9413883Y-9794867D01*
X9413999Y-9796562D01*
X9413968Y-9961863D01*
X9413968Y-9961863D01*
X9413465Y-9965357D01*
X9413025Y-9966857D01*
X9409248Y-9972732D01*
X9409112Y-9972850D01*
X9403622Y-9975597D01*
X9402865Y-9975761D01*
X9400229Y-9976043D01*
X9308178Y-9976006D01*
X9304685Y-9975502D01*
X9303185Y-9975061D01*
X9297309Y-9971281D01*
X9297306Y-9971279D01*
X9297187Y-9971141D01*
X9294447Y-9965660D01*
X9294283Y-9964905D01*
X9294000Y-9962273D01*
X9294000Y-9798569D01*
X9294361Y-9795597D01*
X9295063Y-9792754D01*
X9296126Y-9789956D01*
X9333684Y-9718522D01*
X9345000Y-9697000D01*
X9345000Y-9655182D01*
X9345187Y-9653038D01*
X9345351Y-9652105D01*
X9345491Y-9651822D01*
X9345502Y-9651689D01*
X9345631Y-9651252D01*
X9345728Y-9651281D01*
X9346138Y-9649674D01*
X9346069Y-9649648D01*
X9346175Y-9649363D01*
X9346239Y-9649277D01*
X9346285Y-9649098D01*
X9346409Y-9648827D01*
X9346533Y-9648884D01*
X9347747Y-9647263D01*
X9348449Y-9645843D01*
X9349102Y-9645451D01*
X9350002Y-9644249D01*
X9349912Y-9644145D01*
X9350018Y-9644054D01*
X9350216Y-9643963D01*
X9350361Y-9643769D01*
X9350365Y-9643766D01*
X9350609Y-9643584D01*
X9350720Y-9643733D01*
X9356372Y-9641148D01*
X9356530Y-9641125D01*
X9358287Y-9641000D01*
X9359767Y-9641000D01*
X9363261Y-9641502D01*
G37*
%TD.AperFunction*%
%TD*%
%TA.AperFunction,Conductor*%
%TO.N,GND*%
G36*
X10339261Y-8055552D02*
G01*
X10340760Y-8055993D01*
X10342259Y-8056956D01*
X10343968Y-8057457D01*
X10346636Y-8059767D01*
X10346754Y-8059904D01*
X10349502Y-8065390D01*
X10349666Y-8066146D01*
X10349950Y-8068783D01*
X10349950Y-9534073D01*
X10349448Y-9537567D01*
X10349056Y-9538899D01*
X10348093Y-9540398D01*
X10347590Y-9542109D01*
X10346243Y-9543277D01*
X10345279Y-9544776D01*
X10343657Y-9545517D01*
X10342309Y-9546684D01*
X10338923Y-9547679D01*
X10338592Y-9547726D01*
X10333080Y-9547272D01*
X10332893Y-9547213D01*
X10331742Y-9546741D01*
X10331677Y-9546731D01*
X10331638Y-9546698D01*
X10331012Y-9546441D01*
X10324313Y-9543028D01*
X10324312Y-9543028D01*
X10314350Y-9541450D01*
X10314349Y-9541450D01*
X10314349Y-9541450D01*
X10257651Y-9541450D01*
X10257651Y-9541450D01*
X10257650Y-9541450D01*
X10247689Y-9543028D01*
X10247687Y-9543028D01*
X10246634Y-9543291D01*
X10245236Y-9544277D01*
X10240699Y-9546589D01*
X10240698Y-9546589D01*
X10235678Y-9549147D01*
X10235677Y-9549148D01*
X10235677Y-9549148D01*
X10226148Y-9558677D01*
X10225257Y-9560424D01*
X10224234Y-9561507D01*
X10223224Y-9563308D01*
X10222491Y-9564085D01*
X10220950Y-9564984D01*
X10220460Y-9565503D01*
X10219587Y-9565967D01*
X10218778Y-9566357D01*
X10218529Y-9566397D01*
X10216457Y-9567607D01*
X10212266Y-9567428D01*
X10211884Y-9567490D01*
X10211680Y-9567403D01*
X10209476Y-9567308D01*
X10206323Y-9565086D01*
X10205471Y-9564717D01*
X10205175Y-9564276D01*
X10203765Y-9563283D01*
X10202141Y-9559759D01*
X10201575Y-9558917D01*
X10201567Y-9558514D01*
X10201305Y-9557946D01*
X10201230Y-9557559D01*
X10201000Y-9555184D01*
X10201000Y-9543120D01*
X10200991Y-9543047D01*
X10200941Y-9542823D01*
X10200877Y-9542503D01*
X10197926Y-9527666D01*
X10197926Y-9527665D01*
X10192585Y-9514771D01*
X10192584Y-9514771D01*
X10155958Y-9551397D01*
X10149826Y-9554746D01*
X10142857Y-9554247D01*
X10137263Y-9550060D01*
X10135734Y-9547374D01*
X10135692Y-9547272D01*
X10133716Y-9542503D01*
X10129497Y-9538284D01*
X10129497Y-9538284D01*
X10126905Y-9537210D01*
X10126904Y-9537210D01*
X10123984Y-9536000D01*
X10118016Y-9536000D01*
X10112503Y-9538284D01*
X10112503Y-9538284D01*
X10108284Y-9542503D01*
X10108284Y-9542503D01*
X10108284Y-9542503D01*
X10106000Y-9548016D01*
X10106000Y-9553984D01*
X10107210Y-9556904D01*
X10107210Y-9556905D01*
X10108284Y-9559497D01*
X10108284Y-9559497D01*
X10112503Y-9563716D01*
X10117374Y-9565734D01*
X10122815Y-9570118D01*
X10125021Y-9576748D01*
X10123293Y-9583518D01*
X10121397Y-9585958D01*
X10087807Y-9619548D01*
X10087461Y-9619906D01*
X10085162Y-9621862D01*
X10084362Y-9622662D01*
X10082221Y-9625178D01*
X10082034Y-9625438D01*
X10082018Y-9625465D01*
X10081921Y-9625578D01*
X10081755Y-9625809D01*
X10081228Y-9626354D01*
X10081019Y-9626575D01*
X10079525Y-9629562D01*
X10079276Y-9630108D01*
X10079275Y-9630109D01*
X10079217Y-9630237D01*
X10079216Y-9630239D01*
X10078922Y-9630884D01*
X10078868Y-9631015D01*
X10078356Y-9632385D01*
X10078333Y-9632454D01*
X10078333Y-9632455D01*
X10078256Y-9632685D01*
X10078256Y-9632686D01*
X10078248Y-9632718D01*
X10078247Y-9632719D01*
X10077469Y-9635883D01*
X10077469Y-9635884D01*
X10077466Y-9635893D01*
X10077433Y-9636058D01*
X10077423Y-9636110D01*
X10077368Y-9636386D01*
X10077367Y-9636393D01*
X10077365Y-9636401D01*
X10077317Y-9636640D01*
X10077317Y-9636641D01*
X10077315Y-9636654D01*
X10077292Y-9636768D01*
X10077291Y-9636769D01*
X10077283Y-9636813D01*
X10077266Y-9636894D01*
X10077215Y-9637207D01*
X10077175Y-9637705D01*
X10077175Y-9637706D01*
X10076950Y-9640499D01*
X10076950Y-9691502D01*
X10076953Y-9691543D01*
X10076952Y-9691549D01*
X10076960Y-9691751D01*
X10076910Y-9691753D01*
X10076431Y-9694049D01*
X10076306Y-9696605D01*
X10075730Y-9697412D01*
X10075528Y-9698383D01*
X10073734Y-9700209D01*
X10072247Y-9702292D01*
X10071326Y-9702659D01*
X10070631Y-9703367D01*
X10068135Y-9703932D01*
X10065757Y-9704881D01*
X10064784Y-9704692D01*
X10063817Y-9704911D01*
X10061411Y-9704038D01*
X10058898Y-9703551D01*
X10057717Y-9702697D01*
X10057249Y-9702527D01*
X10056026Y-9701500D01*
X10055971Y-9701447D01*
X10055727Y-9701209D01*
X10055511Y-9701008D01*
X10055447Y-9700947D01*
X10055432Y-9700921D01*
X10054677Y-9700142D01*
X10054242Y-9699643D01*
X10054096Y-9699493D01*
X10053877Y-9699079D01*
X10051865Y-9697368D01*
X10048035Y-9691524D01*
X10047500Y-9687923D01*
X10047500Y-9654594D01*
X10047487Y-9654181D01*
X10047459Y-9653289D01*
X10047359Y-9651719D01*
X10047235Y-9650421D01*
X10047037Y-9648869D01*
X10046831Y-9647582D01*
X10046533Y-9646038D01*
X10046246Y-9644766D01*
X10045585Y-9642220D01*
X10045585Y-9642219D01*
X10045497Y-9641945D01*
X10044961Y-9639370D01*
X10044950Y-9639263D01*
X10044785Y-9637209D01*
X10044785Y-9637208D01*
X10044734Y-9636893D01*
X10044733Y-9636891D01*
X10044698Y-9636719D01*
X10044698Y-9636719D01*
X10044692Y-9636690D01*
X10044674Y-9636593D01*
X10044618Y-9636318D01*
X10044581Y-9636124D01*
X10044534Y-9635893D01*
X10044510Y-9635799D01*
X10044510Y-9635798D01*
X10043744Y-9632685D01*
X10043644Y-9632385D01*
X10043248Y-9631324D01*
X10043133Y-9631015D01*
X10043096Y-9630928D01*
X10043078Y-9630884D01*
X10042475Y-9629563D01*
X10042407Y-9629426D01*
X10041199Y-9627010D01*
X10041199Y-9627010D01*
X10041036Y-9626823D01*
X10040424Y-9626056D01*
X10040278Y-9625858D01*
X10040266Y-9625838D01*
X10040079Y-9625578D01*
X10040031Y-9625522D01*
X10039860Y-9625290D01*
X10039858Y-9625283D01*
X10039788Y-9625191D01*
X10039779Y-9625179D01*
X10039537Y-9624894D01*
X10037638Y-9622662D01*
X10037330Y-9622354D01*
X10036838Y-9621862D01*
X10035068Y-9620356D01*
X10034954Y-9620254D01*
X10034950Y-9620247D01*
X10034813Y-9620126D01*
X10034445Y-9619786D01*
X10034086Y-9619442D01*
X10000603Y-9585958D01*
X9997254Y-9579826D01*
X9997753Y-9572857D01*
X10001940Y-9567263D01*
X10004626Y-9565734D01*
X10009497Y-9563716D01*
X10013716Y-9559497D01*
X10016000Y-9553984D01*
X10016000Y-9551000D01*
X10036355Y-9551000D01*
X10039590Y-9554235D01*
X10061000Y-9575645D01*
X10061000Y-9575645D01*
X10085645Y-9551000D01*
X10085645Y-9551000D01*
X10061000Y-9526355D01*
X10039590Y-9547765D01*
X10039590Y-9547765D01*
X10036355Y-9551000D01*
X10016000Y-9551000D01*
X10016000Y-9548016D01*
X10013716Y-9542503D01*
X10009497Y-9538284D01*
X10009497Y-9538284D01*
X10009497Y-9538283D01*
X10004625Y-9536266D01*
X10001064Y-9533396D01*
X10000060Y-9534737D01*
X9997375Y-9536266D01*
X9992504Y-9538284D01*
X9992503Y-9538284D01*
X9988284Y-9542503D01*
X9988284Y-9542503D01*
X9988284Y-9542503D01*
X9987842Y-9543568D01*
X9986266Y-9547374D01*
X9981882Y-9552815D01*
X9975252Y-9555021D01*
X9968482Y-9553293D01*
X9966042Y-9551398D01*
X9929415Y-9514771D01*
X9929415Y-9514771D01*
X9924074Y-9527665D01*
X9924074Y-9527668D01*
X9921000Y-9543120D01*
X9921000Y-9553600D01*
X9921000Y-9553602D01*
X9921000Y-9553604D01*
X9920497Y-9557097D01*
X9920483Y-9557142D01*
X9916704Y-9563018D01*
X9910347Y-9565919D01*
X9903432Y-9564922D01*
X9902390Y-9564385D01*
X9901154Y-9563672D01*
X9896331Y-9558617D01*
X9896303Y-9558562D01*
X9896055Y-9558075D01*
X9895853Y-9557678D01*
X9895852Y-9557678D01*
X9895852Y-9557677D01*
X9886323Y-9548148D01*
X9886322Y-9548147D01*
X9886322Y-9548147D01*
X9874313Y-9542028D01*
X9874312Y-9542028D01*
X9874312Y-9542028D01*
X9874312Y-9542028D01*
X9874312Y-9542028D01*
X9864350Y-9540450D01*
X9864349Y-9540450D01*
X9864349Y-9540450D01*
X9807651Y-9540450D01*
X9807651Y-9540450D01*
X9807650Y-9540450D01*
X9797689Y-9542028D01*
X9797687Y-9542028D01*
X9796636Y-9542291D01*
X9795325Y-9543231D01*
X9795312Y-9543238D01*
X9795223Y-9543284D01*
X9785678Y-9548147D01*
X9785677Y-9548148D01*
X9776148Y-9557677D01*
X9776148Y-9557677D01*
X9776146Y-9557681D01*
X9776126Y-9557720D01*
X9770523Y-9568716D01*
X9770523Y-9568716D01*
X9770028Y-9569688D01*
X9770028Y-9569688D01*
X9768450Y-9579650D01*
X9768450Y-9630890D01*
X9768231Y-9633210D01*
X9767845Y-9635239D01*
X9764990Y-9650224D01*
X9764897Y-9650747D01*
X9764796Y-9651364D01*
X9764718Y-9651881D01*
X9764631Y-9652516D01*
X9764567Y-9653029D01*
X9764496Y-9653657D01*
X9764444Y-9654181D01*
X9764444Y-9654185D01*
X9761730Y-9685734D01*
X9756594Y-9745448D01*
X9756560Y-9745889D01*
X9756527Y-9746416D01*
X9756503Y-9746857D01*
X9756480Y-9747381D01*
X9756466Y-9747833D01*
X9756455Y-9748361D01*
X9756450Y-9748799D01*
X9756450Y-9802350D01*
X9758028Y-9812312D01*
X9758028Y-9812312D01*
X9758028Y-9812312D01*
X9758028Y-9812313D01*
X9764147Y-9824322D01*
X9764147Y-9824322D01*
X9764148Y-9824323D01*
X9773677Y-9833852D01*
X9773678Y-9833853D01*
X9773678Y-9833853D01*
X9785687Y-9839972D01*
X9785688Y-9839972D01*
X9785688Y-9839972D01*
X9785688Y-9839972D01*
X9786161Y-9840086D01*
X9786161Y-9840086D01*
X9786164Y-9840086D01*
X9786651Y-9840125D01*
X9795651Y-9841550D01*
X9795651Y-9841550D01*
X9795651Y-9841550D01*
X9852349Y-9841550D01*
X9852349Y-9841550D01*
X9855957Y-9840979D01*
X9861349Y-9840125D01*
X9861798Y-9840053D01*
X9862312Y-9839972D01*
X9862312Y-9839972D01*
X9862792Y-9839896D01*
X9862794Y-9839896D01*
X9863285Y-9839818D01*
X9864509Y-9838853D01*
X9874322Y-9833853D01*
X9883853Y-9824322D01*
X9883853Y-9824322D01*
X9884117Y-9823958D01*
X9885738Y-9821625D01*
X9901919Y-9804012D01*
X9907904Y-9800407D01*
X9914888Y-9800610D01*
X9920653Y-9804557D01*
X9923370Y-9810994D01*
X9923450Y-9812401D01*
X9923450Y-9962899D01*
X9923568Y-9965100D01*
X9923717Y-9966477D01*
X9923854Y-9967745D01*
X9923950Y-9968337D01*
X9923950Y-9978975D01*
X9925113Y-9984823D01*
X9925113Y-9984823D01*
X9927270Y-9988051D01*
X9927270Y-9988051D01*
X9928189Y-9989426D01*
X9929545Y-9991455D01*
X9936177Y-9995887D01*
X9936177Y-9995887D01*
X9942025Y-9997050D01*
X9942025Y-9997050D01*
X9942025Y-9997050D01*
X9952979Y-9997050D01*
X9953456Y-9997190D01*
X10039394Y-9997050D01*
X10066387Y-9997050D01*
X10067173Y-9996812D01*
X10067448Y-9996757D01*
X10067457Y-9996755D01*
X10070364Y-9996177D01*
X10070626Y-9996125D01*
X10071235Y-9996065D01*
X10071239Y-9996064D01*
X10072331Y-9995790D01*
X10073352Y-9994865D01*
X10078455Y-9991455D01*
X10078700Y-9991089D01*
X10081057Y-9988464D01*
X10082123Y-9987574D01*
X10088530Y-9984786D01*
X10095426Y-9985903D01*
X10095898Y-9986129D01*
X10100857Y-9990426D01*
X10100877Y-9990455D01*
X10101545Y-9991455D01*
X10108177Y-9995887D01*
X10108177Y-9995887D01*
X10114025Y-9997050D01*
X10114025Y-9997050D01*
X10114025Y-9997050D01*
X10124218Y-9997050D01*
X10125999Y-9997179D01*
X10127216Y-9997355D01*
X10130140Y-9997568D01*
X10222242Y-9997687D01*
X10224446Y-9997571D01*
X10227091Y-9997289D01*
X10227526Y-9997219D01*
X10227594Y-9997208D01*
X10229077Y-9997060D01*
X10229321Y-9997050D01*
X10237975Y-9997050D01*
X10237975Y-9997050D01*
X10239457Y-9996755D01*
X10242626Y-9996125D01*
X10243235Y-9996065D01*
X10243239Y-9996064D01*
X10244331Y-9995790D01*
X10245352Y-9994865D01*
X10250455Y-9991455D01*
X10254887Y-9984823D01*
X10254887Y-9984823D01*
X10254887Y-9984823D01*
X10255103Y-9983736D01*
X10255117Y-9983709D01*
X10255125Y-9983626D01*
X10255307Y-9982709D01*
X10256007Y-9979190D01*
X10256050Y-9978993D01*
X10256050Y-9968944D01*
X10256176Y-9967182D01*
X10256267Y-9966546D01*
X10256364Y-9965875D01*
X10256419Y-9965101D01*
X10256572Y-9962953D01*
X10256572Y-9962953D01*
X10256572Y-9962951D01*
X10256551Y-9802470D01*
X10256168Y-9799712D01*
X10256059Y-9798464D01*
X10256050Y-9798234D01*
X10256050Y-9793025D01*
X10256050Y-9793025D01*
X10254887Y-9787177D01*
X10254887Y-9787177D01*
X10254598Y-9786636D01*
X10254208Y-9786161D01*
X10254028Y-9785892D01*
X10250455Y-9780545D01*
X10248533Y-9779260D01*
X10244052Y-9773899D01*
X10243182Y-9766966D01*
X10246197Y-9760664D01*
X10252141Y-9756992D01*
X10255422Y-9756550D01*
X10290271Y-9756550D01*
X10294717Y-9756063D01*
X10294717Y-9756063D01*
X10294718Y-9756063D01*
X10299958Y-9754902D01*
X10299958Y-9754901D01*
X10299959Y-9754901D01*
X10300512Y-9754763D01*
X10301053Y-9754627D01*
X10309090Y-9750263D01*
X10314334Y-9745646D01*
X10318130Y-9741195D01*
X10327066Y-9727046D01*
X10332310Y-9722429D01*
X10339218Y-9721380D01*
X10345596Y-9724232D01*
X10349420Y-9730080D01*
X10349950Y-9733667D01*
X10349950Y-10040767D01*
X10349950Y-10040768D01*
X10349950Y-10040768D01*
X10349448Y-10044261D01*
X10349007Y-10045761D01*
X10345233Y-10051636D01*
X10345229Y-10051639D01*
X10345229Y-10051639D01*
X10345229Y-10051639D01*
X10345096Y-10051754D01*
X10339610Y-10054502D01*
X10338854Y-10054666D01*
X10336217Y-10054950D01*
X8984923Y-10054950D01*
X8981430Y-10054448D01*
X8980344Y-10054129D01*
X8974467Y-10050352D01*
X8971564Y-10043996D01*
X8971585Y-10043852D01*
X8972558Y-10037081D01*
X8972877Y-10036382D01*
X8975388Y-10032766D01*
X9033247Y-9974907D01*
X9037730Y-9967143D01*
X9040050Y-9958483D01*
X9040050Y-9949517D01*
X9040050Y-9680410D01*
X9064950Y-9680410D01*
X9064950Y-9680411D01*
X9064950Y-9693589D01*
X9066229Y-9698361D01*
X9068361Y-9706319D01*
X9070878Y-9710678D01*
X9071364Y-9711520D01*
X9071364Y-9711520D01*
X9073795Y-9715732D01*
X9074643Y-9717513D01*
X9107677Y-9804136D01*
X9108017Y-9804972D01*
X9108450Y-9805973D01*
X9108508Y-9806082D01*
X9108756Y-9806572D01*
X9109535Y-9808201D01*
X9110028Y-9811312D01*
X9110028Y-9811312D01*
X9110028Y-9811313D01*
X9116147Y-9823322D01*
X9116147Y-9823322D01*
X9116148Y-9823323D01*
X9117337Y-9824512D01*
X9117337Y-9824512D01*
X9125677Y-9832852D01*
X9125677Y-9832852D01*
X9125677Y-9832852D01*
X9125678Y-9832853D01*
X9125678Y-9832853D01*
X9137687Y-9838972D01*
X9137688Y-9838972D01*
X9137688Y-9838972D01*
X9137688Y-9838972D01*
X9138161Y-9839086D01*
X9138161Y-9839086D01*
X9138164Y-9839086D01*
X9138651Y-9839125D01*
X9147651Y-9840550D01*
X9147651Y-9840550D01*
X9147651Y-9840550D01*
X9204349Y-9840550D01*
X9204349Y-9840550D01*
X9208972Y-9839818D01*
X9213349Y-9839125D01*
X9213798Y-9839053D01*
X9214312Y-9838972D01*
X9214312Y-9838972D01*
X9214792Y-9838896D01*
X9214794Y-9838896D01*
X9215285Y-9838818D01*
X9216509Y-9837853D01*
X9226322Y-9832853D01*
X9235853Y-9823322D01*
X9241257Y-9812717D01*
X9241279Y-9812684D01*
X9241283Y-9812665D01*
X9243330Y-9809790D01*
X9252076Y-9800617D01*
X9258126Y-9797124D01*
X9265105Y-9797456D01*
X9270797Y-9801509D01*
X9273394Y-9807995D01*
X9273450Y-9809174D01*
X9273450Y-9962273D01*
X9273567Y-9964467D01*
X9273850Y-9967099D01*
X9273950Y-9967717D01*
X9273950Y-9977975D01*
X9275113Y-9983823D01*
X9275113Y-9983823D01*
X9277260Y-9987037D01*
X9277261Y-9987037D01*
X9277525Y-9987433D01*
X9279545Y-9990455D01*
X9286177Y-9994887D01*
X9286177Y-9994887D01*
X9292025Y-9996050D01*
X9292025Y-9996050D01*
X9292025Y-9996050D01*
X9302307Y-9996050D01*
X9304077Y-9996177D01*
X9305244Y-9996345D01*
X9305245Y-9996345D01*
X9305245Y-9996345D01*
X9308169Y-9996556D01*
X9399921Y-9996593D01*
X9400220Y-9996593D01*
X9400220Y-9996593D01*
X9400221Y-9996593D01*
X9401709Y-9996514D01*
X9402416Y-9996477D01*
X9402416Y-9996476D01*
X9402418Y-9996476D01*
X9405054Y-9996194D01*
X9405056Y-9996194D01*
X9405218Y-9996172D01*
X9405219Y-9996176D01*
X9405219Y-9996176D01*
X9405219Y-9996180D01*
X9405220Y-9996183D01*
X9406474Y-9996059D01*
X9406708Y-9996050D01*
X9415975Y-9996050D01*
X9415975Y-9996050D01*
X9417457Y-9995755D01*
X9420626Y-9995125D01*
X9421235Y-9995065D01*
X9421239Y-9995064D01*
X9422331Y-9994790D01*
X9423352Y-9993865D01*
X9428455Y-9990455D01*
X9428700Y-9990089D01*
X9431057Y-9987464D01*
X9432123Y-9986574D01*
X9438530Y-9983786D01*
X9445426Y-9984903D01*
X9445427Y-9984904D01*
X9445427Y-9984904D01*
X9445899Y-9985130D01*
X9450857Y-9989426D01*
X9450978Y-9989608D01*
X9451545Y-9990455D01*
X9458177Y-9994887D01*
X9458177Y-9994887D01*
X9464025Y-9996050D01*
X9464025Y-9996050D01*
X9464025Y-9996050D01*
X9474151Y-9996050D01*
X9475940Y-9996180D01*
X9477194Y-9996363D01*
X9480118Y-9996578D01*
X9572128Y-9996757D01*
X9574364Y-9996639D01*
X9576260Y-9996436D01*
X9577045Y-9996351D01*
X9577046Y-9996351D01*
X9577904Y-9996211D01*
X9579393Y-9996060D01*
X9579645Y-9996050D01*
X9587975Y-9996050D01*
X9587975Y-9996050D01*
X9589457Y-9995755D01*
X9592626Y-9995125D01*
X9593235Y-9995065D01*
X9593239Y-9995064D01*
X9594331Y-9994790D01*
X9595352Y-9993865D01*
X9600455Y-9990455D01*
X9604887Y-9983823D01*
X9604887Y-9983823D01*
X9604887Y-9983823D01*
X9605103Y-9982736D01*
X9605117Y-9982709D01*
X9605125Y-9982626D01*
X9606007Y-9978192D01*
X9606050Y-9977993D01*
X9606050Y-9967398D01*
X9606167Y-9965702D01*
X9606250Y-9965100D01*
X9606296Y-9964769D01*
X9606415Y-9962951D01*
X9606488Y-9961844D01*
X9606488Y-9961844D01*
X9606488Y-9961843D01*
X9606050Y-9883447D01*
X9606050Y-9883378D01*
X9606050Y-9792006D01*
X9606007Y-9791808D01*
X9605741Y-9790469D01*
X9605672Y-9790126D01*
X9606295Y-9783167D01*
X9610581Y-9777649D01*
X9617170Y-9775325D01*
X9618956Y-9775358D01*
X9630084Y-9776370D01*
X9631834Y-9776454D01*
X9633945Y-9776465D01*
X9635695Y-9776400D01*
X9664479Y-9774097D01*
X9666447Y-9773844D01*
X9668801Y-9773424D01*
X9676085Y-9770620D01*
X9682010Y-9766917D01*
X9686479Y-9763143D01*
X9696076Y-9752346D01*
X9697296Y-9750835D01*
X9698680Y-9748947D01*
X9698680Y-9748946D01*
X9698981Y-9748440D01*
X9698985Y-9748442D01*
X9699435Y-9747642D01*
X9699808Y-9747078D01*
X9700910Y-9744234D01*
X9702002Y-9741925D01*
X9702089Y-9741590D01*
X9701948Y-9741553D01*
X9702965Y-9738929D01*
X9703170Y-9737619D01*
X9703413Y-9736446D01*
X9703743Y-9735163D01*
X9703743Y-9735163D01*
X9703743Y-9735163D01*
X9704381Y-9729348D01*
X9704050Y-9719508D01*
X9704050Y-9714411D01*
X9703854Y-9713679D01*
X9699950Y-9597551D01*
X9699667Y-9595509D01*
X9699590Y-9594804D01*
X9699550Y-9594307D01*
X9699550Y-9585151D01*
X9698050Y-9575680D01*
X9698023Y-9575348D01*
X9698004Y-9575250D01*
X9695714Y-9570756D01*
X9691853Y-9563178D01*
X9691853Y-9563178D01*
X9691852Y-9563177D01*
X9682323Y-9553648D01*
X9682322Y-9553647D01*
X9682322Y-9553647D01*
X9670313Y-9547528D01*
X9670312Y-9547528D01*
X9670312Y-9547528D01*
X9670312Y-9547528D01*
X9670312Y-9547528D01*
X9660350Y-9545950D01*
X9660349Y-9545950D01*
X9660349Y-9545950D01*
X9603651Y-9545950D01*
X9603651Y-9545950D01*
X9603650Y-9545950D01*
X9593689Y-9547528D01*
X9593687Y-9547528D01*
X9592343Y-9547864D01*
X9591236Y-9548777D01*
X9581678Y-9553647D01*
X9581677Y-9553648D01*
X9572147Y-9563178D01*
X9571604Y-9563932D01*
X9571576Y-9563970D01*
X9571570Y-9563966D01*
X9571498Y-9564022D01*
X9570220Y-9565851D01*
X9569491Y-9566622D01*
X9568441Y-9567235D01*
X9567692Y-9568192D01*
X9565480Y-9568963D01*
X9563457Y-9570145D01*
X9562243Y-9570092D01*
X9561095Y-9570493D01*
X9558817Y-9569946D01*
X9556476Y-9569846D01*
X9555483Y-9569145D01*
X9554301Y-9568862D01*
X9552680Y-9567170D01*
X9550765Y-9565820D01*
X9550189Y-9564569D01*
X9549468Y-9563816D01*
X9548305Y-9560484D01*
X9548230Y-9560097D01*
X9548000Y-9557721D01*
X9548000Y-9548120D01*
X9547991Y-9548047D01*
X9547941Y-9547823D01*
X9547877Y-9547503D01*
X9545478Y-9535444D01*
X9544926Y-9532668D01*
X9544926Y-9532668D01*
X9544926Y-9532666D01*
X9544926Y-9532665D01*
X9539585Y-9519771D01*
X9539584Y-9519771D01*
X9502958Y-9556397D01*
X9496826Y-9559746D01*
X9489857Y-9559247D01*
X9484263Y-9555060D01*
X9482734Y-9552374D01*
X9482575Y-9551990D01*
X9480716Y-9547503D01*
X9476497Y-9543284D01*
X9476497Y-9543284D01*
X9473905Y-9542210D01*
X9473904Y-9542210D01*
X9470984Y-9541000D01*
X9465016Y-9541000D01*
X9459503Y-9543284D01*
X9459503Y-9543284D01*
X9455284Y-9547503D01*
X9455284Y-9547503D01*
X9455284Y-9547503D01*
X9453000Y-9553016D01*
X9453000Y-9558984D01*
X9454210Y-9561904D01*
X9454210Y-9561905D01*
X9455113Y-9564085D01*
X9455284Y-9564497D01*
X9459503Y-9568716D01*
X9464374Y-9570734D01*
X9469815Y-9575118D01*
X9472021Y-9581748D01*
X9470293Y-9588518D01*
X9468397Y-9590958D01*
X9434807Y-9624548D01*
X9434461Y-9624906D01*
X9432162Y-9626862D01*
X9431362Y-9627662D01*
X9429221Y-9630178D01*
X9429034Y-9630438D01*
X9429018Y-9630465D01*
X9428921Y-9630578D01*
X9428754Y-9630809D01*
X9428227Y-9631355D01*
X9428019Y-9631575D01*
X9426524Y-9634564D01*
X9426254Y-9635156D01*
X9426253Y-9635158D01*
X9426216Y-9635239D01*
X9426215Y-9635242D01*
X9425922Y-9635884D01*
X9425868Y-9636015D01*
X9425356Y-9637385D01*
X9425334Y-9637452D01*
X9425333Y-9637454D01*
X9425278Y-9637620D01*
X9425277Y-9637621D01*
X9425256Y-9637683D01*
X9425255Y-9637687D01*
X9425254Y-9637691D01*
X9424469Y-9640883D01*
X9424469Y-9640884D01*
X9424466Y-9640893D01*
X9424433Y-9641058D01*
X9424423Y-9641110D01*
X9424368Y-9641386D01*
X9424367Y-9641393D01*
X9424365Y-9641401D01*
X9424317Y-9641640D01*
X9424317Y-9641641D01*
X9424315Y-9641654D01*
X9424292Y-9641768D01*
X9424291Y-9641769D01*
X9424283Y-9641813D01*
X9424266Y-9641894D01*
X9424215Y-9642207D01*
X9424175Y-9642705D01*
X9424175Y-9642706D01*
X9423950Y-9645499D01*
X9423950Y-9696038D01*
X9423548Y-9697407D01*
X9423631Y-9698831D01*
X9422583Y-9700693D01*
X9421982Y-9702742D01*
X9420903Y-9703676D01*
X9420204Y-9704919D01*
X9418315Y-9705919D01*
X9416701Y-9707318D01*
X9415289Y-9707521D01*
X9414028Y-9708188D01*
X9411900Y-9708008D01*
X9409785Y-9708312D01*
X9408354Y-9707708D01*
X9407066Y-9707599D01*
X9404282Y-9705991D01*
X9403991Y-9705868D01*
X9403879Y-9705782D01*
X9401981Y-9704254D01*
X9401073Y-9703624D01*
X9400831Y-9703438D01*
X9400784Y-9703374D01*
X9400156Y-9702880D01*
X9399977Y-9702721D01*
X9399976Y-9702720D01*
X9399625Y-9702451D01*
X9399703Y-9702349D01*
X9395558Y-9697445D01*
X9394500Y-9692433D01*
X9394500Y-9654735D01*
X9394500Y-9654731D01*
X9394409Y-9653029D01*
X9394382Y-9652535D01*
X9394098Y-9649898D01*
X9393746Y-9647726D01*
X9393582Y-9646970D01*
X9391951Y-9642350D01*
X9391595Y-9641153D01*
X9391541Y-9640928D01*
X9391534Y-9640894D01*
X9391437Y-9640499D01*
X9390744Y-9637685D01*
X9390644Y-9637385D01*
X9390266Y-9636374D01*
X9390133Y-9636015D01*
X9390078Y-9635884D01*
X9389475Y-9634563D01*
X9389407Y-9634426D01*
X9388199Y-9632010D01*
X9388199Y-9632010D01*
X9388036Y-9631823D01*
X9387424Y-9631056D01*
X9387278Y-9630858D01*
X9387266Y-9630838D01*
X9387079Y-9630578D01*
X9387031Y-9630522D01*
X9386860Y-9630290D01*
X9386858Y-9630283D01*
X9386788Y-9630191D01*
X9386779Y-9630179D01*
X9386255Y-9629563D01*
X9384638Y-9627662D01*
X9384556Y-9627580D01*
X9383838Y-9626862D01*
X9382048Y-9625339D01*
X9381915Y-9625219D01*
X9381912Y-9625213D01*
X9381813Y-9625126D01*
X9381445Y-9624786D01*
X9381086Y-9624442D01*
X9347603Y-9590958D01*
X9344254Y-9584826D01*
X9344753Y-9577857D01*
X9348940Y-9572263D01*
X9351626Y-9570734D01*
X9356497Y-9568716D01*
X9360716Y-9564497D01*
X9363000Y-9558984D01*
X9363000Y-9556000D01*
X9383355Y-9556000D01*
X9386590Y-9559235D01*
X9408000Y-9580645D01*
X9408000Y-9580645D01*
X9432645Y-9556000D01*
X9432645Y-9556000D01*
X9408000Y-9531355D01*
X9386590Y-9552765D01*
X9386590Y-9552765D01*
X9383355Y-9556000D01*
X9363000Y-9556000D01*
X9363000Y-9553016D01*
X9360716Y-9547503D01*
X9356497Y-9543284D01*
X9356497Y-9543284D01*
X9356497Y-9543283D01*
X9351625Y-9541266D01*
X9348064Y-9538396D01*
X9347060Y-9539737D01*
X9344375Y-9541266D01*
X9339504Y-9543284D01*
X9339503Y-9543284D01*
X9335284Y-9547503D01*
X9335284Y-9547503D01*
X9335284Y-9547503D01*
X9333671Y-9551397D01*
X9333266Y-9552374D01*
X9328882Y-9557815D01*
X9322252Y-9560021D01*
X9315482Y-9558293D01*
X9313042Y-9556398D01*
X9276415Y-9519771D01*
X9276415Y-9519771D01*
X9271074Y-9532665D01*
X9271074Y-9532668D01*
X9268000Y-9548120D01*
X9268000Y-9557256D01*
X9267607Y-9558593D01*
X9267696Y-9559984D01*
X9266642Y-9561880D01*
X9266032Y-9563960D01*
X9264979Y-9564873D01*
X9264301Y-9566091D01*
X9262390Y-9567116D01*
X9260751Y-9568536D01*
X9259372Y-9568734D01*
X9258144Y-9569393D01*
X9255982Y-9569221D01*
X9253835Y-9569530D01*
X9252426Y-9568940D01*
X9251179Y-9568841D01*
X9249004Y-9567507D01*
X9248094Y-9567126D01*
X9247671Y-9566805D01*
X9242272Y-9561916D01*
X9241071Y-9560909D01*
X9239578Y-9559752D01*
X9235863Y-9557825D01*
X9235014Y-9557179D01*
X9234729Y-9556793D01*
X9233752Y-9556077D01*
X9233323Y-9555648D01*
X9233322Y-9555647D01*
X9233322Y-9555647D01*
X9221313Y-9549528D01*
X9221312Y-9549528D01*
X9221312Y-9549528D01*
X9221312Y-9549528D01*
X9221312Y-9549528D01*
X9211350Y-9547950D01*
X9211349Y-9547950D01*
X9211349Y-9547950D01*
X9154651Y-9547950D01*
X9154651Y-9547950D01*
X9154650Y-9547950D01*
X9144688Y-9549528D01*
X9144688Y-9549528D01*
X9132679Y-9555647D01*
X9132677Y-9555648D01*
X9123148Y-9565177D01*
X9123148Y-9565177D01*
X9123146Y-9565180D01*
X9123128Y-9565215D01*
X9121125Y-9569147D01*
X9120266Y-9570584D01*
X9120147Y-9570756D01*
X9120146Y-9570757D01*
X9080730Y-9649589D01*
X9078407Y-9652811D01*
X9074951Y-9656268D01*
X9074950Y-9656269D01*
X9074949Y-9656270D01*
X9068361Y-9667681D01*
X9068361Y-9667681D01*
X9068361Y-9667681D01*
X9068361Y-9667681D01*
X9065324Y-9679014D01*
X9065324Y-9679013D01*
X9064950Y-9680410D01*
X9040050Y-9680410D01*
X9040050Y-9017023D01*
X9040552Y-9013530D01*
X9040661Y-9013160D01*
X9041293Y-9011005D01*
X9044423Y-9005731D01*
X9534212Y-8515942D01*
X9537037Y-8513828D01*
X9539346Y-8512567D01*
X9545288Y-8511050D01*
X9572732Y-8511050D01*
X9579436Y-8513019D01*
X9584011Y-8518299D01*
X9585006Y-8525215D01*
X9582103Y-8531570D01*
X9580255Y-8533307D01*
X9580032Y-8533477D01*
X9579956Y-8533535D01*
X9579956Y-8533535D01*
X9575859Y-8537709D01*
X9523759Y-8608673D01*
X9523506Y-8609026D01*
X9523204Y-8609456D01*
X9523203Y-8609457D01*
X9520423Y-8615086D01*
X9520423Y-8615087D01*
X9518323Y-8621750D01*
X9518323Y-8621751D01*
X9517377Y-8627521D01*
X9517377Y-8627523D01*
X9513560Y-8821207D01*
X9513560Y-8821207D01*
X9513669Y-8823759D01*
X9513669Y-8823762D01*
X9513990Y-8826820D01*
X9513991Y-8826821D01*
X9516540Y-8834788D01*
X9516540Y-8834789D01*
X9516541Y-8834789D01*
X9519980Y-8840870D01*
X9523555Y-8845500D01*
X9553680Y-8874739D01*
X9553688Y-8874747D01*
X9553685Y-8874750D01*
X9553688Y-8874755D01*
X9553692Y-8874751D01*
X9670199Y-8987645D01*
X9673643Y-8993724D01*
X9673255Y-9000700D01*
X9669156Y-9006359D01*
X9662649Y-9008903D01*
X9661570Y-9008950D01*
X9657411Y-9008950D01*
X9644681Y-9012361D01*
X9644681Y-9012361D01*
X9633270Y-9018949D01*
X9633268Y-9018950D01*
X9633268Y-9018951D01*
X9623951Y-9028268D01*
X9623950Y-9028268D01*
X9623949Y-9028270D01*
X9617361Y-9039681D01*
X9617361Y-9039681D01*
X9616773Y-9041875D01*
X9616543Y-9042734D01*
X9616543Y-9042735D01*
X9613950Y-9052411D01*
X9613950Y-9065589D01*
X9614986Y-9069455D01*
X9617104Y-9077358D01*
X9617361Y-9078319D01*
X9617779Y-9079044D01*
X9623950Y-9089731D01*
X9623950Y-9089732D01*
X9633269Y-9099050D01*
X9633269Y-9099050D01*
X9633434Y-9099177D01*
X9635160Y-9100411D01*
X9636030Y-9101170D01*
X9636180Y-9101405D01*
X9636396Y-9101631D01*
X9636372Y-9101654D01*
X9637623Y-9102847D01*
X9638268Y-9103667D01*
X9639593Y-9106758D01*
X9639786Y-9107062D01*
X9639786Y-9107208D01*
X9640794Y-9109563D01*
X9640823Y-9109761D01*
X9640950Y-9111531D01*
X9640950Y-9132767D01*
X9640950Y-9132768D01*
X9640950Y-9132768D01*
X9640448Y-9136261D01*
X9640007Y-9137761D01*
X9636233Y-9143636D01*
X9636229Y-9143639D01*
X9636229Y-9143639D01*
X9636229Y-9143639D01*
X9636096Y-9143754D01*
X9630610Y-9146502D01*
X9629854Y-9146666D01*
X9627217Y-9146950D01*
X9594025Y-9146950D01*
X9588177Y-9148113D01*
X9588177Y-9148113D01*
X9588177Y-9148113D01*
X9588177Y-9148113D01*
X9588176Y-9148114D01*
X9581545Y-9152545D01*
X9577114Y-9159176D01*
X9577113Y-9159177D01*
X9577113Y-9159177D01*
X9577113Y-9159177D01*
X9577113Y-9159177D01*
X9575950Y-9165025D01*
X9575950Y-9268975D01*
X9577113Y-9274823D01*
X9577113Y-9274823D01*
X9577194Y-9274975D01*
X9577270Y-9275058D01*
X9581545Y-9281455D01*
X9585571Y-9284146D01*
X9586586Y-9285257D01*
X9586663Y-9285415D01*
X9586946Y-9285668D01*
X9587835Y-9286733D01*
X9590624Y-9293139D01*
X9589506Y-9300036D01*
X9589031Y-9301029D01*
X9586613Y-9304446D01*
X9506237Y-9384823D01*
X9504073Y-9386549D01*
X9503747Y-9386755D01*
X9503000Y-9387162D01*
X9502725Y-9387397D01*
X9501956Y-9387881D01*
X9501333Y-9388058D01*
X9499879Y-9388930D01*
X9499869Y-9388934D01*
X9496953Y-9389670D01*
X9496954Y-9389676D01*
X9496895Y-9389685D01*
X9496837Y-9389700D01*
X9496709Y-9389715D01*
X9496392Y-9389767D01*
X9496183Y-9389809D01*
X9496087Y-9389828D01*
X9495873Y-9389870D01*
X9495803Y-9389885D01*
X9495631Y-9389918D01*
X9495392Y-9389967D01*
X9492187Y-9390755D01*
X9492183Y-9390756D01*
X9492121Y-9390777D01*
X9492120Y-9390778D01*
X9491954Y-9390833D01*
X9491952Y-9390834D01*
X9491885Y-9390856D01*
X9490515Y-9391368D01*
X9490384Y-9391422D01*
X9489742Y-9391715D01*
X9489739Y-9391716D01*
X9489658Y-9391753D01*
X9489657Y-9391753D01*
X9489062Y-9392025D01*
X9486509Y-9393302D01*
X9486321Y-9393465D01*
X9485553Y-9394078D01*
X9485357Y-9394223D01*
X9485338Y-9394234D01*
X9485078Y-9394421D01*
X9485022Y-9394469D01*
X9484791Y-9394639D01*
X9484787Y-9394641D01*
X9484725Y-9394687D01*
X9484710Y-9394698D01*
X9484710Y-9394698D01*
X9484678Y-9394721D01*
X9484678Y-9394721D01*
X9482162Y-9396862D01*
X9481362Y-9397662D01*
X9479543Y-9399800D01*
X9479543Y-9399800D01*
X9479220Y-9400179D01*
X9479219Y-9400181D01*
X9479201Y-9400207D01*
X9479034Y-9400438D01*
X9479025Y-9400452D01*
X9479010Y-9400474D01*
X9478921Y-9400578D01*
X9478734Y-9400838D01*
X9478646Y-9400984D01*
X9478404Y-9401322D01*
X9477978Y-9401656D01*
X9476525Y-9404564D01*
X9476216Y-9405239D01*
X9476215Y-9405242D01*
X9475922Y-9405884D01*
X9475872Y-9406005D01*
X9475872Y-9406005D01*
X9475868Y-9406015D01*
X9475356Y-9407386D01*
X9475256Y-9407683D01*
X9475255Y-9407687D01*
X9475254Y-9407691D01*
X9474469Y-9410883D01*
X9474469Y-9410884D01*
X9474466Y-9410893D01*
X9474433Y-9411058D01*
X9474423Y-9411110D01*
X9474368Y-9411386D01*
X9474367Y-9411393D01*
X9474365Y-9411401D01*
X9474317Y-9411640D01*
X9474317Y-9411641D01*
X9474315Y-9411654D01*
X9474292Y-9411768D01*
X9474291Y-9411769D01*
X9474283Y-9411813D01*
X9474266Y-9411894D01*
X9474215Y-9412207D01*
X9474175Y-9412705D01*
X9474175Y-9412706D01*
X9473950Y-9415499D01*
X9473950Y-9461813D01*
X9473877Y-9463158D01*
X9473858Y-9463328D01*
X9473663Y-9463798D01*
X9473424Y-9465303D01*
X9473447Y-9465310D01*
X9473429Y-9465369D01*
X9473414Y-9465364D01*
X9473361Y-9465699D01*
X9472943Y-9467030D01*
X9471233Y-9469638D01*
X9471174Y-9469779D01*
X9471112Y-9469821D01*
X9469235Y-9472684D01*
X9468787Y-9473072D01*
X9464037Y-9475635D01*
X9463983Y-9475650D01*
X9462145Y-9476022D01*
X9457754Y-9476569D01*
X9457754Y-9476569D01*
X9457754Y-9476569D01*
X9457753Y-9476569D01*
X9454225Y-9476503D01*
X9453183Y-9476333D01*
X9452960Y-9476297D01*
X9452960Y-9476297D01*
X9452831Y-9476276D01*
X9446530Y-9473255D01*
X9443131Y-9468161D01*
X9442756Y-9467099D01*
X9442050Y-9462975D01*
X9442050Y-9415499D01*
X9442050Y-9415499D01*
X9441883Y-9413423D01*
X9441785Y-9412210D01*
X9441778Y-9412160D01*
X9441768Y-9412104D01*
X9441734Y-9411893D01*
X9441733Y-9411891D01*
X9441695Y-9411705D01*
X9441695Y-9411703D01*
X9441692Y-9411690D01*
X9441674Y-9411593D01*
X9441618Y-9411318D01*
X9441580Y-9411120D01*
X9441534Y-9410895D01*
X9441534Y-9410893D01*
X9441309Y-9409982D01*
X9440744Y-9407685D01*
X9440644Y-9407385D01*
X9440266Y-9406374D01*
X9440133Y-9406015D01*
X9440078Y-9405884D01*
X9439475Y-9404563D01*
X9439407Y-9404426D01*
X9438199Y-9402010D01*
X9438199Y-9402010D01*
X9438036Y-9401823D01*
X9437424Y-9401056D01*
X9437278Y-9400858D01*
X9437266Y-9400838D01*
X9437079Y-9400578D01*
X9437031Y-9400522D01*
X9436860Y-9400290D01*
X9436858Y-9400283D01*
X9436788Y-9400191D01*
X9436779Y-9400179D01*
X9436457Y-9399800D01*
X9434638Y-9397662D01*
X9433838Y-9396862D01*
X9433838Y-9396862D01*
X9433838Y-9396862D01*
X9433837Y-9396861D01*
X9432881Y-9396048D01*
X9432881Y-9396048D01*
X9432781Y-9395934D01*
X9430546Y-9393402D01*
X9430480Y-9393302D01*
X9429785Y-9392241D01*
X9427756Y-9385555D01*
X9429663Y-9378834D01*
X9429907Y-9378447D01*
X9435145Y-9373824D01*
X9435150Y-9373822D01*
X9436040Y-9373407D01*
X9444407Y-9365040D01*
X9449407Y-9354317D01*
X9450050Y-9349432D01*
X9450050Y-9314568D01*
X9449407Y-9309683D01*
X9444407Y-9298960D01*
X9436040Y-9290594D01*
X9436040Y-9290593D01*
X9433005Y-9289178D01*
X9429569Y-9286153D01*
X9420432Y-9284950D01*
X9420432Y-9284950D01*
X9420432Y-9284950D01*
X9375568Y-9284950D01*
X9375568Y-9284950D01*
X9375568Y-9284950D01*
X9370683Y-9285593D01*
X9370682Y-9285593D01*
X9359960Y-9290593D01*
X9359071Y-9291216D01*
X9359025Y-9291150D01*
X9357702Y-9292140D01*
X9356331Y-9292889D01*
X9349505Y-9294374D01*
X9349503Y-9294374D01*
X9349503Y-9294374D01*
X9349503Y-9294374D01*
X9349325Y-9294361D01*
X9343504Y-9292424D01*
X9342853Y-9292005D01*
X9341502Y-9290916D01*
X9341041Y-9290594D01*
X9341041Y-9290594D01*
X9341040Y-9290594D01*
X9338075Y-9289211D01*
X9338070Y-9289208D01*
X9338067Y-9289207D01*
X9337996Y-9289174D01*
X9334571Y-9286153D01*
X9325432Y-9284950D01*
X9325432Y-9284950D01*
X9325432Y-9284950D01*
X9280568Y-9284950D01*
X9280568Y-9284950D01*
X9280568Y-9284950D01*
X9275683Y-9285593D01*
X9275682Y-9285593D01*
X9264959Y-9290594D01*
X9264604Y-9290842D01*
X9262202Y-9292640D01*
X9260831Y-9293389D01*
X9254007Y-9294874D01*
X9253826Y-9294861D01*
X9248003Y-9292924D01*
X9247353Y-9292505D01*
X9245289Y-9290842D01*
X9244040Y-9289593D01*
X9241005Y-9288178D01*
X9237569Y-9285153D01*
X9228432Y-9283950D01*
X9228432Y-9283950D01*
X9228432Y-9283950D01*
X9183568Y-9283950D01*
X9183568Y-9283950D01*
X9183568Y-9283950D01*
X9178683Y-9284593D01*
X9178682Y-9284593D01*
X9167959Y-9289594D01*
X9159594Y-9297959D01*
X9154593Y-9308682D01*
X9154593Y-9308683D01*
X9153950Y-9313568D01*
X9153950Y-9348432D01*
X9154593Y-9353317D01*
X9154593Y-9353317D01*
X9157821Y-9360239D01*
X9159594Y-9364040D01*
X9167960Y-9372407D01*
X9178683Y-9377407D01*
X9183568Y-9378050D01*
X9183568Y-9378050D01*
X9211190Y-9378050D01*
X9213952Y-9378447D01*
X9214683Y-9378552D01*
X9217208Y-9379293D01*
X9222482Y-9382423D01*
X9269057Y-9428998D01*
X9271172Y-9431823D01*
X9272433Y-9434132D01*
X9273950Y-9440075D01*
X9273950Y-9466502D01*
X9274215Y-9469790D01*
X9274215Y-9469790D01*
X9274215Y-9469791D01*
X9274260Y-9470068D01*
X9274267Y-9470110D01*
X9274309Y-9470316D01*
X9274309Y-9470316D01*
X9274322Y-9470381D01*
X9274364Y-9470590D01*
X9274367Y-9470607D01*
X9274370Y-9470620D01*
X9274396Y-9470751D01*
X9274396Y-9470753D01*
X9274421Y-9470883D01*
X9274423Y-9470893D01*
X9274425Y-9470905D01*
X9274431Y-9470938D01*
X9274449Y-9471033D01*
X9274449Y-9471033D01*
X9274451Y-9471043D01*
X9274468Y-9471114D01*
X9274473Y-9471136D01*
X9274571Y-9471532D01*
X9274622Y-9471738D01*
X9275256Y-9474313D01*
X9275256Y-9474315D01*
X9275291Y-9474420D01*
X9275356Y-9474615D01*
X9275868Y-9475985D01*
X9275922Y-9476116D01*
X9276215Y-9476759D01*
X9276216Y-9476760D01*
X9276269Y-9476876D01*
X9276269Y-9476877D01*
X9276525Y-9477438D01*
X9277670Y-9479726D01*
X9277800Y-9479988D01*
X9277800Y-9479988D01*
X9277958Y-9480170D01*
X9278572Y-9480939D01*
X9278722Y-9481142D01*
X9278734Y-9481162D01*
X9278921Y-9481422D01*
X9278969Y-9481478D01*
X9279140Y-9481711D01*
X9279142Y-9481717D01*
X9279213Y-9481810D01*
X9279221Y-9481822D01*
X9281362Y-9484338D01*
X9282162Y-9485138D01*
X9284678Y-9487279D01*
X9284682Y-9487281D01*
X9285052Y-9487557D01*
X9285078Y-9487579D01*
X9285206Y-9487671D01*
X9285886Y-9488176D01*
X9286157Y-9488522D01*
X9286751Y-9488819D01*
X9286751Y-9488819D01*
X9288926Y-9489907D01*
X9288926Y-9489907D01*
X9289063Y-9489975D01*
X9290384Y-9490578D01*
X9290432Y-9490598D01*
X9290515Y-9490633D01*
X9291050Y-9490832D01*
X9291885Y-9491144D01*
X9292185Y-9491244D01*
X9295244Y-9491997D01*
X9295244Y-9491997D01*
X9295440Y-9492045D01*
X9295442Y-9492046D01*
X9295584Y-9492081D01*
X9296071Y-9492170D01*
X9296304Y-9492215D01*
X9296335Y-9492222D01*
X9296386Y-9492232D01*
X9296392Y-9492233D01*
X9296393Y-9492234D01*
X9296709Y-9492285D01*
X9296709Y-9492285D01*
X9296710Y-9492285D01*
X9298972Y-9492467D01*
X9299999Y-9492550D01*
X9312986Y-9492550D01*
X9316479Y-9493052D01*
X9319004Y-9493793D01*
X9324278Y-9496923D01*
X9348000Y-9520644D01*
X9348000Y-9520645D01*
X9374580Y-9494065D01*
X9377025Y-9492166D01*
X9377211Y-9492056D01*
X9377784Y-9491743D01*
X9377881Y-9491659D01*
X9378429Y-9491334D01*
X9381400Y-9490577D01*
X9383541Y-9489864D01*
X9383519Y-9489709D01*
X9383645Y-9489691D01*
X9383936Y-9489733D01*
X9384307Y-9489609D01*
X9384310Y-9489609D01*
X9384847Y-9489590D01*
X9384851Y-9489698D01*
X9385200Y-9489609D01*
X9386803Y-9490144D01*
X9390408Y-9490661D01*
X9390415Y-9490646D01*
X9390477Y-9490671D01*
X9390561Y-9490683D01*
X9390854Y-9490823D01*
X9390877Y-9490832D01*
X9390877Y-9490832D01*
X9390877Y-9490832D01*
X9391459Y-9491014D01*
X9391936Y-9491163D01*
X9391936Y-9491163D01*
X9392049Y-9491199D01*
X9392185Y-9491244D01*
X9392228Y-9491255D01*
X9392431Y-9491318D01*
X9392434Y-9491319D01*
X9394352Y-9491919D01*
X9394403Y-9491909D01*
X9394646Y-9491952D01*
X9394647Y-9491943D01*
X9394824Y-9491964D01*
X9395578Y-9492079D01*
X9396071Y-9492170D01*
X9396304Y-9492215D01*
X9396335Y-9492222D01*
X9396386Y-9492232D01*
X9396392Y-9492233D01*
X9396393Y-9492234D01*
X9396709Y-9492285D01*
X9396709Y-9492285D01*
X9396710Y-9492285D01*
X9398972Y-9492467D01*
X9399999Y-9492550D01*
X9400000Y-9492550D01*
X9416001Y-9492550D01*
X9416001Y-9492550D01*
X9417755Y-9492409D01*
X9419291Y-9492285D01*
X9419607Y-9492234D01*
X9419608Y-9492233D01*
X9419609Y-9492233D01*
X9419759Y-9492203D01*
X9419859Y-9492192D01*
X9420029Y-9492165D01*
X9420275Y-9492101D01*
X9420392Y-9492077D01*
X9420401Y-9492075D01*
X9420502Y-9492055D01*
X9420503Y-9492055D01*
X9420588Y-9492038D01*
X9420607Y-9492034D01*
X9420607Y-9492034D01*
X9423815Y-9491244D01*
X9424115Y-9491144D01*
X9425256Y-9490718D01*
X9427965Y-9490063D01*
X9427963Y-9490045D01*
X9428595Y-9489954D01*
X9429555Y-9489816D01*
X9436470Y-9490812D01*
X9437563Y-9491312D01*
X9441177Y-9493821D01*
X9468000Y-9520645D01*
X9468000Y-9520645D01*
X9480795Y-9507850D01*
X9491202Y-9497443D01*
X9494027Y-9495328D01*
X9495005Y-9494794D01*
X9495119Y-9494716D01*
X9495147Y-9494707D01*
X9495270Y-9494631D01*
X9495288Y-9494661D01*
X9501763Y-9492555D01*
X9502120Y-9492550D01*
X9516001Y-9492550D01*
X9517755Y-9492409D01*
X9519291Y-9492285D01*
X9519607Y-9492234D01*
X9519608Y-9492233D01*
X9519609Y-9492233D01*
X9519810Y-9492192D01*
X9519860Y-9492182D01*
X9520083Y-9492137D01*
X9520107Y-9492134D01*
X9520127Y-9492129D01*
X9520362Y-9492082D01*
X9520365Y-9492082D01*
X9520401Y-9492075D01*
X9520605Y-9492034D01*
X9520607Y-9492034D01*
X9523815Y-9491244D01*
X9524115Y-9491144D01*
X9525379Y-9490672D01*
X9525485Y-9490633D01*
X9525485Y-9490633D01*
X9525616Y-9490578D01*
X9526937Y-9489975D01*
X9527074Y-9489907D01*
X9527074Y-9489907D01*
X9529398Y-9488745D01*
X9529398Y-9488745D01*
X9529936Y-9488476D01*
X9530751Y-9487713D01*
X9530902Y-9487595D01*
X9531312Y-9487286D01*
X9531322Y-9487279D01*
X9533838Y-9485138D01*
X9534638Y-9484338D01*
X9536779Y-9481822D01*
X9536781Y-9481819D01*
X9536875Y-9481700D01*
X9537478Y-9480987D01*
X9537890Y-9480536D01*
X9537942Y-9480504D01*
X9539407Y-9477574D01*
X9539407Y-9477574D01*
X9539475Y-9477437D01*
X9540078Y-9476116D01*
X9540133Y-9475985D01*
X9540150Y-9475939D01*
X9540312Y-9475504D01*
X9540644Y-9474615D01*
X9540744Y-9474315D01*
X9541534Y-9471107D01*
X9541534Y-9471107D01*
X9541537Y-9471093D01*
X9541563Y-9470963D01*
X9541568Y-9470937D01*
X9541569Y-9470929D01*
X9541633Y-9470608D01*
X9541634Y-9470607D01*
X9541634Y-9470606D01*
X9541683Y-9470358D01*
X9541684Y-9470357D01*
X9541688Y-9470334D01*
X9541703Y-9470260D01*
X9541703Y-9470258D01*
X9541716Y-9470195D01*
X9541733Y-9470109D01*
X9541740Y-9470069D01*
X9541755Y-9469974D01*
X9541785Y-9469792D01*
X9541785Y-9469792D01*
X9541785Y-9469791D01*
X9542005Y-9467061D01*
X9542005Y-9467061D01*
X9542050Y-9466501D01*
X9542050Y-9415499D01*
X9542050Y-9415499D01*
X9541883Y-9413423D01*
X9541756Y-9411847D01*
X9541790Y-9411844D01*
X9541731Y-9409531D01*
X9541893Y-9407695D01*
X9541923Y-9407339D01*
X9541925Y-9407317D01*
X9542018Y-9407079D01*
X9543889Y-9401633D01*
X9544272Y-9401046D01*
X9545891Y-9399049D01*
X9625373Y-9319568D01*
X9805950Y-9319568D01*
X9805950Y-9354432D01*
X9806593Y-9359317D01*
X9806597Y-9359331D01*
X9806664Y-9359470D01*
X9811594Y-9370040D01*
X9819960Y-9378407D01*
X9830683Y-9383407D01*
X9835568Y-9384050D01*
X9835568Y-9384050D01*
X9871190Y-9384050D01*
X9874364Y-9384506D01*
X9874683Y-9384552D01*
X9877208Y-9385293D01*
X9882482Y-9388423D01*
X9922057Y-9427998D01*
X9924172Y-9430823D01*
X9925433Y-9433132D01*
X9926950Y-9439075D01*
X9926950Y-9461502D01*
X9927215Y-9464790D01*
X9927215Y-9464790D01*
X9927215Y-9464791D01*
X9927266Y-9465106D01*
X9927267Y-9465110D01*
X9927309Y-9465316D01*
X9927309Y-9465316D01*
X9927322Y-9465381D01*
X9927364Y-9465590D01*
X9927367Y-9465607D01*
X9927370Y-9465620D01*
X9927396Y-9465751D01*
X9927396Y-9465753D01*
X9927421Y-9465883D01*
X9927423Y-9465893D01*
X9927425Y-9465905D01*
X9927431Y-9465938D01*
X9927449Y-9466033D01*
X9927449Y-9466033D01*
X9927451Y-9466043D01*
X9927468Y-9466114D01*
X9927473Y-9466136D01*
X9927596Y-9466632D01*
X9927622Y-9466738D01*
X9928256Y-9469313D01*
X9928256Y-9469315D01*
X9928256Y-9469315D01*
X9928332Y-9469543D01*
X9928356Y-9469616D01*
X9928867Y-9470983D01*
X9928867Y-9470984D01*
X9928868Y-9470985D01*
X9928918Y-9471106D01*
X9928922Y-9471117D01*
X9929125Y-9471561D01*
X9929126Y-9471564D01*
X9929525Y-9472438D01*
X9930800Y-9474988D01*
X9930800Y-9474988D01*
X9930800Y-9474988D01*
X9930958Y-9475170D01*
X9931572Y-9475939D01*
X9931722Y-9476142D01*
X9931734Y-9476162D01*
X9931921Y-9476422D01*
X9931969Y-9476478D01*
X9932140Y-9476711D01*
X9932142Y-9476717D01*
X9932213Y-9476810D01*
X9932221Y-9476822D01*
X9934362Y-9479338D01*
X9935162Y-9480138D01*
X9937678Y-9482279D01*
X9937682Y-9482281D01*
X9938052Y-9482557D01*
X9938078Y-9482579D01*
X9938206Y-9482671D01*
X9938886Y-9483176D01*
X9939157Y-9483522D01*
X9939751Y-9483819D01*
X9939751Y-9483819D01*
X9941926Y-9484907D01*
X9941926Y-9484907D01*
X9942063Y-9484975D01*
X9943384Y-9485578D01*
X9943432Y-9485598D01*
X9943515Y-9485633D01*
X9944050Y-9485832D01*
X9944885Y-9486144D01*
X9945185Y-9486244D01*
X9948244Y-9486997D01*
X9948244Y-9486997D01*
X9948440Y-9487045D01*
X9948442Y-9487046D01*
X9948584Y-9487081D01*
X9949071Y-9487170D01*
X9949304Y-9487215D01*
X9949335Y-9487222D01*
X9949386Y-9487232D01*
X9949392Y-9487233D01*
X9949393Y-9487234D01*
X9949709Y-9487285D01*
X9949709Y-9487285D01*
X9949710Y-9487285D01*
X9951960Y-9487466D01*
X9952999Y-9487550D01*
X9965986Y-9487550D01*
X9969406Y-9488042D01*
X9969479Y-9488052D01*
X9972004Y-9488793D01*
X9977278Y-9491923D01*
X10001000Y-9515644D01*
X10001000Y-9515645D01*
X10027580Y-9489065D01*
X10030025Y-9487166D01*
X10030211Y-9487056D01*
X10030784Y-9486743D01*
X10030881Y-9486659D01*
X10031429Y-9486334D01*
X10034400Y-9485577D01*
X10036541Y-9484864D01*
X10036519Y-9484709D01*
X10036645Y-9484691D01*
X10036936Y-9484733D01*
X10037307Y-9484609D01*
X10037310Y-9484609D01*
X10037847Y-9484590D01*
X10037851Y-9484698D01*
X10038200Y-9484609D01*
X10039803Y-9485144D01*
X10043408Y-9485661D01*
X10043415Y-9485646D01*
X10043477Y-9485671D01*
X10043561Y-9485683D01*
X10043854Y-9485823D01*
X10043877Y-9485832D01*
X10043877Y-9485832D01*
X10043877Y-9485832D01*
X10044459Y-9486014D01*
X10044936Y-9486163D01*
X10044936Y-9486163D01*
X10045049Y-9486199D01*
X10045185Y-9486244D01*
X10045228Y-9486255D01*
X10045431Y-9486318D01*
X10045434Y-9486319D01*
X10047352Y-9486919D01*
X10047403Y-9486909D01*
X10047646Y-9486952D01*
X10047647Y-9486943D01*
X10047824Y-9486964D01*
X10048578Y-9487079D01*
X10049071Y-9487170D01*
X10049304Y-9487215D01*
X10049335Y-9487222D01*
X10049386Y-9487232D01*
X10049392Y-9487233D01*
X10049393Y-9487234D01*
X10049709Y-9487285D01*
X10049709Y-9487285D01*
X10049710Y-9487285D01*
X10051960Y-9487466D01*
X10052999Y-9487550D01*
X10053000Y-9487550D01*
X10069001Y-9487550D01*
X10069001Y-9487550D01*
X10070755Y-9487409D01*
X10072291Y-9487285D01*
X10072607Y-9487234D01*
X10072608Y-9487233D01*
X10072609Y-9487233D01*
X10072759Y-9487203D01*
X10072859Y-9487192D01*
X10073029Y-9487165D01*
X10073275Y-9487101D01*
X10073392Y-9487077D01*
X10073401Y-9487075D01*
X10073502Y-9487055D01*
X10073503Y-9487055D01*
X10073588Y-9487038D01*
X10073607Y-9487034D01*
X10073607Y-9487034D01*
X10076815Y-9486244D01*
X10077115Y-9486144D01*
X10078256Y-9485718D01*
X10080965Y-9485063D01*
X10080963Y-9485045D01*
X10081595Y-9484954D01*
X10082555Y-9484816D01*
X10089470Y-9485812D01*
X10090563Y-9486312D01*
X10094177Y-9488821D01*
X10121000Y-9515645D01*
X10121000Y-9515645D01*
X10133339Y-9503306D01*
X10144202Y-9492443D01*
X10147027Y-9490328D01*
X10147091Y-9490293D01*
X10148005Y-9489794D01*
X10148119Y-9489716D01*
X10148147Y-9489707D01*
X10148270Y-9489631D01*
X10148288Y-9489661D01*
X10154763Y-9487555D01*
X10155120Y-9487550D01*
X10169001Y-9487550D01*
X10170755Y-9487409D01*
X10172291Y-9487285D01*
X10172607Y-9487234D01*
X10172608Y-9487233D01*
X10172609Y-9487233D01*
X10172810Y-9487192D01*
X10172860Y-9487182D01*
X10173083Y-9487137D01*
X10173107Y-9487134D01*
X10173127Y-9487129D01*
X10173362Y-9487082D01*
X10173365Y-9487082D01*
X10173401Y-9487075D01*
X10173605Y-9487034D01*
X10173607Y-9487034D01*
X10176815Y-9486244D01*
X10177115Y-9486144D01*
X10178409Y-9485661D01*
X10178485Y-9485633D01*
X10178485Y-9485633D01*
X10178616Y-9485578D01*
X10179937Y-9484975D01*
X10180074Y-9484907D01*
X10180074Y-9484907D01*
X10182398Y-9483745D01*
X10182398Y-9483745D01*
X10182936Y-9483476D01*
X10183751Y-9482713D01*
X10183902Y-9482595D01*
X10184312Y-9482286D01*
X10184322Y-9482279D01*
X10186838Y-9480138D01*
X10187638Y-9479338D01*
X10189779Y-9476822D01*
X10189781Y-9476819D01*
X10189875Y-9476700D01*
X10190478Y-9475987D01*
X10190890Y-9475536D01*
X10190942Y-9475504D01*
X10192407Y-9472574D01*
X10192407Y-9472574D01*
X10192475Y-9472437D01*
X10193078Y-9471116D01*
X10193133Y-9470985D01*
X10193133Y-9470983D01*
X10193266Y-9470627D01*
X10193644Y-9469615D01*
X10193744Y-9469315D01*
X10194534Y-9466107D01*
X10194534Y-9466106D01*
X10194540Y-9466080D01*
X10194683Y-9465358D01*
X10194684Y-9465357D01*
X10194686Y-9465341D01*
X10194701Y-9465268D01*
X10194702Y-9465267D01*
X10194714Y-9465205D01*
X10194733Y-9465109D01*
X10194734Y-9465107D01*
X10194785Y-9464791D01*
X10195005Y-9462060D01*
X10195050Y-9461501D01*
X10195050Y-9410499D01*
X10194785Y-9407209D01*
X10194734Y-9406893D01*
X10194734Y-9406893D01*
X10194733Y-9406891D01*
X10194692Y-9406690D01*
X10194682Y-9406640D01*
X10194658Y-9406518D01*
X10194644Y-9406446D01*
X10194634Y-9406394D01*
X10194634Y-9406393D01*
X10194633Y-9406392D01*
X10194618Y-9406315D01*
X10194579Y-9406117D01*
X10194534Y-9405897D01*
X10194534Y-9405896D01*
X10194534Y-9405894D01*
X10194359Y-9405183D01*
X10193744Y-9402685D01*
X10193644Y-9402385D01*
X10193247Y-9401322D01*
X10193133Y-9401015D01*
X10193078Y-9400884D01*
X10192890Y-9400473D01*
X10192475Y-9399563D01*
X10192407Y-9399426D01*
X10191199Y-9397010D01*
X10191199Y-9397010D01*
X10191036Y-9396823D01*
X10190424Y-9396056D01*
X10190278Y-9395858D01*
X10190266Y-9395838D01*
X10190079Y-9395578D01*
X10190031Y-9395522D01*
X10189860Y-9395290D01*
X10189858Y-9395283D01*
X10189788Y-9395191D01*
X10189779Y-9395179D01*
X10189585Y-9394951D01*
X10187638Y-9392662D01*
X10186839Y-9391863D01*
X10186839Y-9391862D01*
X10186666Y-9391716D01*
X10186666Y-9391716D01*
X10186666Y-9391715D01*
X10185772Y-9390955D01*
X10183437Y-9388309D01*
X10183037Y-9387699D01*
X10182431Y-9386774D01*
X10182080Y-9386238D01*
X10180051Y-9379552D01*
X10180050Y-9379440D01*
X10180050Y-9307810D01*
X10180552Y-9304317D01*
X10180657Y-9303959D01*
X10180914Y-9303083D01*
X10180990Y-9302736D01*
X10184337Y-9296603D01*
X10184339Y-9296602D01*
X10190059Y-9290882D01*
X10192884Y-9288767D01*
X10194536Y-9287865D01*
X10200773Y-9286352D01*
X10201815Y-9286376D01*
X10204728Y-9286795D01*
X10209411Y-9288050D01*
X10209411Y-9288050D01*
X10222589Y-9288050D01*
X10222589Y-9288050D01*
X10235319Y-9284639D01*
X10246731Y-9278050D01*
X10256050Y-9268731D01*
X10262639Y-9257319D01*
X10266050Y-9244589D01*
X10266050Y-9231411D01*
X10262639Y-9218681D01*
X10262639Y-9218681D01*
X10261756Y-9217152D01*
X10256050Y-9207269D01*
X10246731Y-9197950D01*
X10241025Y-9194655D01*
X10235319Y-9191361D01*
X10225319Y-9188681D01*
X10224681Y-9188511D01*
X10224681Y-9188510D01*
X10222589Y-9187950D01*
X10222589Y-9187950D01*
X10209411Y-9187950D01*
X10196681Y-9191361D01*
X10196681Y-9191361D01*
X10185270Y-9197949D01*
X10185268Y-9197950D01*
X10185268Y-9197951D01*
X10175951Y-9207268D01*
X10175950Y-9207268D01*
X10175949Y-9207270D01*
X10169361Y-9218681D01*
X10169361Y-9218681D01*
X10165950Y-9231411D01*
X10165950Y-9244590D01*
X10167127Y-9248981D01*
X10167521Y-9251350D01*
X10167599Y-9252502D01*
X10167539Y-9252773D01*
X10167531Y-9253086D01*
X10167499Y-9253085D01*
X10167540Y-9254814D01*
X10167416Y-9255851D01*
X10166168Y-9258969D01*
X10166089Y-9259324D01*
X10165984Y-9259428D01*
X10165031Y-9261809D01*
X10164911Y-9261970D01*
X10163751Y-9263308D01*
X10150209Y-9276850D01*
X10150209Y-9276850D01*
X10144850Y-9282209D01*
X10143715Y-9284950D01*
X10141950Y-9289210D01*
X10141950Y-9378573D01*
X10141526Y-9381789D01*
X10141487Y-9381931D01*
X10141106Y-9383229D01*
X10141003Y-9383736D01*
X10140905Y-9384101D01*
X10139273Y-9386774D01*
X10137806Y-9389542D01*
X10137288Y-9390026D01*
X10137265Y-9390064D01*
X10137228Y-9390082D01*
X10136964Y-9390328D01*
X10135162Y-9391862D01*
X10135162Y-9391862D01*
X10134362Y-9392662D01*
X10132445Y-9394915D01*
X10132445Y-9394915D01*
X10132221Y-9395178D01*
X10132034Y-9395438D01*
X10132018Y-9395465D01*
X10131921Y-9395578D01*
X10131734Y-9395838D01*
X10131673Y-9395938D01*
X10131629Y-9395984D01*
X10131588Y-9396040D01*
X10131580Y-9396034D01*
X10131030Y-9396598D01*
X10130999Y-9396615D01*
X10129525Y-9399563D01*
X10129217Y-9400237D01*
X10129216Y-9400239D01*
X10128922Y-9400884D01*
X10128889Y-9400964D01*
X10128888Y-9400965D01*
X10128867Y-9401016D01*
X10128356Y-9402384D01*
X10128333Y-9402455D01*
X10128333Y-9402455D01*
X10128256Y-9402683D01*
X10128255Y-9402687D01*
X10128254Y-9402691D01*
X10127469Y-9405883D01*
X10127469Y-9405884D01*
X10127466Y-9405893D01*
X10127433Y-9406058D01*
X10127423Y-9406110D01*
X10127368Y-9406386D01*
X10127367Y-9406393D01*
X10127365Y-9406401D01*
X10127317Y-9406640D01*
X10127317Y-9406641D01*
X10127315Y-9406654D01*
X10127292Y-9406768D01*
X10127291Y-9406769D01*
X10127283Y-9406813D01*
X10127266Y-9406894D01*
X10127215Y-9407207D01*
X10127175Y-9407705D01*
X10127175Y-9407706D01*
X10126950Y-9410499D01*
X10126950Y-9456813D01*
X10126877Y-9458158D01*
X10126858Y-9458328D01*
X10126663Y-9458798D01*
X10126424Y-9460303D01*
X10126447Y-9460310D01*
X10126429Y-9460369D01*
X10126414Y-9460364D01*
X10126361Y-9460699D01*
X10125943Y-9462030D01*
X10124233Y-9464638D01*
X10124174Y-9464779D01*
X10124112Y-9464821D01*
X10122235Y-9467684D01*
X10121787Y-9468072D01*
X10117037Y-9470635D01*
X10116983Y-9470650D01*
X10115145Y-9471022D01*
X10110754Y-9471569D01*
X10110754Y-9471569D01*
X10110754Y-9471569D01*
X10110753Y-9471569D01*
X10107225Y-9471503D01*
X10106183Y-9471333D01*
X10105960Y-9471297D01*
X10105960Y-9471297D01*
X10105831Y-9471276D01*
X10099530Y-9468255D01*
X10096131Y-9463161D01*
X10095756Y-9462099D01*
X10095050Y-9457975D01*
X10095050Y-9410500D01*
X10095050Y-9410499D01*
X10094785Y-9407209D01*
X10094734Y-9406893D01*
X10094734Y-9406893D01*
X10094733Y-9406891D01*
X10094692Y-9406690D01*
X10094682Y-9406640D01*
X10094658Y-9406518D01*
X10094644Y-9406446D01*
X10094634Y-9406394D01*
X10094634Y-9406393D01*
X10094633Y-9406392D01*
X10094618Y-9406315D01*
X10094579Y-9406117D01*
X10094534Y-9405897D01*
X10094534Y-9405896D01*
X10094534Y-9405894D01*
X10094359Y-9405183D01*
X10093744Y-9402685D01*
X10093644Y-9402385D01*
X10093247Y-9401322D01*
X10093133Y-9401015D01*
X10093078Y-9400884D01*
X10092890Y-9400473D01*
X10092475Y-9399563D01*
X10092407Y-9399426D01*
X10091199Y-9397010D01*
X10091199Y-9397010D01*
X10090502Y-9395618D01*
X10090532Y-9395603D01*
X10089523Y-9393466D01*
X10089522Y-9393465D01*
X10089257Y-9392602D01*
X10089166Y-9385616D01*
X10089239Y-9385354D01*
X10092185Y-9380161D01*
X10092510Y-9379818D01*
X10093183Y-9379264D01*
X10094040Y-9378407D01*
X10094040Y-9378407D01*
X10102407Y-9370040D01*
X10107407Y-9359317D01*
X10108050Y-9354432D01*
X10108050Y-9319568D01*
X10108050Y-9319568D01*
X10107407Y-9314683D01*
X10107407Y-9314683D01*
X10102407Y-9303960D01*
X10094040Y-9295594D01*
X10094040Y-9295593D01*
X10091005Y-9294178D01*
X10087569Y-9291153D01*
X10078432Y-9289950D01*
X10078432Y-9289950D01*
X10078432Y-9289950D01*
X10033568Y-9289950D01*
X10033568Y-9289950D01*
X10033568Y-9289950D01*
X10028683Y-9290593D01*
X10028682Y-9290593D01*
X10017960Y-9295593D01*
X10017960Y-9295593D01*
X10016028Y-9297525D01*
X10014260Y-9298848D01*
X10013203Y-9299640D01*
X10011831Y-9300389D01*
X10005005Y-9301874D01*
X10005004Y-9301874D01*
X10005004Y-9301874D01*
X10005004Y-9301874D01*
X10004825Y-9301861D01*
X9999004Y-9299924D01*
X9998353Y-9299505D01*
X9996289Y-9297842D01*
X9994041Y-9295594D01*
X9994040Y-9295594D01*
X9991982Y-9294634D01*
X9991981Y-9294633D01*
X9991004Y-9294178D01*
X9987569Y-9291153D01*
X9978432Y-9289950D01*
X9978432Y-9289950D01*
X9978432Y-9289950D01*
X9933568Y-9289950D01*
X9933568Y-9289950D01*
X9933568Y-9289950D01*
X9928683Y-9290593D01*
X9928682Y-9290593D01*
X9917959Y-9295594D01*
X9917029Y-9296524D01*
X9917029Y-9296524D01*
X9914203Y-9298640D01*
X9912831Y-9299389D01*
X9906005Y-9300874D01*
X9905825Y-9300861D01*
X9900004Y-9298924D01*
X9899353Y-9298505D01*
X9897289Y-9296842D01*
X9896041Y-9295594D01*
X9896040Y-9295594D01*
X9893982Y-9294634D01*
X9893981Y-9294633D01*
X9893004Y-9294178D01*
X9889569Y-9291153D01*
X9880432Y-9289950D01*
X9880432Y-9289950D01*
X9880432Y-9289950D01*
X9835568Y-9289950D01*
X9835568Y-9289950D01*
X9835568Y-9289950D01*
X9830683Y-9290593D01*
X9830682Y-9290593D01*
X9819959Y-9295594D01*
X9811594Y-9303959D01*
X9806593Y-9314682D01*
X9806593Y-9314683D01*
X9805950Y-9319568D01*
X9625373Y-9319568D01*
X9652998Y-9291942D01*
X9655823Y-9289828D01*
X9658132Y-9288567D01*
X9664075Y-9287050D01*
X9698387Y-9287050D01*
X9699173Y-9286812D01*
X9701211Y-9286406D01*
X9702626Y-9286125D01*
X9703235Y-9286065D01*
X9703239Y-9286064D01*
X9704331Y-9285790D01*
X9705352Y-9284865D01*
X9710455Y-9281455D01*
X9714887Y-9274823D01*
X9714887Y-9274823D01*
X9714887Y-9274823D01*
X9715103Y-9273736D01*
X9715117Y-9273709D01*
X9715125Y-9273626D01*
X9716007Y-9269192D01*
X9716050Y-9268993D01*
X9716050Y-9165230D01*
X9716050Y-9165025D01*
X9716050Y-9165025D01*
X9714887Y-9159177D01*
X9714887Y-9159177D01*
X9712741Y-9155966D01*
X9712526Y-9155645D01*
X9710455Y-9152545D01*
X9706815Y-9150112D01*
X9704839Y-9148792D01*
X9704364Y-9148402D01*
X9703823Y-9148113D01*
X9703823Y-9148113D01*
X9697975Y-9146950D01*
X9697975Y-9146950D01*
X9693233Y-9146950D01*
X9691088Y-9146763D01*
X9690155Y-9146599D01*
X9689872Y-9146459D01*
X9689739Y-9146448D01*
X9689302Y-9146319D01*
X9689330Y-9146222D01*
X9687719Y-9145811D01*
X9687694Y-9145880D01*
X9687409Y-9145773D01*
X9687325Y-9145711D01*
X9687150Y-9145666D01*
X9686879Y-9145542D01*
X9686935Y-9145419D01*
X9685738Y-9144522D01*
X9684762Y-9144236D01*
X9684301Y-9143703D01*
X9683893Y-9143501D01*
X9683501Y-9142848D01*
X9682293Y-9141943D01*
X9682191Y-9142032D01*
X9682099Y-9141927D01*
X9682010Y-9141731D01*
X9681818Y-9141588D01*
X9681636Y-9141344D01*
X9681783Y-9141234D01*
X9681358Y-9140303D01*
X9680189Y-9138953D01*
X9679199Y-9135576D01*
X9679197Y-9135571D01*
X9679196Y-9135566D01*
X9679176Y-9135423D01*
X9679050Y-9133663D01*
X9679050Y-9117046D01*
X9679552Y-9113552D01*
X9680082Y-9111747D01*
X9683423Y-9106266D01*
X9684177Y-9105547D01*
X9685783Y-9104345D01*
X9685819Y-9104297D01*
X9686055Y-9104141D01*
X9686532Y-9103784D01*
X9687050Y-9103485D01*
X9694731Y-9099050D01*
X9704050Y-9089731D01*
X9710639Y-9078319D01*
X9714050Y-9065589D01*
X9714050Y-9052411D01*
X9710639Y-9039681D01*
X9709997Y-9038568D01*
X9706943Y-9033279D01*
X9704050Y-9028269D01*
X9702301Y-9026520D01*
X9701572Y-9025377D01*
X9701500Y-9025128D01*
X9701145Y-9024654D01*
X9700730Y-9023893D01*
X9699245Y-9017066D01*
X9701686Y-9010519D01*
X9707279Y-9006332D01*
X9711613Y-9005550D01*
X9784565Y-9005550D01*
X9787655Y-9005216D01*
X9788519Y-9005122D01*
X9789350Y-9005060D01*
X9789601Y-9005050D01*
X9797975Y-9005050D01*
X9797975Y-9005050D01*
X9799457Y-9004755D01*
X9802626Y-9004125D01*
X9803235Y-9004065D01*
X9803239Y-9004064D01*
X9804331Y-9003790D01*
X9805352Y-9002865D01*
X9810455Y-8999455D01*
X9814887Y-8992823D01*
X9814887Y-8992823D01*
X9814887Y-8992823D01*
X9815103Y-8991736D01*
X9815117Y-8991709D01*
X9815125Y-8991626D01*
X9815129Y-8991608D01*
X9816007Y-8987190D01*
X9816050Y-8986993D01*
X9816050Y-8982295D01*
X9816542Y-8978835D01*
X9816602Y-8978629D01*
X9816699Y-8978298D01*
X9817514Y-8972506D01*
X9816565Y-8640395D01*
X9816388Y-8637757D01*
X9816157Y-8636014D01*
X9816081Y-8635258D01*
X9816050Y-8634823D01*
X9816050Y-8633025D01*
X9816050Y-8633025D01*
X9815854Y-8632040D01*
X9815854Y-8632040D01*
X9814887Y-8627177D01*
X9814598Y-8626636D01*
X9814208Y-8626161D01*
X9812330Y-8623351D01*
X9810455Y-8620545D01*
X9810455Y-8620545D01*
X9809723Y-8620056D01*
X9807039Y-8617627D01*
X9806749Y-8617273D01*
X9805816Y-8616140D01*
X9805430Y-8615788D01*
X9714205Y-8532613D01*
X9710578Y-8526642D01*
X9710754Y-8519657D01*
X9714679Y-8513877D01*
X9721106Y-8511136D01*
X9722560Y-8511050D01*
X9812977Y-8511050D01*
X9815736Y-8511447D01*
X9816470Y-8511552D01*
X9818994Y-8512293D01*
X9824269Y-8515423D01*
X9901367Y-8592521D01*
X9903482Y-8595346D01*
X9904024Y-8596339D01*
X9905510Y-8603166D01*
X9903068Y-8609713D01*
X9897475Y-8613900D01*
X9897474Y-8613900D01*
X9896301Y-8614338D01*
X9894315Y-8614851D01*
X9894323Y-8614891D01*
X9894025Y-8614950D01*
X9894025Y-8614950D01*
X9888177Y-8616113D01*
X9888177Y-8616113D01*
X9888177Y-8616113D01*
X9887636Y-8616402D01*
X9887161Y-8616792D01*
X9881545Y-8620545D01*
X9881545Y-8620545D01*
X9877792Y-8626161D01*
X9877402Y-8626636D01*
X9877113Y-8627177D01*
X9877113Y-8627177D01*
X9877113Y-8627177D01*
X9875950Y-8633025D01*
X9875950Y-8986975D01*
X9877113Y-8992823D01*
X9877113Y-8992823D01*
X9877113Y-8992823D01*
X9877113Y-8992823D01*
X9881545Y-8999455D01*
X9888177Y-9003886D01*
X9888177Y-9003887D01*
X9888177Y-9003887D01*
X9893261Y-9004898D01*
X9893534Y-9004970D01*
X9894025Y-9005050D01*
X9997975Y-9005050D01*
X9998387Y-9005050D01*
X9999173Y-9004812D01*
X10001138Y-9004421D01*
X10002626Y-9004125D01*
X10003235Y-9004065D01*
X10003239Y-9004064D01*
X10004331Y-9003790D01*
X10005352Y-9002865D01*
X10010455Y-8999455D01*
X10014887Y-8992823D01*
X10014887Y-8992823D01*
X10014887Y-8992823D01*
X10015103Y-8991736D01*
X10015117Y-8991709D01*
X10015125Y-8991626D01*
X10015129Y-8991608D01*
X10016007Y-8987190D01*
X10016050Y-8986993D01*
X10016050Y-8953025D01*
X10144950Y-8953025D01*
X10144950Y-9056975D01*
X10146113Y-9062823D01*
X10146113Y-9062823D01*
X10146113Y-9062823D01*
X10146113Y-9062823D01*
X10150545Y-9069455D01*
X10157177Y-9073886D01*
X10157177Y-9073887D01*
X10157177Y-9073887D01*
X10162261Y-9074898D01*
X10162534Y-9074970D01*
X10163025Y-9075050D01*
X10266975Y-9075050D01*
X10267387Y-9075050D01*
X10268173Y-9074812D01*
X10270138Y-9074421D01*
X10271626Y-9074125D01*
X10272235Y-9074065D01*
X10272239Y-9074064D01*
X10273331Y-9073790D01*
X10274352Y-9072865D01*
X10279455Y-9069455D01*
X10283887Y-9062823D01*
X10283887Y-9062823D01*
X10283887Y-9062823D01*
X10284103Y-9061736D01*
X10284117Y-9061709D01*
X10284125Y-9061626D01*
X10284264Y-9060925D01*
X10285007Y-9057190D01*
X10285050Y-9056993D01*
X10285050Y-8953230D01*
X10285050Y-8953025D01*
X10285050Y-8953025D01*
X10283887Y-8947177D01*
X10283887Y-8947177D01*
X10282266Y-8944752D01*
X10282179Y-8944485D01*
X10280884Y-8941778D01*
X10280846Y-8941658D01*
X10280417Y-8940286D01*
X10280292Y-8933301D01*
X10280486Y-8932593D01*
X10283676Y-8927105D01*
X10285050Y-8925731D01*
X10291639Y-8914319D01*
X10295050Y-8901589D01*
X10295050Y-8888411D01*
X10291639Y-8875681D01*
X10291639Y-8875681D01*
X10288798Y-8870760D01*
X10285050Y-8864269D01*
X10275731Y-8854950D01*
X10265741Y-8849182D01*
X10264319Y-8848361D01*
X10255855Y-8846093D01*
X10255855Y-8846093D01*
X10251589Y-8844950D01*
X10251589Y-8844950D01*
X10238411Y-8844950D01*
X10225681Y-8848361D01*
X10225681Y-8848361D01*
X10214270Y-8854949D01*
X10214268Y-8854950D01*
X10214268Y-8854951D01*
X10204951Y-8864268D01*
X10204950Y-8864268D01*
X10204949Y-8864270D01*
X10198361Y-8875681D01*
X10198361Y-8875681D01*
X10194950Y-8888411D01*
X10194950Y-8901589D01*
X10198361Y-8914319D01*
X10198361Y-8914319D01*
X10198472Y-8914512D01*
X10199524Y-8916873D01*
X10199626Y-8917186D01*
X10199704Y-8917475D01*
X10199737Y-8917527D01*
X10199962Y-8918217D01*
X10200046Y-8921105D01*
X10200423Y-8923968D01*
X10200164Y-8925127D01*
X10200166Y-8925201D01*
X10200136Y-8925251D01*
X10200069Y-8925551D01*
X10200007Y-8925761D01*
X10197167Y-8930181D01*
X10196562Y-8931187D01*
X10196502Y-8931216D01*
X10196233Y-8931636D01*
X10196096Y-8931754D01*
X10190610Y-8934502D01*
X10189854Y-8934666D01*
X10187217Y-8934950D01*
X10163025Y-8934950D01*
X10157177Y-8936113D01*
X10157177Y-8936113D01*
X10157177Y-8936113D01*
X10156636Y-8936402D01*
X10156161Y-8936792D01*
X10150545Y-8940545D01*
X10150545Y-8940545D01*
X10147827Y-8944611D01*
X10147827Y-8944612D01*
X10146113Y-8947177D01*
X10146113Y-8947177D01*
X10144950Y-8953025D01*
X10016050Y-8953025D01*
X10016050Y-8633230D01*
X10016050Y-8633025D01*
X10016050Y-8633025D01*
X10014887Y-8627177D01*
X10014887Y-8627177D01*
X10013035Y-8624406D01*
X10012330Y-8623351D01*
X10010455Y-8620545D01*
X10006815Y-8618112D01*
X10004839Y-8616792D01*
X10004364Y-8616402D01*
X10003823Y-8616113D01*
X10003823Y-8616113D01*
X9997975Y-8614950D01*
X9997975Y-8614950D01*
X9993233Y-8614950D01*
X9993233Y-8614950D01*
X9993232Y-8614950D01*
X9989739Y-8614448D01*
X9988239Y-8614007D01*
X9982364Y-8610233D01*
X9982362Y-8610229D01*
X9982361Y-8610229D01*
X9982361Y-8610229D01*
X9982246Y-8610096D01*
X9979498Y-8604608D01*
X9979333Y-8603852D01*
X9979050Y-8601217D01*
X9979050Y-8583518D01*
X9979050Y-8583517D01*
X9978636Y-8581973D01*
X9976730Y-8574857D01*
X9972247Y-8567093D01*
X9965907Y-8560753D01*
X9854907Y-8449753D01*
X9854907Y-8449753D01*
X9854318Y-8449413D01*
X9851475Y-8446431D01*
X9844185Y-8444478D01*
X9838483Y-8442950D01*
X9529483Y-8442950D01*
X9520517Y-8442950D01*
X9520517Y-8442950D01*
X9514815Y-8444478D01*
X9514815Y-8444478D01*
X9511858Y-8445270D01*
X9511857Y-8445271D01*
X9504093Y-8449753D01*
X9504093Y-8449753D01*
X9333726Y-8620120D01*
X9330901Y-8622235D01*
X9329529Y-8622984D01*
X9322702Y-8624469D01*
X9322702Y-8624469D01*
X9322701Y-8624469D01*
X9322701Y-8624469D01*
X9321818Y-8624406D01*
X9316502Y-8622776D01*
X9312320Y-8620361D01*
X9312319Y-8620361D01*
X9312319Y-8620361D01*
X9312319Y-8620361D01*
X9312318Y-8620361D01*
X9312318Y-8620361D01*
X9306938Y-8618919D01*
X9299589Y-8616950D01*
X9299589Y-8616950D01*
X9289609Y-8616950D01*
X9289547Y-8616950D01*
X9285588Y-8616930D01*
X9285578Y-8616857D01*
X9285462Y-8616854D01*
X9285263Y-8616928D01*
X9283961Y-8616922D01*
X9283586Y-8616809D01*
X9282550Y-8616834D01*
X9281512Y-8616710D01*
X9275558Y-8614327D01*
X9275398Y-8614207D01*
X9274058Y-8613046D01*
X9260491Y-8599479D01*
X9258376Y-8596654D01*
X9257834Y-8595661D01*
X9256348Y-8588834D01*
X9258790Y-8582287D01*
X9264383Y-8578100D01*
X9264771Y-8577955D01*
X9265104Y-8577831D01*
X9269436Y-8577050D01*
X9302431Y-8577050D01*
X9302432Y-8577050D01*
X9304060Y-8576836D01*
X9307317Y-8576407D01*
X9318040Y-8571407D01*
X9326407Y-8563040D01*
X9331407Y-8552317D01*
X9332050Y-8547432D01*
X9332050Y-8512568D01*
X9331407Y-8507683D01*
X9326407Y-8496960D01*
X9320301Y-8490854D01*
X9319385Y-8489831D01*
X9317475Y-8487442D01*
X9316868Y-8486683D01*
X9314218Y-8480218D01*
X9314505Y-8478663D01*
X9315484Y-8473347D01*
X9315813Y-8472696D01*
X9318760Y-8468917D01*
X9319311Y-8468439D01*
X9319324Y-8468402D01*
X9320743Y-8466704D01*
X9320947Y-8466500D01*
X9326407Y-8461040D01*
X9331407Y-8450317D01*
X9332050Y-8445432D01*
X9332050Y-8410568D01*
X9332024Y-8410373D01*
X9331613Y-8407250D01*
X9331407Y-8405683D01*
X9331407Y-8405683D01*
X9331407Y-8405683D01*
X9331407Y-8405683D01*
X9331407Y-8405682D01*
X9331397Y-8405661D01*
X9329840Y-8402323D01*
X9326407Y-8394960D01*
X9318040Y-8386593D01*
X9318040Y-8386593D01*
X9316147Y-8385711D01*
X9316147Y-8385711D01*
X9307317Y-8381593D01*
X9307317Y-8381593D01*
X9307317Y-8381593D01*
X9302432Y-8380950D01*
X9302432Y-8380950D01*
X9296750Y-8380950D01*
X9295134Y-8380727D01*
X9293641Y-8380521D01*
X9149612Y-8381359D01*
X9142897Y-8379429D01*
X9139943Y-8376811D01*
X9138449Y-8374985D01*
X9099532Y-8327420D01*
X9097452Y-8325228D01*
X9097451Y-8325227D01*
X9097450Y-8325227D01*
X9094762Y-8322783D01*
X9094762Y-8322782D01*
X9094248Y-8322487D01*
X9094220Y-8322471D01*
X9092810Y-8321656D01*
X9091832Y-8320678D01*
X9088143Y-8318957D01*
X9087670Y-8318684D01*
X9085622Y-8316533D01*
X9085201Y-8316162D01*
X9075990Y-8314950D01*
X9075990Y-8314950D01*
X9054827Y-8314950D01*
X9054584Y-8314948D01*
X9044661Y-8314753D01*
X9037997Y-8312653D01*
X9035291Y-8310188D01*
X8970304Y-8230431D01*
X8964583Y-8223410D01*
X9639950Y-8223410D01*
X9639950Y-8236589D01*
X9640685Y-8239333D01*
X9643361Y-8249319D01*
X9643361Y-8249319D01*
X9645929Y-8253767D01*
X9646581Y-8254896D01*
X9646617Y-8254959D01*
X9646617Y-8254959D01*
X9646618Y-8254959D01*
X9649950Y-8260731D01*
X9659269Y-8270050D01*
X9670681Y-8276639D01*
X9683411Y-8280050D01*
X9683411Y-8280050D01*
X9696589Y-8280050D01*
X9696589Y-8280050D01*
X9709319Y-8276639D01*
X9720731Y-8270050D01*
X9728361Y-8262420D01*
X9729808Y-8261181D01*
X9730871Y-8260403D01*
X9730871Y-8260403D01*
X9732151Y-8259467D01*
X9738724Y-8257098D01*
X9745475Y-8258626D01*
X9746656Y-8259280D01*
X9749421Y-8261361D01*
X9977831Y-8489772D01*
X9977832Y-8489773D01*
X9978143Y-8490084D01*
X9978143Y-8490084D01*
X9978850Y-8490791D01*
X9984209Y-8496150D01*
X9991211Y-8499050D01*
X9991211Y-8499050D01*
X9998789Y-8499050D01*
X10100190Y-8499050D01*
X10103441Y-8499517D01*
X10103683Y-8499552D01*
X10106208Y-8500293D01*
X10111482Y-8503423D01*
X10131061Y-8523002D01*
X10133176Y-8525827D01*
X10134078Y-8527479D01*
X10135592Y-8533717D01*
X10135567Y-8534758D01*
X10135148Y-8537672D01*
X10134950Y-8538410D01*
X10134950Y-8538411D01*
X10134950Y-8551589D01*
X10135308Y-8552925D01*
X10138361Y-8564319D01*
X10140933Y-8568774D01*
X10144950Y-8575731D01*
X10154269Y-8585050D01*
X10162821Y-8589988D01*
X10165409Y-8591482D01*
X10165681Y-8591639D01*
X10178411Y-8595050D01*
X10178411Y-8595050D01*
X10191589Y-8595050D01*
X10191589Y-8595050D01*
X10204319Y-8591639D01*
X10215731Y-8585050D01*
X10225050Y-8575731D01*
X10231639Y-8564319D01*
X10235050Y-8551589D01*
X10235050Y-8538411D01*
X10231639Y-8525681D01*
X10231370Y-8525215D01*
X10229595Y-8522141D01*
X10225050Y-8514269D01*
X10215731Y-8504950D01*
X10210025Y-8501655D01*
X10204319Y-8498361D01*
X10197026Y-8496407D01*
X10191589Y-8494950D01*
X10191589Y-8494950D01*
X10178411Y-8494950D01*
X10170076Y-8497183D01*
X10166571Y-8497602D01*
X10164690Y-8497558D01*
X10158532Y-8495749D01*
X10157642Y-8495207D01*
X10155328Y-8493387D01*
X10133328Y-8471387D01*
X10133326Y-8471385D01*
X10125791Y-8463850D01*
X10118789Y-8460950D01*
X10118789Y-8460950D01*
X10009810Y-8460950D01*
X10009810Y-8460950D01*
X10009810Y-8460950D01*
X10006316Y-8460448D01*
X10003792Y-8459707D01*
X9998518Y-8456577D01*
X9763328Y-8221387D01*
X9763326Y-8221385D01*
X9755791Y-8213850D01*
X9753836Y-8213040D01*
X9748789Y-8210950D01*
X9745736Y-8210950D01*
X9745736Y-8210950D01*
X9745736Y-8210950D01*
X9742243Y-8210448D01*
X9740437Y-8209917D01*
X9734957Y-8206577D01*
X9734238Y-8205823D01*
X9732473Y-8203466D01*
X9731920Y-8202507D01*
X9731919Y-8202506D01*
X9730050Y-8199269D01*
X9720731Y-8189950D01*
X9715025Y-8186655D01*
X9709319Y-8183361D01*
X9702954Y-8181655D01*
X9696589Y-8179950D01*
X9696589Y-8179950D01*
X9683411Y-8179950D01*
X9670681Y-8183361D01*
X9670681Y-8183361D01*
X9659270Y-8189949D01*
X9659268Y-8189950D01*
X9659268Y-8189951D01*
X9649951Y-8199268D01*
X9649950Y-8199268D01*
X9649949Y-8199270D01*
X9643361Y-8210681D01*
X9643361Y-8210681D01*
X9643361Y-8210681D01*
X9643361Y-8210681D01*
X9641076Y-8219209D01*
X9641076Y-8219209D01*
X9639950Y-8223410D01*
X8964583Y-8223410D01*
X8938560Y-8191473D01*
X8938560Y-8191472D01*
X8936468Y-8189262D01*
X8936098Y-8188925D01*
X8933761Y-8186796D01*
X8933761Y-8186796D01*
X8926093Y-8182385D01*
X8919429Y-8180287D01*
X8919429Y-8180287D01*
X8919428Y-8180287D01*
X8919429Y-8180287D01*
X8913657Y-8179342D01*
X8913657Y-8179342D01*
X8907165Y-8179216D01*
X8903717Y-8178657D01*
X8898128Y-8176915D01*
X8897693Y-8176740D01*
X8897036Y-8176585D01*
X8896609Y-8176565D01*
X8892228Y-8176167D01*
X8892228Y-8176167D01*
X8890304Y-8175992D01*
X8890112Y-8175975D01*
X8890112Y-8175975D01*
X8740711Y-8175975D01*
X8740470Y-8175973D01*
X8737361Y-8175912D01*
X8674616Y-8174691D01*
X8674616Y-8174691D01*
X8674616Y-8174691D01*
X8670388Y-8175047D01*
X8670388Y-8175047D01*
X8670388Y-8175047D01*
X8668552Y-8175395D01*
X8665383Y-8175997D01*
X8664506Y-8176183D01*
X8664505Y-8176183D01*
X8656293Y-8180205D01*
X8656292Y-8180206D01*
X8650860Y-8184598D01*
X8650859Y-8184599D01*
X8649005Y-8186295D01*
X8649005Y-8186295D01*
X8644270Y-8194120D01*
X8642075Y-8200752D01*
X8642074Y-8200753D01*
X8641045Y-8206510D01*
X8640183Y-8231761D01*
X8640141Y-8232986D01*
X8640041Y-8233306D01*
X8639400Y-8240364D01*
X8639400Y-8254685D01*
X8639393Y-8254896D01*
X8639393Y-8254896D01*
X8634904Y-8386339D01*
X8635312Y-8391170D01*
X8635312Y-8391172D01*
X8636481Y-8396866D01*
X8636838Y-8398329D01*
X8636838Y-8398330D01*
X8636838Y-8398330D01*
X8636838Y-8398330D01*
X8641224Y-8406355D01*
X8645855Y-8411586D01*
X8645856Y-8411587D01*
X8645857Y-8411588D01*
X8647633Y-8413363D01*
X8648865Y-8414035D01*
X8655662Y-8417743D01*
X8662386Y-8419640D01*
X8668185Y-8420411D01*
X8924249Y-8417697D01*
X8930973Y-8419594D01*
X8933201Y-8421381D01*
X8989657Y-8478517D01*
X8999804Y-8488786D01*
X9003115Y-8494938D01*
X9002575Y-8501904D01*
X9001556Y-8503881D01*
X9001403Y-8504226D01*
X9001403Y-8504227D01*
X9001403Y-8504228D01*
X8999950Y-8511532D01*
X8999950Y-8528051D01*
X8999946Y-8528386D01*
X8999752Y-8535561D01*
X8997603Y-8542210D01*
X8997112Y-8542881D01*
X8960172Y-8589960D01*
X8956296Y-8594900D01*
X8954230Y-8598107D01*
X8952116Y-8602175D01*
X8952115Y-8602176D01*
X8950678Y-8605711D01*
X8949810Y-8608582D01*
X8949810Y-8608584D01*
X8949165Y-8611441D01*
X8949165Y-8611443D01*
X8948636Y-8614930D01*
X8948404Y-8617853D01*
X8947855Y-8688687D01*
X8947590Y-8689563D01*
X8947712Y-8690471D01*
X8946596Y-8692855D01*
X8945834Y-8695375D01*
X8945138Y-8695970D01*
X8944749Y-8696799D01*
X8942521Y-8698202D01*
X8940519Y-8699910D01*
X8939611Y-8700033D01*
X8938836Y-8700521D01*
X8936204Y-8700496D01*
X8933595Y-8700851D01*
X8932580Y-8700462D01*
X8931850Y-8700455D01*
X8929867Y-8699423D01*
X8928653Y-8698959D01*
X8928061Y-8698570D01*
X8927969Y-8698478D01*
X8927550Y-8698225D01*
X8913411Y-8689677D01*
X8913410Y-8689677D01*
X8913410Y-8689677D01*
X8913410Y-8689677D01*
X8898689Y-8685090D01*
X8898687Y-8685089D01*
X8897170Y-8684616D01*
X8897169Y-8684616D01*
X8897169Y-8684616D01*
X8892228Y-8684167D01*
X8892228Y-8684167D01*
X8890304Y-8683992D01*
X8890112Y-8683975D01*
X8890112Y-8683975D01*
X8703788Y-8683975D01*
X8702689Y-8684075D01*
X8701865Y-8684150D01*
X8700153Y-8684305D01*
X8696731Y-8684616D01*
X8680489Y-8689677D01*
X8665931Y-8698478D01*
X8653903Y-8710506D01*
X8645102Y-8725065D01*
X8644068Y-8728385D01*
X8644067Y-8728386D01*
X8643709Y-8729537D01*
X8642190Y-8732722D01*
X8641323Y-8734023D01*
X8639956Y-8735169D01*
X8639835Y-8735352D01*
X8639633Y-8735440D01*
X8635969Y-8738511D01*
X8635968Y-8738512D01*
X8635049Y-8738913D01*
X8630085Y-8739950D01*
X8601850Y-8739950D01*
X8601850Y-8739950D01*
X8601850Y-8739950D01*
X8598356Y-8739448D01*
X8596550Y-8738917D01*
X8591070Y-8735577D01*
X8590203Y-8734668D01*
X8589357Y-8733623D01*
X8589343Y-8733635D01*
X8589050Y-8733269D01*
X8589050Y-8733269D01*
X8585319Y-8729537D01*
X8579732Y-8723950D01*
X8579731Y-8723950D01*
X8571258Y-8719058D01*
X8571084Y-8718958D01*
X8571083Y-8718957D01*
X8568319Y-8717361D01*
X8559694Y-8715050D01*
X8555589Y-8713950D01*
X8555589Y-8713950D01*
X8542411Y-8713950D01*
X8529681Y-8717361D01*
X8529681Y-8717361D01*
X8518270Y-8723949D01*
X8518268Y-8723950D01*
X8518268Y-8723951D01*
X8508951Y-8733268D01*
X8508950Y-8733268D01*
X8508949Y-8733270D01*
X8502361Y-8744681D01*
X8502361Y-8744681D01*
X8502361Y-8744681D01*
X8502361Y-8744681D01*
X8500609Y-8751218D01*
X8499961Y-8753639D01*
X8498950Y-8757411D01*
X8498950Y-8757411D01*
X8498950Y-8770589D01*
X8499368Y-8772147D01*
X8502361Y-8783319D01*
X8502505Y-8783568D01*
X8503218Y-8784803D01*
X8503218Y-8784803D01*
X8507955Y-8793008D01*
X8508782Y-8794737D01*
X8509814Y-8797406D01*
X8510395Y-8804368D01*
X8510122Y-8805702D01*
X8508713Y-8809411D01*
X8503361Y-8818681D01*
X8503313Y-8818861D01*
X8503312Y-8818862D01*
X8502119Y-8823317D01*
X8502119Y-8823317D01*
X8500265Y-8830234D01*
X8499950Y-8831411D01*
X8499950Y-8844589D01*
X8501142Y-8849037D01*
X8503361Y-8857319D01*
X8504728Y-8859687D01*
X8505883Y-8861687D01*
X8509950Y-8868731D01*
X8519269Y-8878050D01*
X8528961Y-8883646D01*
X8530197Y-8884360D01*
X8530681Y-8884639D01*
X8543411Y-8888050D01*
X8543411Y-8888050D01*
X8556589Y-8888050D01*
X8556589Y-8888050D01*
X8569319Y-8884639D01*
X8580731Y-8878050D01*
X8590050Y-8868731D01*
X8590051Y-8868730D01*
X8590083Y-8868688D01*
X8591364Y-8867262D01*
X8592980Y-8865721D01*
X8598614Y-8862645D01*
X8599627Y-8862399D01*
X8602550Y-8862050D01*
X8627671Y-8862050D01*
X8631165Y-8862552D01*
X8632665Y-8862993D01*
X8634165Y-8863956D01*
X8635874Y-8864458D01*
X8638542Y-8866769D01*
X8639198Y-8867527D01*
X8641666Y-8871959D01*
X8642389Y-8874277D01*
X8644094Y-8879751D01*
X8645102Y-8882986D01*
X8653903Y-8897544D01*
X8665931Y-8909572D01*
X8665931Y-8909572D01*
X8665932Y-8909572D01*
X8665932Y-8909573D01*
X8666065Y-8909668D01*
X8666355Y-8909828D01*
X8673399Y-8914087D01*
X8676060Y-8916993D01*
X8680489Y-8918373D01*
X8680489Y-8918373D01*
X8680490Y-8918373D01*
X8680490Y-8918373D01*
X8681399Y-8918656D01*
X8682734Y-8919496D01*
X8684025Y-8919824D01*
X8684583Y-8920174D01*
X8685525Y-8920802D01*
X8686318Y-8921748D01*
X8686776Y-8922035D01*
X8687542Y-8922857D01*
X8687982Y-8923734D01*
X8690013Y-8926157D01*
X8690289Y-8928330D01*
X8690677Y-8929101D01*
X8690545Y-8930341D01*
X8690894Y-8933088D01*
X8690068Y-8934820D01*
X8689937Y-8936049D01*
X8688819Y-8937440D01*
X8687887Y-8939395D01*
X8687885Y-8939398D01*
X8687710Y-8939592D01*
X8686424Y-8940419D01*
X8685559Y-8941494D01*
X8683873Y-8942057D01*
X8682165Y-8943155D01*
X8680490Y-8943677D01*
X8680489Y-8943677D01*
X8665931Y-8952478D01*
X8665931Y-8952478D01*
X8653903Y-8964506D01*
X8645102Y-8979064D01*
X8640041Y-8995306D01*
X8639400Y-9002363D01*
X8639400Y-9024792D01*
X8639400Y-9024793D01*
X8639400Y-9024793D01*
X8638898Y-9028286D01*
X8638457Y-9029786D01*
X8634683Y-9035661D01*
X8634679Y-9035664D01*
X8634679Y-9035664D01*
X8634679Y-9035664D01*
X8634546Y-9035779D01*
X8629060Y-9038527D01*
X8628304Y-9038691D01*
X8625667Y-9038975D01*
X8363185Y-9038975D01*
X8356184Y-9041875D01*
X8352840Y-9045219D01*
X8352840Y-9045219D01*
X8350825Y-9047234D01*
X8350825Y-9047234D01*
X8299009Y-9099050D01*
X8252002Y-9146057D01*
X8250203Y-9147404D01*
X8249177Y-9148172D01*
X8246868Y-9149433D01*
X8240925Y-9150950D01*
X7824810Y-9150950D01*
X7821316Y-9150448D01*
X7818792Y-9149707D01*
X7813518Y-9146577D01*
X7683943Y-9017002D01*
X7683942Y-9017001D01*
X7681827Y-9014176D01*
X7680567Y-9011867D01*
X7679050Y-9005925D01*
X7679050Y-8966222D01*
X7753560Y-8966222D01*
X7757596Y-8986514D01*
X7757597Y-8986517D01*
X7765286Y-9005081D01*
X7765515Y-9005634D01*
X7765516Y-9005635D01*
X7765516Y-9005635D01*
X7767915Y-9009225D01*
X7768161Y-9009593D01*
X7768161Y-9009593D01*
X7777012Y-9022841D01*
X7791644Y-9037472D01*
X7791644Y-9037472D01*
X7791644Y-9037473D01*
X7791644Y-9037473D01*
X7791645Y-9037473D01*
X7791645Y-9037473D01*
X7791651Y-9037478D01*
X7791655Y-9037480D01*
X7808850Y-9048969D01*
X7827968Y-9056888D01*
X7841647Y-9059609D01*
X7847966Y-9060866D01*
X7848189Y-9060916D01*
X7848263Y-9060925D01*
X7868957Y-9060925D01*
X7869369Y-9060925D01*
X7870153Y-9060687D01*
X7889252Y-9056888D01*
X7908370Y-9048969D01*
X7925575Y-9037473D01*
X7940208Y-9022841D01*
X7951704Y-9005635D01*
X7959623Y-8986517D01*
X7963660Y-8966222D01*
X7963660Y-8960542D01*
X7998300Y-8960542D01*
X8002336Y-8980834D01*
X8002337Y-8980837D01*
X8010049Y-8999455D01*
X8010049Y-8999455D01*
X8010256Y-8999955D01*
X8014894Y-9006897D01*
X8014894Y-9006897D01*
X8021752Y-9017160D01*
X8021753Y-9017161D01*
X8036384Y-9031792D01*
X8036384Y-9031792D01*
X8036384Y-9031793D01*
X8036384Y-9031793D01*
X8036385Y-9031793D01*
X8036385Y-9031793D01*
X8036391Y-9031798D01*
X8036395Y-9031800D01*
X8053590Y-9043289D01*
X8072708Y-9051208D01*
X8091804Y-9055006D01*
X8092706Y-9055186D01*
X8092929Y-9055236D01*
X8093003Y-9055245D01*
X8113697Y-9055245D01*
X8114109Y-9055245D01*
X8114893Y-9055007D01*
X8133992Y-9051208D01*
X8153110Y-9043289D01*
X8170315Y-9031793D01*
X8184948Y-9017161D01*
X8196444Y-8999955D01*
X8204363Y-8980837D01*
X8208400Y-8960542D01*
X8208400Y-8939849D01*
X8204363Y-8919553D01*
X8196444Y-8900435D01*
X8184955Y-8883240D01*
X8184954Y-8883237D01*
X8184948Y-8883230D01*
X8184948Y-8883230D01*
X8184948Y-8883230D01*
X8184947Y-8883229D01*
X8184947Y-8883229D01*
X8184947Y-8883229D01*
X8170316Y-8868598D01*
X8157534Y-8860057D01*
X8157534Y-8860057D01*
X8156980Y-8859687D01*
X8153110Y-8857101D01*
X8147705Y-8854862D01*
X8133992Y-8849182D01*
X8133991Y-8849182D01*
X8133990Y-8849182D01*
X8133989Y-8849181D01*
X8113697Y-8845145D01*
X8113697Y-8845145D01*
X8113696Y-8845145D01*
X8093003Y-8845145D01*
X8093003Y-8845145D01*
X8093003Y-8845145D01*
X8072710Y-8849181D01*
X8072708Y-8849182D01*
X8053590Y-8857101D01*
X8036384Y-8868598D01*
X8021753Y-8883229D01*
X8010256Y-8900435D01*
X8002337Y-8919553D01*
X8002336Y-8919555D01*
X7998300Y-8939848D01*
X7998300Y-8939848D01*
X7998300Y-8960542D01*
X7998300Y-8960542D01*
X7998300Y-8960542D01*
X7963660Y-8960542D01*
X7963660Y-8945529D01*
X7962836Y-8941389D01*
X7962037Y-8937370D01*
X7959623Y-8925233D01*
X7951704Y-8906115D01*
X7940215Y-8888920D01*
X7940214Y-8888917D01*
X7940208Y-8888910D01*
X7940208Y-8888910D01*
X7940208Y-8888910D01*
X7940207Y-8888909D01*
X7940207Y-8888909D01*
X7940207Y-8888909D01*
X7925576Y-8874278D01*
X7915056Y-8867249D01*
X7915056Y-8867249D01*
X7914759Y-8867050D01*
X7908370Y-8862781D01*
X7906065Y-8861826D01*
X7905270Y-8861497D01*
X7905270Y-8861497D01*
X7894657Y-8857101D01*
X7889252Y-8854862D01*
X7889251Y-8854862D01*
X7889250Y-8854862D01*
X7889249Y-8854861D01*
X7868957Y-8850825D01*
X7868957Y-8850825D01*
X7868956Y-8850825D01*
X7848263Y-8850825D01*
X7848263Y-8850825D01*
X7848263Y-8850825D01*
X7827970Y-8854861D01*
X7827968Y-8854862D01*
X7808850Y-8862781D01*
X7791644Y-8874278D01*
X7777013Y-8888909D01*
X7765516Y-8906115D01*
X7757597Y-8925233D01*
X7757596Y-8925235D01*
X7753560Y-8945528D01*
X7753560Y-8945528D01*
X7753560Y-8966222D01*
X7753560Y-8966222D01*
X7753560Y-8966222D01*
X7679050Y-8966222D01*
X7679050Y-8712222D01*
X7753560Y-8712222D01*
X7757596Y-8732514D01*
X7757597Y-8732517D01*
X7764007Y-8747993D01*
X7764007Y-8747993D01*
X7764008Y-8747994D01*
X7765516Y-8751635D01*
X7770364Y-8758890D01*
X7770416Y-8758969D01*
X7770416Y-8758969D01*
X7777012Y-8768841D01*
X7791644Y-8783472D01*
X7791644Y-8783472D01*
X7791644Y-8783473D01*
X7791644Y-8783473D01*
X7791645Y-8783473D01*
X7791645Y-8783473D01*
X7791651Y-8783478D01*
X7791655Y-8783480D01*
X7808850Y-8794969D01*
X7827968Y-8802888D01*
X7846881Y-8806650D01*
X7847966Y-8806866D01*
X7848189Y-8806916D01*
X7848263Y-8806925D01*
X7868957Y-8806925D01*
X7869369Y-8806925D01*
X7870153Y-8806687D01*
X7889252Y-8802888D01*
X7908370Y-8794969D01*
X7925575Y-8783473D01*
X7940208Y-8768841D01*
X7951704Y-8751635D01*
X7959623Y-8732517D01*
X7963660Y-8712222D01*
X8007560Y-8712222D01*
X8011596Y-8732514D01*
X8011597Y-8732517D01*
X8018007Y-8747993D01*
X8018007Y-8747993D01*
X8018008Y-8747994D01*
X8019516Y-8751635D01*
X8024364Y-8758890D01*
X8024416Y-8758969D01*
X8024416Y-8758969D01*
X8031012Y-8768841D01*
X8045644Y-8783472D01*
X8045644Y-8783472D01*
X8045644Y-8783473D01*
X8045644Y-8783473D01*
X8045645Y-8783473D01*
X8045645Y-8783473D01*
X8045651Y-8783478D01*
X8045655Y-8783480D01*
X8062850Y-8794969D01*
X8081968Y-8802888D01*
X8100881Y-8806650D01*
X8101966Y-8806866D01*
X8102189Y-8806916D01*
X8102263Y-8806925D01*
X8122957Y-8806925D01*
X8123369Y-8806925D01*
X8124153Y-8806687D01*
X8143252Y-8802888D01*
X8162370Y-8794969D01*
X8179575Y-8783473D01*
X8194208Y-8768841D01*
X8205704Y-8751635D01*
X8213623Y-8732517D01*
X8217660Y-8712222D01*
X8217660Y-8691529D01*
X8213623Y-8671233D01*
X8205704Y-8652115D01*
X8194215Y-8634920D01*
X8194214Y-8634917D01*
X8194208Y-8634910D01*
X8194208Y-8634910D01*
X8194208Y-8634910D01*
X8194207Y-8634909D01*
X8194207Y-8634909D01*
X8194207Y-8634909D01*
X8179576Y-8620278D01*
X8179575Y-8620277D01*
X8168301Y-8612744D01*
X8162371Y-8608782D01*
X8162369Y-8608781D01*
X8159763Y-8607701D01*
X8155151Y-8605791D01*
X8143252Y-8600862D01*
X8143251Y-8600862D01*
X8143250Y-8600862D01*
X8143249Y-8600861D01*
X8122957Y-8596825D01*
X8122957Y-8596825D01*
X8122956Y-8596825D01*
X8102263Y-8596825D01*
X8102263Y-8596825D01*
X8102263Y-8596825D01*
X8081970Y-8600861D01*
X8081968Y-8600862D01*
X8062850Y-8608781D01*
X8045644Y-8620278D01*
X8031013Y-8634909D01*
X8019516Y-8652115D01*
X8011597Y-8671233D01*
X8011596Y-8671235D01*
X8007560Y-8691528D01*
X8007560Y-8691528D01*
X8007560Y-8691528D01*
X8007560Y-8712222D01*
X8007560Y-8712222D01*
X8007560Y-8712222D01*
X7963660Y-8712222D01*
X7963660Y-8712222D01*
X7963660Y-8691529D01*
X7963660Y-8691528D01*
X7960707Y-8676682D01*
X7959623Y-8671233D01*
X7951704Y-8652115D01*
X7940215Y-8634920D01*
X7940214Y-8634917D01*
X7940208Y-8634910D01*
X7940208Y-8634910D01*
X7940208Y-8634910D01*
X7940207Y-8634909D01*
X7940207Y-8634909D01*
X7940207Y-8634909D01*
X7925576Y-8620278D01*
X7925575Y-8620277D01*
X7914301Y-8612744D01*
X7908371Y-8608782D01*
X7908369Y-8608781D01*
X7905763Y-8607701D01*
X7901151Y-8605791D01*
X7889252Y-8600862D01*
X7889251Y-8600862D01*
X7889250Y-8600862D01*
X7889249Y-8600861D01*
X7868957Y-8596825D01*
X7868957Y-8596825D01*
X7868956Y-8596825D01*
X7848263Y-8596825D01*
X7848263Y-8596825D01*
X7848263Y-8596825D01*
X7827970Y-8600861D01*
X7827968Y-8600862D01*
X7808850Y-8608781D01*
X7791644Y-8620278D01*
X7777013Y-8634909D01*
X7765516Y-8652115D01*
X7757597Y-8671233D01*
X7757596Y-8671235D01*
X7753560Y-8691528D01*
X7753560Y-8691528D01*
X7753560Y-8691528D01*
X7753560Y-8712222D01*
X7753560Y-8712222D01*
X7753560Y-8712222D01*
X7679050Y-8712222D01*
X7679050Y-8458222D01*
X7753560Y-8458222D01*
X7757596Y-8478514D01*
X7757597Y-8478517D01*
X7765450Y-8497476D01*
X7765450Y-8497476D01*
X7765502Y-8497602D01*
X7765516Y-8497635D01*
X7768544Y-8502167D01*
X7769342Y-8503361D01*
X7769342Y-8503361D01*
X7777012Y-8514841D01*
X7777013Y-8514841D01*
X7791644Y-8529472D01*
X7791644Y-8529472D01*
X7791644Y-8529473D01*
X7791644Y-8529473D01*
X7791645Y-8529473D01*
X7791645Y-8529473D01*
X7791651Y-8529478D01*
X7791655Y-8529480D01*
X7808850Y-8540969D01*
X7827968Y-8548888D01*
X7841547Y-8551589D01*
X7845207Y-8552317D01*
X7847966Y-8552866D01*
X7848189Y-8552916D01*
X7848263Y-8552925D01*
X7868957Y-8552925D01*
X7869369Y-8552925D01*
X7870153Y-8552687D01*
X7889252Y-8548888D01*
X7908370Y-8540969D01*
X7925575Y-8529473D01*
X7940208Y-8514841D01*
X7951704Y-8497635D01*
X7959623Y-8478517D01*
X7963660Y-8458222D01*
X8007560Y-8458222D01*
X8011596Y-8478514D01*
X8011597Y-8478517D01*
X8019450Y-8497476D01*
X8019450Y-8497476D01*
X8019502Y-8497602D01*
X8019516Y-8497635D01*
X8022544Y-8502167D01*
X8023342Y-8503361D01*
X8023342Y-8503361D01*
X8031012Y-8514841D01*
X8031013Y-8514841D01*
X8045644Y-8529472D01*
X8045644Y-8529472D01*
X8045644Y-8529473D01*
X8045644Y-8529473D01*
X8045645Y-8529473D01*
X8045645Y-8529473D01*
X8045651Y-8529478D01*
X8045655Y-8529480D01*
X8062850Y-8540969D01*
X8081968Y-8548888D01*
X8095547Y-8551589D01*
X8099207Y-8552317D01*
X8101966Y-8552866D01*
X8102189Y-8552916D01*
X8102263Y-8552925D01*
X8122957Y-8552925D01*
X8123369Y-8552925D01*
X8124153Y-8552687D01*
X8143252Y-8548888D01*
X8162370Y-8540969D01*
X8179575Y-8529473D01*
X8194208Y-8514841D01*
X8205704Y-8497635D01*
X8213623Y-8478517D01*
X8217660Y-8458222D01*
X8217660Y-8437529D01*
X8213623Y-8417233D01*
X8205704Y-8398115D01*
X8194215Y-8380920D01*
X8194214Y-8380917D01*
X8194208Y-8380910D01*
X8194208Y-8380910D01*
X8194208Y-8380909D01*
X8194207Y-8380909D01*
X8194207Y-8380909D01*
X8194207Y-8380909D01*
X8179576Y-8366278D01*
X8179575Y-8366277D01*
X8168836Y-8359101D01*
X8168835Y-8359101D01*
X8168301Y-8358744D01*
X8162370Y-8354781D01*
X8154899Y-8351687D01*
X8143252Y-8346862D01*
X8143251Y-8346862D01*
X8143250Y-8346862D01*
X8143249Y-8346861D01*
X8122957Y-8342825D01*
X8122957Y-8342825D01*
X8122956Y-8342825D01*
X8102263Y-8342825D01*
X8102263Y-8342825D01*
X8102263Y-8342825D01*
X8081970Y-8346861D01*
X8081968Y-8346862D01*
X8062850Y-8354781D01*
X8045644Y-8366278D01*
X8031013Y-8380909D01*
X8019516Y-8398115D01*
X8011597Y-8417233D01*
X8011596Y-8417235D01*
X8007560Y-8437528D01*
X8007560Y-8437528D01*
X8007560Y-8437528D01*
X8007560Y-8458222D01*
X8007560Y-8458222D01*
X8007560Y-8458222D01*
X7963660Y-8458222D01*
X7963660Y-8458222D01*
X7963660Y-8437529D01*
X7963660Y-8437528D01*
X7961530Y-8426820D01*
X7959623Y-8417233D01*
X7951704Y-8398115D01*
X7940215Y-8380920D01*
X7940214Y-8380917D01*
X7940208Y-8380910D01*
X7940208Y-8380910D01*
X7940208Y-8380909D01*
X7940207Y-8380909D01*
X7940207Y-8380909D01*
X7940207Y-8380909D01*
X7925576Y-8366278D01*
X7925575Y-8366277D01*
X7914836Y-8359101D01*
X7914835Y-8359101D01*
X7914301Y-8358744D01*
X7908370Y-8354781D01*
X7900899Y-8351687D01*
X7889252Y-8346862D01*
X7889251Y-8346862D01*
X7889250Y-8346862D01*
X7889249Y-8346861D01*
X7868957Y-8342825D01*
X7868957Y-8342825D01*
X7868956Y-8342825D01*
X7848263Y-8342825D01*
X7848263Y-8342825D01*
X7848263Y-8342825D01*
X7827970Y-8346861D01*
X7827968Y-8346862D01*
X7808850Y-8354781D01*
X7791644Y-8366278D01*
X7777013Y-8380909D01*
X7765516Y-8398115D01*
X7757597Y-8417233D01*
X7757596Y-8417235D01*
X7753560Y-8437528D01*
X7753560Y-8437528D01*
X7753560Y-8437528D01*
X7753560Y-8458222D01*
X7753560Y-8458222D01*
X7753560Y-8458222D01*
X7679050Y-8458222D01*
X7679050Y-8415736D01*
X7679552Y-8412243D01*
X7680082Y-8410438D01*
X7683423Y-8404957D01*
X7684177Y-8404238D01*
X7686534Y-8402474D01*
X7690731Y-8400050D01*
X7700050Y-8390731D01*
X7706639Y-8379319D01*
X7710050Y-8366589D01*
X7710050Y-8353411D01*
X7706639Y-8340681D01*
X7706639Y-8340681D01*
X7705756Y-8339152D01*
X7700050Y-8329269D01*
X7690731Y-8319950D01*
X7685025Y-8316655D01*
X7679319Y-8313361D01*
X7671781Y-8311341D01*
X7666589Y-8309950D01*
X7666589Y-8309950D01*
X7653411Y-8309950D01*
X7640681Y-8313361D01*
X7640681Y-8313361D01*
X7629270Y-8319949D01*
X7629268Y-8319950D01*
X7629268Y-8319951D01*
X7619951Y-8329268D01*
X7619950Y-8329268D01*
X7619949Y-8329270D01*
X7613361Y-8340681D01*
X7613361Y-8340681D01*
X7613361Y-8340681D01*
X7609950Y-8353411D01*
X7609950Y-8366589D01*
X7613361Y-8379319D01*
X7613361Y-8379319D01*
X7613361Y-8379319D01*
X7616333Y-8384466D01*
X7616333Y-8384466D01*
X7616333Y-8384466D01*
X7619950Y-8390731D01*
X7629269Y-8400050D01*
X7633206Y-8402323D01*
X7635980Y-8404505D01*
X7637279Y-8405867D01*
X7640355Y-8411500D01*
X7640600Y-8412512D01*
X7640950Y-8415436D01*
X7640950Y-9023789D01*
X7643388Y-9029676D01*
X7643850Y-9030791D01*
X7651193Y-9038134D01*
X7651197Y-9038138D01*
X7793850Y-9180791D01*
X7793850Y-9180791D01*
X7799209Y-9186150D01*
X7806211Y-9189050D01*
X7806211Y-9189050D01*
X8258789Y-9189050D01*
X8258789Y-9189050D01*
X8258789Y-9189050D01*
X8265791Y-9186150D01*
X8271150Y-9180791D01*
X8271150Y-9180791D01*
X8272894Y-9179047D01*
X8272894Y-9179047D01*
X8369973Y-9081967D01*
X8372798Y-9079853D01*
X8375107Y-9078592D01*
X8381050Y-9077075D01*
X8625217Y-9077075D01*
X8628711Y-9077577D01*
X8630210Y-9078018D01*
X8636086Y-9081792D01*
X8636088Y-9081795D01*
X8636088Y-9081795D01*
X8636088Y-9081795D01*
X8636204Y-9081929D01*
X8638952Y-9087415D01*
X8639116Y-9088171D01*
X8639400Y-9090808D01*
X8639400Y-9113687D01*
X8639484Y-9114609D01*
X8640041Y-9120744D01*
X8640041Y-9120744D01*
X8640041Y-9120745D01*
X8640514Y-9122262D01*
X8640515Y-9122264D01*
X8645102Y-9136985D01*
X8646531Y-9139349D01*
X8651829Y-9148113D01*
X8652354Y-9148982D01*
X8653240Y-9150448D01*
X8653903Y-9151544D01*
X8665931Y-9163572D01*
X8665931Y-9163572D01*
X8665932Y-9163572D01*
X8665932Y-9163573D01*
X8666065Y-9163668D01*
X8666355Y-9163828D01*
X8672584Y-9167594D01*
X8673399Y-9168087D01*
X8676060Y-9170993D01*
X8680489Y-9172373D01*
X8680489Y-9172373D01*
X8680490Y-9172373D01*
X8680490Y-9172373D01*
X8681399Y-9172656D01*
X8682734Y-9173496D01*
X8684025Y-9173824D01*
X8684583Y-9174174D01*
X8685525Y-9174802D01*
X8686318Y-9175748D01*
X8686776Y-9176035D01*
X8687542Y-9176857D01*
X8687982Y-9177734D01*
X8690013Y-9180157D01*
X8690289Y-9182330D01*
X8690677Y-9183101D01*
X8690545Y-9184341D01*
X8690894Y-9187088D01*
X8690068Y-9188820D01*
X8689937Y-9190049D01*
X8688819Y-9191440D01*
X8687887Y-9193395D01*
X8687885Y-9193398D01*
X8687710Y-9193592D01*
X8686424Y-9194419D01*
X8685559Y-9195494D01*
X8683873Y-9196057D01*
X8682165Y-9197155D01*
X8680490Y-9197677D01*
X8680489Y-9197677D01*
X8665931Y-9206478D01*
X8665931Y-9206478D01*
X8653903Y-9218506D01*
X8645102Y-9233064D01*
X8640041Y-9249306D01*
X8639400Y-9256363D01*
X8639400Y-9278792D01*
X8639400Y-9278793D01*
X8639400Y-9278793D01*
X8638898Y-9282286D01*
X8638457Y-9283786D01*
X8634683Y-9289661D01*
X8634679Y-9289664D01*
X8634679Y-9289664D01*
X8634679Y-9289664D01*
X8634546Y-9289779D01*
X8629060Y-9292527D01*
X8628304Y-9292691D01*
X8625667Y-9292975D01*
X8516835Y-9292975D01*
X8516835Y-9292975D01*
X8516835Y-9292975D01*
X8513341Y-9292473D01*
X8510817Y-9291732D01*
X8505543Y-9288602D01*
X8453328Y-9236387D01*
X8453326Y-9236385D01*
X8445791Y-9228850D01*
X8442716Y-9227577D01*
X8438789Y-9225950D01*
X7769810Y-9225950D01*
X7769810Y-9225950D01*
X7769810Y-9225950D01*
X7766316Y-9225448D01*
X7763792Y-9224707D01*
X7758518Y-9221577D01*
X7603943Y-9067002D01*
X7601827Y-9064176D01*
X7600567Y-9061867D01*
X7599050Y-9055925D01*
X7599050Y-8438211D01*
X7599050Y-8438211D01*
X7598000Y-8435677D01*
X7596150Y-8431209D01*
X7590791Y-8425850D01*
X7590791Y-8425850D01*
X7528942Y-8364001D01*
X7526827Y-8361176D01*
X7525567Y-8358867D01*
X7524050Y-8352925D01*
X7524050Y-8215736D01*
X7524552Y-8212243D01*
X7525082Y-8210437D01*
X7528423Y-8204957D01*
X7529177Y-8204237D01*
X7529198Y-8204222D01*
X7753560Y-8204222D01*
X7756978Y-8221406D01*
X7757597Y-8224516D01*
X7757597Y-8224517D01*
X7765516Y-8243635D01*
X7777012Y-8260840D01*
X7777013Y-8260841D01*
X7791644Y-8275472D01*
X7791644Y-8275472D01*
X7791644Y-8275472D01*
X7791644Y-8275473D01*
X7791645Y-8275473D01*
X7791645Y-8275473D01*
X7791651Y-8275478D01*
X7791655Y-8275480D01*
X7808850Y-8286969D01*
X7827968Y-8294888D01*
X7847064Y-8298686D01*
X7847966Y-8298866D01*
X7848189Y-8298916D01*
X7848263Y-8298925D01*
X7868957Y-8298925D01*
X7869369Y-8298925D01*
X7870153Y-8298687D01*
X7889252Y-8294888D01*
X7908370Y-8286969D01*
X7925575Y-8275473D01*
X7940208Y-8260840D01*
X7951704Y-8243635D01*
X7959623Y-8224517D01*
X7963660Y-8204222D01*
X8007560Y-8204222D01*
X8010978Y-8221406D01*
X8011597Y-8224516D01*
X8011597Y-8224517D01*
X8019516Y-8243635D01*
X8031012Y-8260840D01*
X8031013Y-8260841D01*
X8045644Y-8275472D01*
X8045644Y-8275472D01*
X8045644Y-8275472D01*
X8045644Y-8275473D01*
X8045645Y-8275473D01*
X8045645Y-8275473D01*
X8045651Y-8275478D01*
X8045655Y-8275480D01*
X8062850Y-8286969D01*
X8081968Y-8294888D01*
X8101064Y-8298686D01*
X8101966Y-8298866D01*
X8102189Y-8298916D01*
X8102263Y-8298925D01*
X8122957Y-8298925D01*
X8123369Y-8298925D01*
X8124153Y-8298687D01*
X8143252Y-8294888D01*
X8162370Y-8286969D01*
X8179575Y-8275473D01*
X8194208Y-8260840D01*
X8205704Y-8243635D01*
X8207486Y-8239333D01*
X8209141Y-8235337D01*
X8209141Y-8235337D01*
X8213623Y-8224517D01*
X8217660Y-8204221D01*
X8217660Y-8183528D01*
X8213623Y-8163233D01*
X8205704Y-8144115D01*
X8194215Y-8126920D01*
X8194214Y-8126917D01*
X8194208Y-8126910D01*
X8194208Y-8126910D01*
X8194208Y-8126909D01*
X8194207Y-8126909D01*
X8194207Y-8126909D01*
X8194207Y-8126909D01*
X8179576Y-8112278D01*
X8179575Y-8112277D01*
X8170973Y-8106529D01*
X8170972Y-8106529D01*
X8162370Y-8100781D01*
X8162369Y-8100781D01*
X8150011Y-8095662D01*
X8143252Y-8092862D01*
X8143251Y-8092862D01*
X8143250Y-8092862D01*
X8143249Y-8092861D01*
X8122957Y-8088825D01*
X8122957Y-8088825D01*
X8122956Y-8088825D01*
X8102263Y-8088825D01*
X8102263Y-8088825D01*
X8102263Y-8088825D01*
X8081970Y-8092861D01*
X8081968Y-8092862D01*
X8062850Y-8100781D01*
X8045644Y-8112278D01*
X8031013Y-8126909D01*
X8019516Y-8144115D01*
X8011597Y-8163233D01*
X8011596Y-8163235D01*
X8007560Y-8183528D01*
X8007560Y-8183528D01*
X8007560Y-8183528D01*
X8007560Y-8204222D01*
X8007560Y-8204222D01*
X8007560Y-8204222D01*
X7963660Y-8204222D01*
X7963660Y-8204221D01*
X7963660Y-8183528D01*
X7963660Y-8183528D01*
X7960291Y-8166589D01*
X7959623Y-8163233D01*
X7951704Y-8144115D01*
X7940215Y-8126920D01*
X7940214Y-8126917D01*
X7940208Y-8126910D01*
X7940208Y-8126910D01*
X7940208Y-8126909D01*
X7940207Y-8126909D01*
X7940207Y-8126909D01*
X7940207Y-8126909D01*
X7925576Y-8112278D01*
X7925575Y-8112277D01*
X7916973Y-8106529D01*
X7916972Y-8106529D01*
X7908370Y-8100781D01*
X7908369Y-8100781D01*
X7896011Y-8095662D01*
X7889252Y-8092862D01*
X7889251Y-8092862D01*
X7889250Y-8092862D01*
X7889249Y-8092861D01*
X7868957Y-8088825D01*
X7868957Y-8088825D01*
X7868956Y-8088825D01*
X7848263Y-8088825D01*
X7848263Y-8088825D01*
X7848263Y-8088825D01*
X7827970Y-8092861D01*
X7827968Y-8092862D01*
X7808850Y-8100781D01*
X7791644Y-8112278D01*
X7777013Y-8126909D01*
X7765516Y-8144115D01*
X7757597Y-8163233D01*
X7757596Y-8163235D01*
X7753560Y-8183528D01*
X7753560Y-8183528D01*
X7753560Y-8183528D01*
X7753560Y-8204222D01*
X7753560Y-8204222D01*
X7753560Y-8204222D01*
X7529198Y-8204222D01*
X7531533Y-8202474D01*
X7531804Y-8202317D01*
X7531804Y-8202317D01*
X7531804Y-8202317D01*
X7535731Y-8200050D01*
X7545050Y-8190731D01*
X7551639Y-8179319D01*
X7555050Y-8166589D01*
X7555050Y-8153411D01*
X7551639Y-8140681D01*
X7551639Y-8140681D01*
X7549924Y-8137710D01*
X7545050Y-8129269D01*
X7535731Y-8119950D01*
X7530025Y-8116655D01*
X7524319Y-8113361D01*
X7517954Y-8111655D01*
X7511589Y-8109950D01*
X7511589Y-8109950D01*
X7498411Y-8109950D01*
X7485681Y-8113361D01*
X7485681Y-8113361D01*
X7474270Y-8119949D01*
X7474268Y-8119950D01*
X7474268Y-8119951D01*
X7464951Y-8129268D01*
X7464950Y-8129268D01*
X7464949Y-8129270D01*
X7458361Y-8140681D01*
X7458361Y-8140681D01*
X7458361Y-8140681D01*
X7454950Y-8153411D01*
X7454950Y-8166589D01*
X7458324Y-8179181D01*
X7458361Y-8179319D01*
X7458725Y-8179950D01*
X7458725Y-8179950D01*
X7464950Y-8190731D01*
X7474269Y-8200050D01*
X7476432Y-8201299D01*
X7478081Y-8202251D01*
X7478196Y-8202317D01*
X7478206Y-8202324D01*
X7478207Y-8202324D01*
X7480980Y-8204505D01*
X7482279Y-8205867D01*
X7485355Y-8211500D01*
X7485600Y-8212512D01*
X7485950Y-8215436D01*
X7485950Y-8370789D01*
X7488850Y-8377791D01*
X7488850Y-8377791D01*
X7496149Y-8385090D01*
X7496154Y-8385094D01*
X7556057Y-8444998D01*
X7558172Y-8447823D01*
X7559433Y-8450132D01*
X7560950Y-8456075D01*
X7560950Y-9073789D01*
X7562701Y-9078018D01*
X7563850Y-9080791D01*
X7571149Y-9088090D01*
X7571154Y-9088094D01*
X7738143Y-9255084D01*
X7738143Y-9255084D01*
X7738850Y-9255791D01*
X7744209Y-9261150D01*
X7751211Y-9264050D01*
X7751211Y-9264050D01*
X7758789Y-9264050D01*
X8420190Y-9264050D01*
X8423441Y-9264517D01*
X8423683Y-9264552D01*
X8426208Y-9265293D01*
X8431482Y-9268423D01*
X8484856Y-9321797D01*
X8484857Y-9321798D01*
X8485168Y-9322109D01*
X8485168Y-9322109D01*
X8485875Y-9322816D01*
X8491234Y-9328175D01*
X8498236Y-9331075D01*
X8498236Y-9331075D01*
X8505814Y-9331075D01*
X8625217Y-9331075D01*
X8628711Y-9331577D01*
X8630210Y-9332018D01*
X8636086Y-9335792D01*
X8636088Y-9335795D01*
X8636088Y-9335795D01*
X8636088Y-9335795D01*
X8636204Y-9335929D01*
X8638952Y-9341415D01*
X8639116Y-9342171D01*
X8639400Y-9344808D01*
X8639400Y-9367687D01*
X8639925Y-9373461D01*
X8640041Y-9374744D01*
X8640041Y-9374744D01*
X8640041Y-9374745D01*
X8640514Y-9376262D01*
X8640515Y-9376264D01*
X8645102Y-9390985D01*
X8645102Y-9390985D01*
X8645102Y-9390986D01*
X8653309Y-9404562D01*
X8653903Y-9405544D01*
X8665931Y-9417572D01*
X8665931Y-9417572D01*
X8665932Y-9417572D01*
X8665932Y-9417573D01*
X8666065Y-9417668D01*
X8666355Y-9417828D01*
X8672686Y-9421655D01*
X8673399Y-9422087D01*
X8676060Y-9424993D01*
X8680489Y-9426373D01*
X8680489Y-9426373D01*
X8680490Y-9426373D01*
X8680490Y-9426373D01*
X8681399Y-9426656D01*
X8682734Y-9427496D01*
X8684025Y-9427824D01*
X8684583Y-9428174D01*
X8685525Y-9428802D01*
X8686318Y-9429748D01*
X8686776Y-9430035D01*
X8687542Y-9430857D01*
X8687982Y-9431734D01*
X8690013Y-9434157D01*
X8690289Y-9436330D01*
X8690677Y-9437101D01*
X8690545Y-9438341D01*
X8690894Y-9441088D01*
X8690068Y-9442820D01*
X8689937Y-9444049D01*
X8688819Y-9445440D01*
X8687887Y-9447395D01*
X8687885Y-9447398D01*
X8687710Y-9447592D01*
X8686424Y-9448419D01*
X8685559Y-9449494D01*
X8683873Y-9450057D01*
X8682165Y-9451155D01*
X8680490Y-9451677D01*
X8680489Y-9451677D01*
X8665931Y-9460478D01*
X8665931Y-9460478D01*
X8653903Y-9472506D01*
X8645102Y-9487064D01*
X8640041Y-9503306D01*
X8639400Y-9510363D01*
X8639400Y-9532792D01*
X8639213Y-9534936D01*
X8639049Y-9535869D01*
X8638909Y-9536152D01*
X8638898Y-9536285D01*
X8638769Y-9536722D01*
X8638673Y-9536694D01*
X8638261Y-9538306D01*
X8638330Y-9538331D01*
X8638223Y-9538616D01*
X8638161Y-9538700D01*
X8638116Y-9538875D01*
X8637992Y-9539146D01*
X8637869Y-9539090D01*
X8636975Y-9540284D01*
X8636691Y-9541254D01*
X8636155Y-9541718D01*
X8635951Y-9542132D01*
X8635300Y-9542522D01*
X8634390Y-9543738D01*
X8634477Y-9543839D01*
X8634372Y-9543930D01*
X8634181Y-9544017D01*
X8634041Y-9544204D01*
X8633797Y-9544387D01*
X8633689Y-9544242D01*
X8632753Y-9544669D01*
X8631412Y-9545832D01*
X8628026Y-9546827D01*
X8627882Y-9546848D01*
X8626113Y-9546975D01*
X8605835Y-9546975D01*
X8602341Y-9546473D01*
X8599817Y-9545732D01*
X8594543Y-9542602D01*
X8353328Y-9301387D01*
X8353326Y-9301385D01*
X8345791Y-9293850D01*
X8344074Y-9293139D01*
X8338789Y-9290950D01*
X7704810Y-9290950D01*
X7704810Y-9290950D01*
X7704810Y-9290950D01*
X7701316Y-9290448D01*
X7698792Y-9289707D01*
X7693518Y-9286577D01*
X7528943Y-9122002D01*
X7526827Y-9119176D01*
X7525567Y-9116867D01*
X7524050Y-9110925D01*
X7524050Y-8541108D01*
X7524050Y-8540234D01*
X7524050Y-8540233D01*
X7524050Y-8531211D01*
X7524050Y-8531211D01*
X7523712Y-8530395D01*
X7521150Y-8524209D01*
X7442881Y-8445941D01*
X7442537Y-8445481D01*
X7440767Y-8443116D01*
X7439865Y-8441464D01*
X7438352Y-8435227D01*
X7438376Y-8434185D01*
X7438795Y-8431271D01*
X7440050Y-8426589D01*
X7440050Y-8413411D01*
X7436639Y-8400681D01*
X7430050Y-8389269D01*
X7420731Y-8379950D01*
X7418535Y-8378682D01*
X7415849Y-8377131D01*
X7415849Y-8377131D01*
X7415025Y-8376655D01*
X7409319Y-8373361D01*
X7399721Y-8370789D01*
X7399070Y-8370615D01*
X7399070Y-8370615D01*
X7396589Y-8369950D01*
X7396589Y-8369950D01*
X7383411Y-8369950D01*
X7370681Y-8373361D01*
X7370681Y-8373361D01*
X7359268Y-8379950D01*
X7354676Y-8384543D01*
X7353262Y-8385315D01*
X7351850Y-8386658D01*
X7350892Y-8387181D01*
X7349150Y-8387560D01*
X7348544Y-8387891D01*
X7347938Y-8388007D01*
X7347023Y-8388159D01*
X7346621Y-8388110D01*
X7344064Y-8388666D01*
X7340614Y-8387379D01*
X7340087Y-8387315D01*
X7339797Y-8387074D01*
X7337518Y-8386224D01*
X7335466Y-8383483D01*
X7334709Y-8382855D01*
X7334497Y-8382188D01*
X7333331Y-8380630D01*
X7332915Y-8377203D01*
X7332595Y-8376195D01*
X7332732Y-8375690D01*
X7332632Y-8374868D01*
X7332675Y-8374496D01*
X7333154Y-8372237D01*
X7333605Y-8370789D01*
X7337359Y-8358745D01*
X7338000Y-8351687D01*
X7338000Y-8240363D01*
X7337359Y-8233305D01*
X7332298Y-8217064D01*
X7323497Y-8202506D01*
X7323497Y-8202506D01*
X7323497Y-8202506D01*
X7311469Y-8190478D01*
X7296911Y-8181677D01*
X7296910Y-8181677D01*
X7291368Y-8179950D01*
X7291368Y-8179950D01*
X7280670Y-8176616D01*
X7280669Y-8176616D01*
X7280669Y-8176616D01*
X7279387Y-8176500D01*
X7279387Y-8176500D01*
X7275728Y-8176167D01*
X7275728Y-8176167D01*
X7273804Y-8175992D01*
X7273612Y-8175975D01*
X7273611Y-8175975D01*
X7087288Y-8175975D01*
X7086189Y-8176075D01*
X7085364Y-8176150D01*
X7083653Y-8176305D01*
X7080230Y-8176616D01*
X7063989Y-8181677D01*
X7049431Y-8190478D01*
X7037403Y-8202506D01*
X7028602Y-8217065D01*
X7024877Y-8229018D01*
X7024877Y-8229019D01*
X7024877Y-8229019D01*
X7023358Y-8232205D01*
X7022589Y-8233359D01*
X7017233Y-8237847D01*
X7010305Y-8238728D01*
X7010212Y-8238713D01*
X7010014Y-8238681D01*
X7004822Y-8236564D01*
X7004603Y-8236409D01*
X7002992Y-8235051D01*
X6967943Y-8200002D01*
X6967942Y-8200001D01*
X6965827Y-8197176D01*
X6964567Y-8194867D01*
X6963050Y-8188925D01*
X6963050Y-8152569D01*
X6963050Y-8152568D01*
X6962513Y-8148488D01*
X6962482Y-8148024D01*
X6962407Y-8147683D01*
X6962407Y-8147683D01*
X6962407Y-8147683D01*
X6957406Y-8136960D01*
X6949040Y-8128593D01*
X6949040Y-8128593D01*
X6946005Y-8127178D01*
X6942569Y-8124153D01*
X6933432Y-8122950D01*
X6933432Y-8122950D01*
X6933432Y-8122950D01*
X6898568Y-8122950D01*
X6898568Y-8122950D01*
X6898568Y-8122950D01*
X6893683Y-8123593D01*
X6893682Y-8123593D01*
X6882959Y-8128593D01*
X6882959Y-8128594D01*
X6876840Y-8134713D01*
X6875811Y-8135633D01*
X6872678Y-8138136D01*
X6866211Y-8140782D01*
X6859341Y-8139512D01*
X6859340Y-8139512D01*
X6858687Y-8139181D01*
X6854914Y-8136238D01*
X6854438Y-8135688D01*
X6854409Y-8135679D01*
X6852698Y-8134251D01*
X6847040Y-8128593D01*
X6844005Y-8127178D01*
X6840569Y-8124153D01*
X6831432Y-8122950D01*
X6831432Y-8122950D01*
X6831432Y-8122950D01*
X6796568Y-8122950D01*
X6796568Y-8122950D01*
X6796568Y-8122950D01*
X6791683Y-8123593D01*
X6791682Y-8123593D01*
X6780959Y-8128593D01*
X6772593Y-8136959D01*
X6768563Y-8145603D01*
X6767811Y-8146980D01*
X6766909Y-8148410D01*
X6766899Y-8148406D01*
X6766356Y-8149256D01*
X6766305Y-8149368D01*
X6766020Y-8149819D01*
X6763698Y-8151865D01*
X6761903Y-8153663D01*
X6761976Y-8153776D01*
X6761657Y-8153981D01*
X6761556Y-8154011D01*
X6761490Y-8154077D01*
X6761228Y-8154220D01*
X6761175Y-8154123D01*
X6761115Y-8154140D01*
X6760777Y-8154438D01*
X6759373Y-8154652D01*
X6754953Y-8155950D01*
X6740620Y-8155950D01*
X6740617Y-8155950D01*
X6740233Y-8155950D01*
X6738789Y-8155950D01*
X6731211Y-8155950D01*
X6731211Y-8155950D01*
X6731210Y-8155950D01*
X6724209Y-8158850D01*
X6724209Y-8158850D01*
X6618850Y-8264209D01*
X6618850Y-8264209D01*
X6618850Y-8264209D01*
X6615950Y-8271210D01*
X6615950Y-9461289D01*
X6618433Y-9467284D01*
X6618850Y-9468291D01*
X6626148Y-9475589D01*
X6626154Y-9475594D01*
X6664618Y-9514059D01*
X6666733Y-9516884D01*
X6667635Y-9518536D01*
X6669148Y-9524774D01*
X6669124Y-9525815D01*
X6668705Y-9528729D01*
X6667650Y-9532665D01*
X6667450Y-9533411D01*
X6667450Y-9546589D01*
X6668136Y-9549148D01*
X6670861Y-9559319D01*
X6670861Y-9559319D01*
X6671858Y-9561046D01*
X6671858Y-9561046D01*
X6673576Y-9564022D01*
X6677450Y-9570731D01*
X6686769Y-9580050D01*
X6698182Y-9586639D01*
X6710911Y-9590050D01*
X6710911Y-9590050D01*
X6724089Y-9590050D01*
X6724089Y-9590050D01*
X6736819Y-9586639D01*
X6748232Y-9580050D01*
X6757550Y-9570731D01*
X6764139Y-9559319D01*
X6765111Y-9555692D01*
X6766021Y-9554199D01*
X6766501Y-9552447D01*
X6766819Y-9551925D01*
X6768137Y-9550727D01*
X6768747Y-9549726D01*
X6769802Y-9549214D01*
X6771989Y-9547226D01*
X6774902Y-9546736D01*
X6775031Y-9546673D01*
X6775164Y-9546652D01*
X6775626Y-9546579D01*
X6775744Y-9546595D01*
X6778880Y-9546068D01*
X6782023Y-9547414D01*
X6782554Y-9547484D01*
X6782934Y-9547804D01*
X6785302Y-9548819D01*
X6786856Y-9551114D01*
X6787894Y-9551990D01*
X6788265Y-9553196D01*
X6789217Y-9554603D01*
X6789361Y-9555052D01*
X6789900Y-9558509D01*
X6789949Y-9558668D01*
X6789933Y-9558723D01*
X6789950Y-9558829D01*
X6789950Y-9757387D01*
X6789448Y-9760881D01*
X6789000Y-9762407D01*
X6785259Y-9768252D01*
X6784114Y-9769252D01*
X6781197Y-9771151D01*
X6775959Y-9773594D01*
X6767593Y-9781959D01*
X6762593Y-9792682D01*
X6762593Y-9792683D01*
X6761950Y-9797568D01*
X6761950Y-9842432D01*
X6762593Y-9847317D01*
X6763585Y-9849445D01*
X6767047Y-9856868D01*
X6767068Y-9856914D01*
X6767068Y-9856914D01*
X6767593Y-9858040D01*
X6767593Y-9858040D01*
X6775960Y-9866407D01*
X6786683Y-9871407D01*
X6791568Y-9872050D01*
X6791568Y-9872050D01*
X6826431Y-9872050D01*
X6826432Y-9872050D01*
X6828060Y-9871836D01*
X6831317Y-9871407D01*
X6842040Y-9866407D01*
X6848148Y-9860299D01*
X6849170Y-9859384D01*
X6851456Y-9857556D01*
X6851456Y-9857556D01*
X6852317Y-9856868D01*
X6858782Y-9854218D01*
X6865652Y-9855484D01*
X6866303Y-9855812D01*
X6870083Y-9858760D01*
X6870560Y-9859311D01*
X6870604Y-9859326D01*
X6872287Y-9860734D01*
X6877960Y-9866407D01*
X6888683Y-9871407D01*
X6893568Y-9872050D01*
X6893568Y-9872050D01*
X6928431Y-9872050D01*
X6928432Y-9872050D01*
X6930060Y-9871836D01*
X6933317Y-9871407D01*
X6944040Y-9866407D01*
X6952406Y-9858040D01*
X6956416Y-9849443D01*
X6957208Y-9848002D01*
X6959010Y-9845186D01*
X6964281Y-9840601D01*
X6965142Y-9840205D01*
X6970315Y-9839075D01*
X7008717Y-9839075D01*
X7012211Y-9839577D01*
X7013710Y-9840018D01*
X7015209Y-9840981D01*
X7016917Y-9841482D01*
X7019585Y-9843792D01*
X7019704Y-9843929D01*
X7022452Y-9849415D01*
X7022616Y-9850171D01*
X7022900Y-9852808D01*
X7022900Y-9875686D01*
X7022900Y-9875687D01*
X7023425Y-9881462D01*
X7023425Y-9881462D01*
X7023541Y-9882744D01*
X7023541Y-9882744D01*
X7023541Y-9882745D01*
X7024014Y-9884262D01*
X7027540Y-9895577D01*
X7027540Y-9895577D01*
X7028587Y-9898937D01*
X7028602Y-9898986D01*
X7037403Y-9913544D01*
X7049431Y-9925572D01*
X7049431Y-9925572D01*
X7049431Y-9925572D01*
X7049432Y-9925573D01*
X7049565Y-9925669D01*
X7049856Y-9925829D01*
X7063989Y-9934373D01*
X7080230Y-9939434D01*
X7087288Y-9940075D01*
X7087289Y-9940075D01*
X7273611Y-9940075D01*
X7273612Y-9940075D01*
X7280670Y-9939434D01*
X7296911Y-9934373D01*
X7311468Y-9925572D01*
X7323497Y-9913544D01*
X7332298Y-9898986D01*
X7337359Y-9882745D01*
X7338000Y-9875687D01*
X7338000Y-9764363D01*
X7337359Y-9757305D01*
X7332298Y-9741064D01*
X7323497Y-9726507D01*
X7323497Y-9726506D01*
X7323497Y-9726506D01*
X7311469Y-9714478D01*
X7311469Y-9714478D01*
X7311468Y-9714478D01*
X7311359Y-9714411D01*
X7311359Y-9714411D01*
X7307356Y-9711992D01*
X7296911Y-9705677D01*
X7296001Y-9705394D01*
X7294664Y-9704554D01*
X7293373Y-9704225D01*
X7292815Y-9703875D01*
X7291874Y-9703248D01*
X7291081Y-9702301D01*
X7290622Y-9702013D01*
X7289856Y-9701191D01*
X7289416Y-9700315D01*
X7287386Y-9697893D01*
X7287110Y-9695719D01*
X7286723Y-9694946D01*
X7286855Y-9693707D01*
X7286506Y-9690961D01*
X7287332Y-9689228D01*
X7287463Y-9687999D01*
X7288580Y-9686610D01*
X7289511Y-9684657D01*
X7289686Y-9684462D01*
X7290974Y-9683634D01*
X7291843Y-9682554D01*
X7293530Y-9681991D01*
X7295235Y-9680895D01*
X7296911Y-9680373D01*
X7311468Y-9671572D01*
X7323497Y-9659544D01*
X7332298Y-9644986D01*
X7337359Y-9628745D01*
X7338000Y-9621687D01*
X7338000Y-9510363D01*
X7337359Y-9503305D01*
X7332298Y-9487064D01*
X7323497Y-9472507D01*
X7323497Y-9472506D01*
X7323497Y-9472506D01*
X7311469Y-9460478D01*
X7311469Y-9460478D01*
X7311468Y-9460478D01*
X7309826Y-9459485D01*
X7309826Y-9459485D01*
X7296911Y-9451677D01*
X7296001Y-9451394D01*
X7294664Y-9450554D01*
X7293373Y-9450225D01*
X7292815Y-9449875D01*
X7291874Y-9449248D01*
X7291081Y-9448301D01*
X7290622Y-9448013D01*
X7289856Y-9447191D01*
X7289416Y-9446315D01*
X7287386Y-9443893D01*
X7287110Y-9441719D01*
X7286723Y-9440946D01*
X7286855Y-9439707D01*
X7286506Y-9436961D01*
X7287332Y-9435228D01*
X7287463Y-9433999D01*
X7288580Y-9432610D01*
X7289511Y-9430657D01*
X7289686Y-9430462D01*
X7290974Y-9429634D01*
X7291843Y-9428554D01*
X7293530Y-9427991D01*
X7295235Y-9426895D01*
X7296911Y-9426373D01*
X7311468Y-9417572D01*
X7323497Y-9405544D01*
X7332298Y-9390986D01*
X7337359Y-9374745D01*
X7338000Y-9367687D01*
X7338000Y-9256363D01*
X7337359Y-9249305D01*
X7332298Y-9233064D01*
X7323497Y-9218507D01*
X7323497Y-9218506D01*
X7323497Y-9218506D01*
X7311469Y-9206478D01*
X7308933Y-9204945D01*
X7308933Y-9204945D01*
X7301474Y-9200436D01*
X7296911Y-9197677D01*
X7296001Y-9197394D01*
X7294664Y-9196554D01*
X7293373Y-9196225D01*
X7292815Y-9195875D01*
X7291874Y-9195248D01*
X7291081Y-9194301D01*
X7290622Y-9194013D01*
X7289856Y-9193191D01*
X7289416Y-9192315D01*
X7287386Y-9189893D01*
X7287110Y-9187719D01*
X7286723Y-9186946D01*
X7286855Y-9185707D01*
X7286506Y-9182961D01*
X7287332Y-9181228D01*
X7287463Y-9179999D01*
X7288580Y-9178610D01*
X7289511Y-9176657D01*
X7289686Y-9176462D01*
X7290974Y-9175634D01*
X7291843Y-9174554D01*
X7293530Y-9173991D01*
X7295235Y-9172895D01*
X7296911Y-9172373D01*
X7311468Y-9163572D01*
X7323497Y-9151544D01*
X7332298Y-9136986D01*
X7337359Y-9120745D01*
X7338000Y-9113687D01*
X7338000Y-9002363D01*
X7337359Y-8995305D01*
X7332298Y-8979064D01*
X7323497Y-8964507D01*
X7323497Y-8964506D01*
X7323497Y-8964506D01*
X7311469Y-8952478D01*
X7302700Y-8947177D01*
X7296911Y-8943677D01*
X7294894Y-8943049D01*
X7293870Y-8942504D01*
X7293617Y-8942257D01*
X7292815Y-8941875D01*
X7291874Y-8941248D01*
X7287386Y-8935893D01*
X7286506Y-8928961D01*
X7289511Y-8922657D01*
X7289686Y-8922462D01*
X7295235Y-8918895D01*
X7296911Y-8918373D01*
X7311468Y-8909572D01*
X7323497Y-8897544D01*
X7332298Y-8882986D01*
X7337359Y-8866745D01*
X7338000Y-8859687D01*
X7338000Y-8748363D01*
X7337359Y-8741305D01*
X7333133Y-8727745D01*
X7332942Y-8726556D01*
X7332573Y-8724261D01*
X7332555Y-8723130D01*
X7334413Y-8716395D01*
X7339617Y-8711733D01*
X7346515Y-8710625D01*
X7347345Y-8710730D01*
X7350526Y-8711575D01*
X7350681Y-8711639D01*
X7350681Y-8711639D01*
X7363411Y-8715050D01*
X7363411Y-8715050D01*
X7376589Y-8715050D01*
X7376589Y-8715050D01*
X7389319Y-8711639D01*
X7400731Y-8705050D01*
X7403522Y-8702260D01*
X7406346Y-8700146D01*
X7407339Y-8699603D01*
X7414166Y-8698118D01*
X7420713Y-8700559D01*
X7424900Y-8706152D01*
X7424900Y-8706153D01*
X7425168Y-8706872D01*
X7425950Y-8711205D01*
X7425950Y-9178789D01*
X7428543Y-9185050D01*
X7428850Y-9185791D01*
X7436193Y-9193134D01*
X7436197Y-9193138D01*
X7649209Y-9406150D01*
X7656211Y-9409050D01*
X7663789Y-9409050D01*
X8185190Y-9409050D01*
X8188249Y-9409490D01*
X8188683Y-9409552D01*
X8191208Y-9410293D01*
X8196482Y-9413423D01*
X8612856Y-9829797D01*
X8612857Y-9829798D01*
X8613168Y-9830109D01*
X8613168Y-9830109D01*
X8613875Y-9830816D01*
X8619234Y-9836175D01*
X8626236Y-9839075D01*
X8626236Y-9839075D01*
X8626236Y-9839075D01*
X8627433Y-9839313D01*
X8627418Y-9839391D01*
X8628711Y-9839577D01*
X8630210Y-9840018D01*
X8636086Y-9843792D01*
X8636088Y-9843795D01*
X8636088Y-9843795D01*
X8636088Y-9843795D01*
X8636204Y-9843929D01*
X8638952Y-9849415D01*
X8639116Y-9850171D01*
X8639400Y-9852808D01*
X8639400Y-9875686D01*
X8639400Y-9875687D01*
X8639925Y-9881462D01*
X8639925Y-9881462D01*
X8640041Y-9882744D01*
X8640041Y-9882744D01*
X8640041Y-9882745D01*
X8640514Y-9884262D01*
X8644040Y-9895577D01*
X8644040Y-9895577D01*
X8645087Y-9898937D01*
X8645102Y-9898986D01*
X8653903Y-9913544D01*
X8665931Y-9925572D01*
X8665931Y-9925572D01*
X8665932Y-9925572D01*
X8665932Y-9925573D01*
X8666065Y-9925669D01*
X8666356Y-9925829D01*
X8680489Y-9934373D01*
X8696730Y-9939434D01*
X8703788Y-9940075D01*
X8703789Y-9940075D01*
X8890111Y-9940075D01*
X8890112Y-9940075D01*
X8897170Y-9939434D01*
X8913411Y-9934373D01*
X8927969Y-9925572D01*
X8939997Y-9913544D01*
X8948016Y-9900278D01*
X8949025Y-9899274D01*
X8949513Y-9898287D01*
X8950253Y-9897549D01*
X8950545Y-9897282D01*
X8951087Y-9896785D01*
X8951943Y-9896365D01*
X8952251Y-9896059D01*
X8953173Y-9895506D01*
X8954287Y-9895216D01*
X8957360Y-9893709D01*
X8959241Y-9893927D01*
X8959935Y-9893747D01*
X8961167Y-9894150D01*
X8964301Y-9894513D01*
X8965652Y-9895620D01*
X8966574Y-9895922D01*
X8967680Y-9897282D01*
X8969702Y-9898937D01*
X8969774Y-9899042D01*
X8970403Y-9900629D01*
X8970984Y-9901342D01*
X8971101Y-9902385D01*
X8971781Y-9904098D01*
X8971798Y-9904204D01*
X8971950Y-9906141D01*
X8971950Y-9932977D01*
X8971448Y-9936471D01*
X8970706Y-9938995D01*
X8967577Y-9944269D01*
X8927789Y-9984057D01*
X8925323Y-9985903D01*
X8924964Y-9986172D01*
X8922655Y-9987433D01*
X8916712Y-9988950D01*
X8547023Y-9988950D01*
X8543530Y-9988448D01*
X8541005Y-9987707D01*
X8535731Y-9984577D01*
X8461323Y-9910169D01*
X8459207Y-9907343D01*
X8457946Y-9905032D01*
X8456429Y-9899103D01*
X8456403Y-9875686D01*
X8456282Y-9764465D01*
X8456282Y-9764465D01*
X7933124Y-9765036D01*
X7933124Y-9765036D01*
X7933124Y-9765036D01*
X7933124Y-9765036D01*
X7929630Y-9764537D01*
X7928058Y-9764078D01*
X7927108Y-9763800D01*
X7921820Y-9760666D01*
X7887494Y-9726340D01*
X7885379Y-9723515D01*
X7884233Y-9721417D01*
X7882734Y-9716137D01*
X7882726Y-9715983D01*
X7882779Y-9713993D01*
X7882860Y-9713244D01*
X7882860Y-9713244D01*
X7882860Y-9509147D01*
X7882251Y-9503484D01*
X7882185Y-9503306D01*
X7880469Y-9498705D01*
X7879528Y-9496182D01*
X7877473Y-9490673D01*
X7877473Y-9490672D01*
X7875996Y-9488699D01*
X7869279Y-9479726D01*
X7868760Y-9479338D01*
X7863041Y-9475057D01*
X7863041Y-9475057D01*
X7862048Y-9474313D01*
X7858333Y-9471532D01*
X7858333Y-9471532D01*
X7845642Y-9466799D01*
X7845572Y-9466766D01*
X7845326Y-9466708D01*
X7844861Y-9466683D01*
X7843924Y-9466582D01*
X7839859Y-9466145D01*
X7839859Y-9466145D01*
X7775762Y-9466145D01*
X7775759Y-9466145D01*
X7775727Y-9466149D01*
X7770098Y-9466754D01*
X7757287Y-9471532D01*
X7757287Y-9471532D01*
X7746341Y-9479726D01*
X7738147Y-9490672D01*
X7737496Y-9492419D01*
X7733435Y-9503306D01*
X7733369Y-9503484D01*
X7733368Y-9503485D01*
X7732760Y-9509144D01*
X7732760Y-9509145D01*
X7732760Y-9713243D01*
X7732760Y-9713244D01*
X7733369Y-9718906D01*
X7737406Y-9729731D01*
X7737598Y-9730246D01*
X7738147Y-9731717D01*
X7738147Y-9731718D01*
X7746709Y-9743155D01*
X7746927Y-9743295D01*
X7747472Y-9743973D01*
X7748430Y-9745253D01*
X7748782Y-9746195D01*
X7748831Y-9746267D01*
X7749489Y-9747710D01*
X7749576Y-9748325D01*
X7750872Y-9751799D01*
X7750389Y-9754023D01*
X7750475Y-9754627D01*
X7750060Y-9755533D01*
X7749387Y-9758627D01*
X7748014Y-9760001D01*
X7747565Y-9760980D01*
X7746088Y-9761926D01*
X7744448Y-9763567D01*
X7744148Y-9763731D01*
X7742692Y-9764103D01*
X7741683Y-9764750D01*
X7740171Y-9764748D01*
X7738217Y-9765249D01*
X7475543Y-9765535D01*
X7475543Y-9765535D01*
X7473171Y-10040874D01*
X7473171Y-10040874D01*
X7473171Y-10040874D01*
X7472639Y-10044363D01*
X7472185Y-10045859D01*
X7468359Y-10051703D01*
X7468200Y-10051838D01*
X7462744Y-10054527D01*
X7462035Y-10054678D01*
X7459450Y-10054950D01*
X6564233Y-10054950D01*
X6564232Y-10054950D01*
X6564232Y-10054950D01*
X6560739Y-10054448D01*
X6559239Y-10054007D01*
X6553364Y-10050233D01*
X6553361Y-10050229D01*
X6553361Y-10050229D01*
X6553361Y-10050229D01*
X6553246Y-10050096D01*
X6550498Y-10044608D01*
X6550333Y-10043852D01*
X6550050Y-10041217D01*
X6550050Y-8069233D01*
X6550552Y-8065739D01*
X6550993Y-8064239D01*
X6554767Y-8058364D01*
X6554770Y-8058362D01*
X6554770Y-8058362D01*
X6554904Y-8058246D01*
X6560392Y-8055498D01*
X6561148Y-8055333D01*
X6563783Y-8055050D01*
X10335767Y-8055050D01*
X10339261Y-8055552D01*
G37*
%TD.AperFunction*%
%TA.AperFunction,Conductor*%
G36*
X6757592Y-8194552D02*
G01*
X6759092Y-8194993D01*
X6760592Y-8195957D01*
X6762302Y-8196459D01*
X6764970Y-8198770D01*
X6765933Y-8199882D01*
X6767800Y-8202762D01*
X6768481Y-8204221D01*
X6772593Y-8213040D01*
X6780960Y-8221406D01*
X6791683Y-8226407D01*
X6796568Y-8227050D01*
X6796568Y-8227050D01*
X6831431Y-8227050D01*
X6831432Y-8227050D01*
X6833060Y-8226836D01*
X6836317Y-8226407D01*
X6847040Y-8221406D01*
X6853148Y-8215299D01*
X6854170Y-8214384D01*
X6856456Y-8212556D01*
X6856456Y-8212556D01*
X6857317Y-8211867D01*
X6863782Y-8209218D01*
X6870652Y-8210484D01*
X6871303Y-8210812D01*
X6875083Y-8213760D01*
X6875560Y-8214311D01*
X6875604Y-8214326D01*
X6877287Y-8215734D01*
X6882960Y-8221406D01*
X6893683Y-8226407D01*
X6898568Y-8227050D01*
X6898568Y-8227050D01*
X6898569Y-8227050D01*
X6933802Y-8227050D01*
X6935710Y-8227198D01*
X6938199Y-8227586D01*
X6943421Y-8229694D01*
X6943663Y-8229864D01*
X6944462Y-8230536D01*
X6944520Y-8230563D01*
X6944548Y-8230608D01*
X6945299Y-8231239D01*
X7018007Y-8303948D01*
X7020122Y-8306773D01*
X7021383Y-8309082D01*
X7022900Y-8315025D01*
X7022900Y-8351686D01*
X7022900Y-8351687D01*
X7022900Y-8351687D01*
X7023425Y-8357461D01*
X7023541Y-8358744D01*
X7023541Y-8358744D01*
X7023541Y-8358745D01*
X7024014Y-8360262D01*
X7024015Y-8360264D01*
X7028602Y-8374985D01*
X7037236Y-8389268D01*
X7037403Y-8389544D01*
X7037403Y-8389544D01*
X7037403Y-8389544D01*
X7049431Y-8401572D01*
X7049431Y-8401572D01*
X7049431Y-8401572D01*
X7049432Y-8401573D01*
X7049565Y-8401668D01*
X7049854Y-8401828D01*
X7056231Y-8405683D01*
X7056899Y-8406087D01*
X7059560Y-8408993D01*
X7063989Y-8410373D01*
X7063989Y-8410373D01*
X7063990Y-8410373D01*
X7063990Y-8410373D01*
X7064898Y-8410656D01*
X7066234Y-8411496D01*
X7067525Y-8411824D01*
X7068083Y-8412174D01*
X7069025Y-8412802D01*
X7069818Y-8413748D01*
X7070276Y-8414035D01*
X7071042Y-8414857D01*
X7071482Y-8415734D01*
X7073513Y-8418157D01*
X7073789Y-8420330D01*
X7074177Y-8421101D01*
X7074045Y-8422341D01*
X7074394Y-8425088D01*
X7073568Y-8426820D01*
X7073437Y-8428049D01*
X7072319Y-8429440D01*
X7071387Y-8431395D01*
X7071385Y-8431398D01*
X7071210Y-8431592D01*
X7069924Y-8432419D01*
X7069059Y-8433494D01*
X7067373Y-8434057D01*
X7065665Y-8435155D01*
X7063990Y-8435677D01*
X7063989Y-8435677D01*
X7049431Y-8444478D01*
X7049431Y-8444478D01*
X7037403Y-8456506D01*
X7028602Y-8471064D01*
X7023541Y-8487306D01*
X7022900Y-8494363D01*
X7022900Y-8605687D01*
X7023425Y-8611461D01*
X7023541Y-8612744D01*
X7023541Y-8612744D01*
X7023541Y-8612745D01*
X7024014Y-8614262D01*
X7024015Y-8614264D01*
X7028602Y-8628985D01*
X7028602Y-8628986D01*
X7036233Y-8641608D01*
X7037403Y-8643544D01*
X7049431Y-8655572D01*
X7049431Y-8655572D01*
X7049431Y-8655572D01*
X7049432Y-8655573D01*
X7049565Y-8655668D01*
X7049854Y-8655828D01*
X7055693Y-8659358D01*
X7056899Y-8660087D01*
X7059560Y-8662993D01*
X7063989Y-8664373D01*
X7063989Y-8664373D01*
X7063990Y-8664373D01*
X7063990Y-8664373D01*
X7064898Y-8664656D01*
X7066234Y-8665496D01*
X7067525Y-8665824D01*
X7068083Y-8666174D01*
X7069025Y-8666802D01*
X7069818Y-8667748D01*
X7070276Y-8668035D01*
X7071042Y-8668857D01*
X7071482Y-8669734D01*
X7073513Y-8672157D01*
X7073789Y-8674330D01*
X7074177Y-8675101D01*
X7074045Y-8676341D01*
X7074394Y-8679088D01*
X7073568Y-8680820D01*
X7073437Y-8682049D01*
X7072319Y-8683440D01*
X7071387Y-8685395D01*
X7071385Y-8685398D01*
X7071210Y-8685592D01*
X7069924Y-8686419D01*
X7069059Y-8687494D01*
X7067373Y-8688057D01*
X7065665Y-8689155D01*
X7063990Y-8689677D01*
X7063989Y-8689677D01*
X7049431Y-8698478D01*
X7049431Y-8698478D01*
X7037403Y-8710506D01*
X7028602Y-8725064D01*
X7023541Y-8741306D01*
X7022900Y-8748363D01*
X7022900Y-8770792D01*
X7022900Y-8770793D01*
X7022900Y-8770793D01*
X7022397Y-8774286D01*
X7021957Y-8775786D01*
X7018183Y-8781661D01*
X7018179Y-8781664D01*
X7018179Y-8781664D01*
X7018179Y-8781664D01*
X7018046Y-8781779D01*
X7012560Y-8784527D01*
X7011804Y-8784691D01*
X7009167Y-8784975D01*
X6979024Y-8784975D01*
X6979023Y-8784975D01*
X6979023Y-8784975D01*
X6975530Y-8784473D01*
X6974004Y-8784025D01*
X6968159Y-8780284D01*
X6967159Y-8779139D01*
X6965260Y-8776223D01*
X6964357Y-8774286D01*
X6961406Y-8767960D01*
X6955301Y-8761854D01*
X6954385Y-8760831D01*
X6951868Y-8757683D01*
X6949218Y-8751218D01*
X6949235Y-8751128D01*
X6950484Y-8744347D01*
X6950813Y-8743696D01*
X6953759Y-8739917D01*
X6954311Y-8739439D01*
X6954324Y-8739402D01*
X6955741Y-8737706D01*
X6956393Y-8737054D01*
X6961406Y-8732040D01*
X6966407Y-8721317D01*
X6967050Y-8716432D01*
X6967050Y-8681568D01*
X6967050Y-8681568D01*
X6966407Y-8676683D01*
X6966407Y-8676683D01*
X6961406Y-8665960D01*
X6953040Y-8657594D01*
X6953040Y-8657593D01*
X6950005Y-8656178D01*
X6946569Y-8653153D01*
X6937432Y-8651950D01*
X6937432Y-8651950D01*
X6937432Y-8651950D01*
X6892568Y-8651950D01*
X6892568Y-8651950D01*
X6892568Y-8651950D01*
X6887683Y-8652593D01*
X6887682Y-8652593D01*
X6876959Y-8657594D01*
X6868593Y-8665959D01*
X6863593Y-8676682D01*
X6863593Y-8676683D01*
X6862950Y-8681568D01*
X6862950Y-8687674D01*
X6862950Y-8687674D01*
X6862950Y-8687674D01*
X6862448Y-8691168D01*
X6861706Y-8693692D01*
X6858577Y-8698966D01*
X6803183Y-8754360D01*
X6800358Y-8756475D01*
X6798706Y-8757377D01*
X6792468Y-8758890D01*
X6791427Y-8758865D01*
X6788513Y-8758446D01*
X6783831Y-8757192D01*
X6783831Y-8757192D01*
X6783831Y-8757192D01*
X6770653Y-8757192D01*
X6757923Y-8760603D01*
X6757922Y-8760603D01*
X6746511Y-8767191D01*
X6746510Y-8767192D01*
X6746510Y-8767192D01*
X6741479Y-8772223D01*
X6741479Y-8772224D01*
X6738653Y-8774339D01*
X6737661Y-8774881D01*
X6730833Y-8776366D01*
X6724287Y-8773924D01*
X6720100Y-8768331D01*
X6720100Y-8768331D01*
X6719831Y-8767611D01*
X6719050Y-8763279D01*
X6719050Y-8694810D01*
X6719552Y-8691317D01*
X6720293Y-8688792D01*
X6723423Y-8683518D01*
X6759881Y-8647060D01*
X6801150Y-8605791D01*
X6804050Y-8598789D01*
X6804050Y-8591211D01*
X6804050Y-8590212D01*
X6804050Y-8589994D01*
X6804050Y-8589988D01*
X6804050Y-8554233D01*
X6804247Y-8552866D01*
X6804552Y-8550739D01*
X6804993Y-8549240D01*
X6808767Y-8543364D01*
X6808770Y-8543362D01*
X6808770Y-8543362D01*
X6808904Y-8543246D01*
X6814392Y-8540498D01*
X6815148Y-8540333D01*
X6817783Y-8540050D01*
X6837387Y-8540050D01*
X6838173Y-8539812D01*
X6839990Y-8539450D01*
X6841626Y-8539125D01*
X6842235Y-8539065D01*
X6842239Y-8539064D01*
X6843331Y-8538790D01*
X6844351Y-8537865D01*
X6849455Y-8534455D01*
X6853887Y-8527823D01*
X6853887Y-8527823D01*
X6853887Y-8527823D01*
X6854103Y-8526736D01*
X6854117Y-8526709D01*
X6854125Y-8526626D01*
X6854284Y-8525827D01*
X6855007Y-8522190D01*
X6855050Y-8521993D01*
X6855050Y-8418230D01*
X6855050Y-8418025D01*
X6855050Y-8418025D01*
X6853887Y-8412177D01*
X6853887Y-8412177D01*
X6849455Y-8405545D01*
X6845696Y-8403033D01*
X6843838Y-8401792D01*
X6843364Y-8401402D01*
X6842823Y-8401113D01*
X6842823Y-8401113D01*
X6836975Y-8399950D01*
X6836975Y-8399950D01*
X6733025Y-8399950D01*
X6733025Y-8399950D01*
X6727177Y-8401113D01*
X6727177Y-8401113D01*
X6727177Y-8401113D01*
X6727176Y-8401113D01*
X6727176Y-8401114D01*
X6720545Y-8405545D01*
X6716114Y-8412176D01*
X6716113Y-8412177D01*
X6716113Y-8412177D01*
X6716113Y-8412177D01*
X6716113Y-8412177D01*
X6714950Y-8418025D01*
X6714950Y-8521975D01*
X6716113Y-8527823D01*
X6716113Y-8527823D01*
X6716113Y-8527823D01*
X6716113Y-8527823D01*
X6720545Y-8534455D01*
X6727176Y-8538886D01*
X6727177Y-8538887D01*
X6727177Y-8538887D01*
X6732261Y-8539898D01*
X6732534Y-8539970D01*
X6733025Y-8540050D01*
X6733025Y-8540050D01*
X6733025Y-8540050D01*
X6751767Y-8540050D01*
X6755261Y-8540552D01*
X6756760Y-8540993D01*
X6762635Y-8544767D01*
X6762638Y-8544770D01*
X6762638Y-8544770D01*
X6762638Y-8544770D01*
X6762754Y-8544904D01*
X6765502Y-8550390D01*
X6765666Y-8551146D01*
X6765950Y-8553783D01*
X6765950Y-8580190D01*
X6765950Y-8580190D01*
X6765950Y-8580190D01*
X6765448Y-8583684D01*
X6764706Y-8586208D01*
X6761577Y-8591482D01*
X6683850Y-8669209D01*
X6683850Y-8669209D01*
X6683850Y-8669209D01*
X6680950Y-8676211D01*
X6680950Y-8823458D01*
X6681169Y-8823986D01*
X6683850Y-8830460D01*
X6691149Y-8837758D01*
X6691154Y-8837763D01*
X6735776Y-8882386D01*
X6737891Y-8885211D01*
X6738793Y-8886862D01*
X6740306Y-8893100D01*
X6740282Y-8894142D01*
X6739863Y-8897055D01*
X6738608Y-8901737D01*
X6738608Y-8914916D01*
X6742019Y-8927646D01*
X6742822Y-8929036D01*
X6743864Y-8931640D01*
X6744133Y-8932312D01*
X6744501Y-8933829D01*
X6744502Y-8933831D01*
X6744169Y-8940810D01*
X6744169Y-8940812D01*
X6743969Y-8941389D01*
X6741175Y-8945941D01*
X6738945Y-8948252D01*
X6738790Y-8948411D01*
X6731464Y-8955737D01*
X6724875Y-8967149D01*
X6724875Y-8967149D01*
X6724686Y-8967852D01*
X6723655Y-8971701D01*
X6723655Y-8971701D01*
X6723655Y-8971701D01*
X6721464Y-8979879D01*
X6721464Y-8993058D01*
X6724485Y-9004333D01*
X6724485Y-9004334D01*
X6724834Y-9005635D01*
X6724875Y-9005787D01*
X6724875Y-9005787D01*
X6730478Y-9015492D01*
X6730568Y-9015660D01*
X6730625Y-9015934D01*
X6731694Y-9018603D01*
X6731778Y-9018950D01*
X6732062Y-9020122D01*
X6731959Y-9022279D01*
X6732005Y-9022497D01*
X6731941Y-9022666D01*
X6731730Y-9027101D01*
X6731730Y-9027101D01*
X6731440Y-9027939D01*
X6728490Y-9032651D01*
X6720720Y-9040421D01*
X6720719Y-9040422D01*
X6714130Y-9051835D01*
X6711763Y-9060668D01*
X6711763Y-9060668D01*
X6711377Y-9062109D01*
X6710719Y-9064564D01*
X6710719Y-9077743D01*
X6710874Y-9078319D01*
X6711332Y-9080031D01*
X6711332Y-9080031D01*
X6712574Y-9084667D01*
X6712993Y-9088171D01*
X6712956Y-9089734D01*
X6712413Y-9091432D01*
X6712371Y-9093215D01*
X6710829Y-9096389D01*
X6710332Y-9097123D01*
X6706263Y-9100912D01*
X6699269Y-9104950D01*
X6699268Y-9104950D01*
X6699268Y-9104951D01*
X6689951Y-9114268D01*
X6689950Y-9114268D01*
X6689949Y-9114270D01*
X6683361Y-9125681D01*
X6683361Y-9125681D01*
X6683361Y-9125681D01*
X6683361Y-9125681D01*
X6681148Y-9133940D01*
X6680730Y-9135499D01*
X6679950Y-9138411D01*
X6679950Y-9151589D01*
X6680675Y-9154294D01*
X6683361Y-9164319D01*
X6685320Y-9167713D01*
X6685320Y-9167713D01*
X6686864Y-9170386D01*
X6689950Y-9175731D01*
X6699269Y-9185050D01*
X6703206Y-9187323D01*
X6705705Y-9189288D01*
X6705980Y-9189505D01*
X6707279Y-9190867D01*
X6710355Y-9196500D01*
X6710600Y-9197512D01*
X6710950Y-9200436D01*
X6710950Y-9282789D01*
X6713796Y-9289661D01*
X6713850Y-9289791D01*
X6721149Y-9297090D01*
X6721153Y-9297094D01*
X6853259Y-9429200D01*
X6855374Y-9432025D01*
X6856482Y-9434055D01*
X6857988Y-9439478D01*
X6858000Y-9439772D01*
X6857954Y-9440820D01*
X6857967Y-9440882D01*
X6857949Y-9440931D01*
X6857939Y-9441160D01*
X6857977Y-9441163D01*
X6857950Y-9441569D01*
X6857950Y-9476432D01*
X6858593Y-9481317D01*
X6858593Y-9481317D01*
X6863593Y-9492040D01*
X6869713Y-9498160D01*
X6870634Y-9499189D01*
X6873136Y-9502322D01*
X6875782Y-9508789D01*
X6874512Y-9515659D01*
X6874511Y-9515661D01*
X6874181Y-9516314D01*
X6871238Y-9520085D01*
X6870688Y-9520561D01*
X6870676Y-9520599D01*
X6869259Y-9522294D01*
X6863594Y-9527959D01*
X6863593Y-9527959D01*
X6858593Y-9538682D01*
X6858593Y-9538683D01*
X6857950Y-9543568D01*
X6857950Y-9578432D01*
X6858593Y-9583317D01*
X6858597Y-9583331D01*
X6858664Y-9583470D01*
X6863593Y-9594040D01*
X6871960Y-9602407D01*
X6882683Y-9607407D01*
X6887568Y-9608050D01*
X6887568Y-9608050D01*
X6932431Y-9608050D01*
X6932432Y-9608050D01*
X6934744Y-9607746D01*
X6937317Y-9607407D01*
X6948040Y-9602407D01*
X6956406Y-9594040D01*
X6956496Y-9593849D01*
X6958427Y-9590896D01*
X6959478Y-9589703D01*
X6965338Y-9585986D01*
X6966799Y-9585563D01*
X6970245Y-9585075D01*
X7008717Y-9585075D01*
X7012211Y-9585577D01*
X7013710Y-9586018D01*
X7015209Y-9586981D01*
X7016917Y-9587482D01*
X7019585Y-9589792D01*
X7019704Y-9589929D01*
X7022452Y-9595415D01*
X7022616Y-9596171D01*
X7022900Y-9598808D01*
X7022900Y-9621687D01*
X7022931Y-9622025D01*
X7022931Y-9622027D01*
X7023158Y-9624530D01*
X7023448Y-9627722D01*
X7023490Y-9628184D01*
X7023510Y-9628611D01*
X7023665Y-9629269D01*
X7023840Y-9629703D01*
X7028602Y-9644985D01*
X7028602Y-9644985D01*
X7028602Y-9644986D01*
X7036967Y-9658822D01*
X7037403Y-9659544D01*
X7049431Y-9671572D01*
X7049431Y-9671572D01*
X7049431Y-9671572D01*
X7049432Y-9671573D01*
X7049565Y-9671668D01*
X7049854Y-9671828D01*
X7056899Y-9676087D01*
X7059560Y-9678993D01*
X7063989Y-9680373D01*
X7063989Y-9680373D01*
X7063990Y-9680373D01*
X7063990Y-9680373D01*
X7064898Y-9680656D01*
X7066234Y-9681496D01*
X7067525Y-9681824D01*
X7068083Y-9682174D01*
X7069025Y-9682802D01*
X7069818Y-9683748D01*
X7070276Y-9684035D01*
X7071042Y-9684857D01*
X7071482Y-9685734D01*
X7073513Y-9688157D01*
X7073789Y-9690330D01*
X7074177Y-9691101D01*
X7074045Y-9692341D01*
X7074394Y-9695088D01*
X7073568Y-9696820D01*
X7073437Y-9698049D01*
X7072319Y-9699440D01*
X7071387Y-9701395D01*
X7071385Y-9701398D01*
X7071210Y-9701592D01*
X7069924Y-9702419D01*
X7069059Y-9703494D01*
X7067373Y-9704057D01*
X7065665Y-9705155D01*
X7063990Y-9705677D01*
X7063989Y-9705677D01*
X7049431Y-9714478D01*
X7049431Y-9714478D01*
X7037403Y-9726506D01*
X7028602Y-9741064D01*
X7023541Y-9757306D01*
X7022900Y-9764363D01*
X7022900Y-9786792D01*
X7022900Y-9786793D01*
X7022900Y-9786793D01*
X7022397Y-9790286D01*
X7021957Y-9791786D01*
X7018183Y-9797661D01*
X7018179Y-9797664D01*
X7018179Y-9797664D01*
X7018179Y-9797664D01*
X7018046Y-9797779D01*
X7012560Y-9800527D01*
X7011804Y-9800691D01*
X7009167Y-9800975D01*
X6970908Y-9800975D01*
X6970908Y-9800975D01*
X6970908Y-9800975D01*
X6967414Y-9800473D01*
X6965914Y-9800032D01*
X6960037Y-9796255D01*
X6959083Y-9795154D01*
X6957216Y-9792275D01*
X6957101Y-9792026D01*
X6957100Y-9792025D01*
X6954637Y-9786744D01*
X6952406Y-9781960D01*
X6944040Y-9773594D01*
X6944040Y-9773593D01*
X6941005Y-9772178D01*
X6937569Y-9769153D01*
X6928432Y-9767950D01*
X6928432Y-9767950D01*
X6928432Y-9767950D01*
X6893568Y-9767950D01*
X6893568Y-9767950D01*
X6893568Y-9767950D01*
X6888683Y-9768593D01*
X6888682Y-9768593D01*
X6877959Y-9773594D01*
X6877959Y-9773594D01*
X6871840Y-9779713D01*
X6870811Y-9780634D01*
X6867541Y-9783246D01*
X6861074Y-9785892D01*
X6861054Y-9785894D01*
X6861003Y-9785899D01*
X6854734Y-9784902D01*
X6854367Y-9784740D01*
X6850615Y-9782168D01*
X6842040Y-9773594D01*
X6842040Y-9773594D01*
X6836159Y-9770851D01*
X6835292Y-9770190D01*
X6834590Y-9769976D01*
X6832853Y-9768329D01*
X6832082Y-9767741D01*
X6832077Y-9767745D01*
X6832054Y-9767719D01*
X6831947Y-9767638D01*
X6831670Y-9767312D01*
X6831628Y-9767255D01*
X6831603Y-9767233D01*
X6831390Y-9766982D01*
X6831334Y-9766855D01*
X6831234Y-9766720D01*
X6831264Y-9766698D01*
X6830099Y-9764078D01*
X6829023Y-9761889D01*
X6828851Y-9761939D01*
X6828538Y-9760858D01*
X6828050Y-9757412D01*
X6828050Y-9520211D01*
X6828049Y-9520208D01*
X6827868Y-9519771D01*
X6827868Y-9519771D01*
X6826165Y-9515659D01*
X6825150Y-9513209D01*
X6819791Y-9507850D01*
X6819084Y-9507144D01*
X6818917Y-9506977D01*
X6818915Y-9506974D01*
X6802882Y-9490941D01*
X6800767Y-9488116D01*
X6799865Y-9486464D01*
X6798352Y-9480226D01*
X6798376Y-9479185D01*
X6798795Y-9476271D01*
X6800050Y-9471589D01*
X6800050Y-9458411D01*
X6796639Y-9445681D01*
X6796639Y-9445681D01*
X6794987Y-9442820D01*
X6790050Y-9434269D01*
X6780731Y-9424950D01*
X6775025Y-9421655D01*
X6769319Y-9418361D01*
X6758642Y-9415500D01*
X6758025Y-9415335D01*
X6758025Y-9415335D01*
X6756590Y-9414950D01*
X6756589Y-9414950D01*
X6743411Y-9414950D01*
X6730681Y-9418361D01*
X6730681Y-9418361D01*
X6719270Y-9424949D01*
X6719268Y-9424950D01*
X6719268Y-9424951D01*
X6709951Y-9434268D01*
X6709950Y-9434268D01*
X6709949Y-9434270D01*
X6703361Y-9445681D01*
X6703361Y-9445681D01*
X6699950Y-9458411D01*
X6699950Y-9463790D01*
X6699950Y-9463790D01*
X6699950Y-9463790D01*
X6699524Y-9466750D01*
X6699448Y-9467284D01*
X6699129Y-9468369D01*
X6695351Y-9474247D01*
X6688996Y-9477149D01*
X6682081Y-9476155D01*
X6681383Y-9475836D01*
X6677766Y-9473325D01*
X6658943Y-9454502D01*
X6656827Y-9451676D01*
X6655567Y-9449367D01*
X6654050Y-9443425D01*
X6654050Y-8289810D01*
X6654552Y-8286316D01*
X6655293Y-8283792D01*
X6658423Y-8278518D01*
X6737998Y-8198942D01*
X6740823Y-8196827D01*
X6741952Y-8196211D01*
X6742252Y-8196018D01*
X6748956Y-8194050D01*
X6754099Y-8194050D01*
X6757592Y-8194552D01*
G37*
%TD.AperFunction*%
%TA.AperFunction,Conductor*%
G36*
X7481906Y-9127717D02*
G01*
X7487187Y-9132292D01*
X7488212Y-9134251D01*
X7488850Y-9135791D01*
X7488850Y-9135791D01*
X7494209Y-9141150D01*
X7494209Y-9141150D01*
X7679209Y-9326150D01*
X7686211Y-9329050D01*
X7693789Y-9329050D01*
X8320190Y-9329050D01*
X8323407Y-9329513D01*
X8323683Y-9329552D01*
X8326208Y-9330293D01*
X8331482Y-9333423D01*
X8574875Y-9576816D01*
X8574875Y-9576816D01*
X8580234Y-9582175D01*
X8587236Y-9585075D01*
X8625217Y-9585075D01*
X8628711Y-9585577D01*
X8630210Y-9586018D01*
X8636086Y-9589792D01*
X8636088Y-9589795D01*
X8636088Y-9589795D01*
X8636088Y-9589795D01*
X8636204Y-9589929D01*
X8638952Y-9595415D01*
X8639116Y-9596171D01*
X8639400Y-9598808D01*
X8639400Y-9621687D01*
X8639431Y-9622025D01*
X8639431Y-9622027D01*
X8639658Y-9624530D01*
X8639948Y-9627722D01*
X8639990Y-9628184D01*
X8640010Y-9628611D01*
X8640165Y-9629269D01*
X8640340Y-9629703D01*
X8645102Y-9644985D01*
X8645102Y-9644985D01*
X8645102Y-9644986D01*
X8653467Y-9658822D01*
X8653903Y-9659544D01*
X8665931Y-9671572D01*
X8665931Y-9671572D01*
X8665932Y-9671572D01*
X8665932Y-9671573D01*
X8666065Y-9671668D01*
X8666355Y-9671828D01*
X8673399Y-9676087D01*
X8676060Y-9678993D01*
X8680489Y-9680373D01*
X8680489Y-9680373D01*
X8680490Y-9680373D01*
X8680490Y-9680373D01*
X8681399Y-9680656D01*
X8682734Y-9681496D01*
X8684025Y-9681824D01*
X8684583Y-9682174D01*
X8685525Y-9682802D01*
X8686318Y-9683748D01*
X8686776Y-9684035D01*
X8687542Y-9684857D01*
X8687982Y-9685734D01*
X8690013Y-9688157D01*
X8690289Y-9690330D01*
X8690677Y-9691101D01*
X8690545Y-9692341D01*
X8690894Y-9695088D01*
X8690068Y-9696820D01*
X8689937Y-9698049D01*
X8688819Y-9699440D01*
X8687887Y-9701395D01*
X8687885Y-9701398D01*
X8687710Y-9701592D01*
X8686424Y-9702419D01*
X8685559Y-9703494D01*
X8683873Y-9704057D01*
X8682165Y-9705155D01*
X8680490Y-9705677D01*
X8680489Y-9705677D01*
X8665931Y-9714478D01*
X8665931Y-9714478D01*
X8653903Y-9726506D01*
X8645102Y-9741064D01*
X8640041Y-9757306D01*
X8639400Y-9764363D01*
X8639400Y-9770740D01*
X8639400Y-9770740D01*
X8639400Y-9770740D01*
X8638950Y-9773870D01*
X8638898Y-9774234D01*
X8638579Y-9775319D01*
X8634801Y-9781197D01*
X8628446Y-9784099D01*
X8621531Y-9783105D01*
X8620833Y-9782786D01*
X8617216Y-9780275D01*
X8218328Y-9381387D01*
X8218326Y-9381385D01*
X8210791Y-9373850D01*
X8207306Y-9372407D01*
X8203789Y-9370950D01*
X7674810Y-9370950D01*
X7674810Y-9370950D01*
X7674810Y-9370950D01*
X7671316Y-9370448D01*
X7668792Y-9369707D01*
X7663518Y-9366577D01*
X7468943Y-9172002D01*
X7466827Y-9169176D01*
X7465567Y-9166867D01*
X7464050Y-9160925D01*
X7464050Y-9140040D01*
X7464552Y-9136547D01*
X7464858Y-9135503D01*
X7465142Y-9135063D01*
X7465165Y-9134901D01*
X7465479Y-9134538D01*
X7468635Y-9129626D01*
X7474991Y-9126723D01*
X7481906Y-9127717D01*
G37*
%TD.AperFunction*%
%TD*%
M02*
