%TF.GenerationSoftware,KiCad,Pcbnew,10.0.3*%
%TF.CreationDate,2026-09-21T21:17:41+02:00*%
%TF.ProjectId,wulpus_pro_wifi_host,77756c70-7573-45f7-9072-6f5f77696669,v1.0.1*%
%TF.SameCoordinates,Original*%
%TF.FileFunction,AssemblyDrawing,Bot*%
%FSLAX45Y45*%
G04 Gerber Fmt 4.5, Leading zero omitted, Abs format (unit mm)*
G04 Created by KiCad (PCBNEW 10.0.3) date 2026-09-21 21:17:41*
%MOMM*%
%LPD*%
G01*
G04 APERTURE LIST*
%ADD10C,0.040000*%
%ADD11C,0.150000*%
%ADD12C,0.060000*%
%ADD13C,0.080000*%
%ADD14C,0.127000*%
%ADD15C,0.200000*%
%ADD16C,0.100000*%
G04 APERTURE END LIST*
D10*
X9382670Y-8463286D02*
X9370289Y-8454619D01*
X9382670Y-8448429D02*
X9356670Y-8448429D01*
X9356670Y-8448429D02*
X9356670Y-8458333D01*
X9356670Y-8458333D02*
X9357908Y-8460810D01*
X9357908Y-8460810D02*
X9359146Y-8462048D01*
X9359146Y-8462048D02*
X9361622Y-8463286D01*
X9361622Y-8463286D02*
X9365337Y-8463286D01*
X9365337Y-8463286D02*
X9367813Y-8462048D01*
X9367813Y-8462048D02*
X9369051Y-8460810D01*
X9369051Y-8460810D02*
X9370289Y-8458333D01*
X9370289Y-8458333D02*
X9370289Y-8448429D01*
X9382670Y-8488048D02*
X9382670Y-8473190D01*
X9382670Y-8480619D02*
X9356670Y-8480619D01*
X9356670Y-8480619D02*
X9360384Y-8478143D01*
X9360384Y-8478143D02*
X9362861Y-8475667D01*
X9362861Y-8475667D02*
X9364099Y-8473190D01*
X9365337Y-8510333D02*
X9382670Y-8510333D01*
X9355432Y-8504143D02*
X9374003Y-8497952D01*
X9374003Y-8497952D02*
X9374003Y-8514048D01*
X9957564Y-8246820D02*
X9966231Y-8234439D01*
X9972421Y-8246820D02*
X9972421Y-8220820D01*
X9972421Y-8220820D02*
X9962517Y-8220820D01*
X9962517Y-8220820D02*
X9960040Y-8222058D01*
X9960040Y-8222058D02*
X9958802Y-8223296D01*
X9958802Y-8223296D02*
X9957564Y-8225772D01*
X9957564Y-8225772D02*
X9957564Y-8229487D01*
X9957564Y-8229487D02*
X9958802Y-8231963D01*
X9958802Y-8231963D02*
X9960040Y-8233201D01*
X9960040Y-8233201D02*
X9962517Y-8234439D01*
X9962517Y-8234439D02*
X9972421Y-8234439D01*
X9932802Y-8246820D02*
X9947660Y-8246820D01*
X9940231Y-8246820D02*
X9940231Y-8220820D01*
X9940231Y-8220820D02*
X9942707Y-8224534D01*
X9942707Y-8224534D02*
X9945183Y-8227010D01*
X9945183Y-8227010D02*
X9947660Y-8228249D01*
X9910517Y-8220820D02*
X9915469Y-8220820D01*
X9915469Y-8220820D02*
X9917945Y-8222058D01*
X9917945Y-8222058D02*
X9919183Y-8223296D01*
X9919183Y-8223296D02*
X9921660Y-8227010D01*
X9921660Y-8227010D02*
X9922898Y-8231963D01*
X9922898Y-8231963D02*
X9922898Y-8241868D01*
X9922898Y-8241868D02*
X9921660Y-8244344D01*
X9921660Y-8244344D02*
X9920421Y-8245582D01*
X9920421Y-8245582D02*
X9917945Y-8246820D01*
X9917945Y-8246820D02*
X9912993Y-8246820D01*
X9912993Y-8246820D02*
X9910517Y-8245582D01*
X9910517Y-8245582D02*
X9909279Y-8244344D01*
X9909279Y-8244344D02*
X9908040Y-8241868D01*
X9908040Y-8241868D02*
X9908040Y-8235677D01*
X9908040Y-8235677D02*
X9909279Y-8233201D01*
X9909279Y-8233201D02*
X9910517Y-8231963D01*
X9910517Y-8231963D02*
X9912993Y-8230725D01*
X9912993Y-8230725D02*
X9917945Y-8230725D01*
X9917945Y-8230725D02*
X9920421Y-8231963D01*
X9920421Y-8231963D02*
X9921660Y-8233201D01*
X9921660Y-8233201D02*
X9922898Y-8235677D01*
D11*
X10188101Y-8218333D02*
X10188101Y-8185000D01*
X10240482Y-8185000D02*
X10140482Y-8185000D01*
X10140482Y-8185000D02*
X10140482Y-8232619D01*
X10235720Y-8265952D02*
X10240482Y-8280238D01*
X10240482Y-8280238D02*
X10240482Y-8304048D01*
X10240482Y-8304048D02*
X10235720Y-8313571D01*
X10235720Y-8313571D02*
X10230958Y-8318333D01*
X10230958Y-8318333D02*
X10221434Y-8323095D01*
X10221434Y-8323095D02*
X10211910Y-8323095D01*
X10211910Y-8323095D02*
X10202387Y-8318333D01*
X10202387Y-8318333D02*
X10197625Y-8313571D01*
X10197625Y-8313571D02*
X10192863Y-8304048D01*
X10192863Y-8304048D02*
X10188101Y-8285000D01*
X10188101Y-8285000D02*
X10183339Y-8275476D01*
X10183339Y-8275476D02*
X10178577Y-8270714D01*
X10178577Y-8270714D02*
X10169053Y-8265952D01*
X10169053Y-8265952D02*
X10159530Y-8265952D01*
X10159530Y-8265952D02*
X10150006Y-8270714D01*
X10150006Y-8270714D02*
X10145244Y-8275476D01*
X10145244Y-8275476D02*
X10140482Y-8285000D01*
X10140482Y-8285000D02*
X10140482Y-8308809D01*
X10140482Y-8308809D02*
X10145244Y-8323095D01*
X10183339Y-8380238D02*
X10178577Y-8370714D01*
X10178577Y-8370714D02*
X10173815Y-8365952D01*
X10173815Y-8365952D02*
X10164291Y-8361190D01*
X10164291Y-8361190D02*
X10159530Y-8361190D01*
X10159530Y-8361190D02*
X10150006Y-8365952D01*
X10150006Y-8365952D02*
X10145244Y-8370714D01*
X10145244Y-8370714D02*
X10140482Y-8380238D01*
X10140482Y-8380238D02*
X10140482Y-8399286D01*
X10140482Y-8399286D02*
X10145244Y-8408810D01*
X10145244Y-8408810D02*
X10150006Y-8413571D01*
X10150006Y-8413571D02*
X10159530Y-8418333D01*
X10159530Y-8418333D02*
X10164291Y-8418333D01*
X10164291Y-8418333D02*
X10173815Y-8413571D01*
X10173815Y-8413571D02*
X10178577Y-8408810D01*
X10178577Y-8408810D02*
X10183339Y-8399286D01*
X10183339Y-8399286D02*
X10183339Y-8380238D01*
X10183339Y-8380238D02*
X10188101Y-8370714D01*
X10188101Y-8370714D02*
X10192863Y-8365952D01*
X10192863Y-8365952D02*
X10202387Y-8361190D01*
X10202387Y-8361190D02*
X10221434Y-8361190D01*
X10221434Y-8361190D02*
X10230958Y-8365952D01*
X10230958Y-8365952D02*
X10235720Y-8370714D01*
X10235720Y-8370714D02*
X10240482Y-8380238D01*
X10240482Y-8380238D02*
X10240482Y-8399286D01*
X10240482Y-8399286D02*
X10235720Y-8408810D01*
X10235720Y-8408810D02*
X10230958Y-8413571D01*
X10230958Y-8413571D02*
X10221434Y-8418333D01*
X10221434Y-8418333D02*
X10202387Y-8418333D01*
X10202387Y-8418333D02*
X10192863Y-8413571D01*
X10192863Y-8413571D02*
X10188101Y-8408810D01*
X10188101Y-8408810D02*
X10183339Y-8399286D01*
X10150006Y-8456429D02*
X10145244Y-8461191D01*
X10145244Y-8461191D02*
X10140482Y-8470714D01*
X10140482Y-8470714D02*
X10140482Y-8494524D01*
X10140482Y-8494524D02*
X10145244Y-8504048D01*
X10145244Y-8504048D02*
X10150006Y-8508810D01*
X10150006Y-8508810D02*
X10159530Y-8513571D01*
X10159530Y-8513571D02*
X10169053Y-8513571D01*
X10169053Y-8513571D02*
X10183339Y-8508810D01*
X10183339Y-8508810D02*
X10240482Y-8451667D01*
X10240482Y-8451667D02*
X10240482Y-8513571D01*
X10140482Y-8575476D02*
X10140482Y-8585000D01*
X10140482Y-8585000D02*
X10145244Y-8594524D01*
X10145244Y-8594524D02*
X10150006Y-8599286D01*
X10150006Y-8599286D02*
X10159530Y-8604048D01*
X10159530Y-8604048D02*
X10178577Y-8608810D01*
X10178577Y-8608810D02*
X10202387Y-8608810D01*
X10202387Y-8608810D02*
X10221434Y-8604048D01*
X10221434Y-8604048D02*
X10230958Y-8599286D01*
X10230958Y-8599286D02*
X10235720Y-8594524D01*
X10235720Y-8594524D02*
X10240482Y-8585000D01*
X10240482Y-8585000D02*
X10240482Y-8575476D01*
X10240482Y-8575476D02*
X10235720Y-8565952D01*
X10235720Y-8565952D02*
X10230958Y-8561191D01*
X10230958Y-8561191D02*
X10221434Y-8556429D01*
X10221434Y-8556429D02*
X10202387Y-8551667D01*
X10202387Y-8551667D02*
X10178577Y-8551667D01*
X10178577Y-8551667D02*
X10159530Y-8556429D01*
X10159530Y-8556429D02*
X10150006Y-8561191D01*
X10150006Y-8561191D02*
X10145244Y-8565952D01*
X10145244Y-8565952D02*
X10140482Y-8575476D01*
X10140482Y-8699286D02*
X10140482Y-8651667D01*
X10140482Y-8651667D02*
X10188101Y-8646905D01*
X10188101Y-8646905D02*
X10183339Y-8651667D01*
X10183339Y-8651667D02*
X10178577Y-8661191D01*
X10178577Y-8661191D02*
X10178577Y-8685000D01*
X10178577Y-8685000D02*
X10183339Y-8694524D01*
X10183339Y-8694524D02*
X10188101Y-8699286D01*
X10188101Y-8699286D02*
X10197625Y-8704048D01*
X10197625Y-8704048D02*
X10221434Y-8704048D01*
X10221434Y-8704048D02*
X10230958Y-8699286D01*
X10230958Y-8699286D02*
X10235720Y-8694524D01*
X10235720Y-8694524D02*
X10240482Y-8685000D01*
X10240482Y-8685000D02*
X10240482Y-8661191D01*
X10240482Y-8661191D02*
X10235720Y-8651667D01*
X10235720Y-8651667D02*
X10230958Y-8646905D01*
X10211910Y-8742143D02*
X10211910Y-8789762D01*
X10240482Y-8732619D02*
X10140482Y-8765952D01*
X10140482Y-8765952D02*
X10240482Y-8799286D01*
D10*
X7230714Y-8553487D02*
X7239381Y-8541106D01*
X7245571Y-8553487D02*
X7245571Y-8527487D01*
X7245571Y-8527487D02*
X7235667Y-8527487D01*
X7235667Y-8527487D02*
X7233190Y-8528725D01*
X7233190Y-8528725D02*
X7231952Y-8529963D01*
X7231952Y-8529963D02*
X7230714Y-8532439D01*
X7230714Y-8532439D02*
X7230714Y-8536153D01*
X7230714Y-8536153D02*
X7231952Y-8538630D01*
X7231952Y-8538630D02*
X7233190Y-8539868D01*
X7233190Y-8539868D02*
X7235667Y-8541106D01*
X7235667Y-8541106D02*
X7245571Y-8541106D01*
X7205952Y-8553487D02*
X7220809Y-8553487D01*
X7213381Y-8553487D02*
X7213381Y-8527487D01*
X7213381Y-8527487D02*
X7215857Y-8531201D01*
X7215857Y-8531201D02*
X7218333Y-8533677D01*
X7218333Y-8533677D02*
X7220809Y-8534915D01*
X7181190Y-8553487D02*
X7196048Y-8553487D01*
X7188619Y-8553487D02*
X7188619Y-8527487D01*
X7188619Y-8527487D02*
X7191095Y-8531201D01*
X7191095Y-8531201D02*
X7193571Y-8533677D01*
X7193571Y-8533677D02*
X7196048Y-8534915D01*
X7218333Y-9016820D02*
X7227000Y-9004439D01*
X7233190Y-9016820D02*
X7233190Y-8990820D01*
X7233190Y-8990820D02*
X7223286Y-8990820D01*
X7223286Y-8990820D02*
X7220809Y-8992058D01*
X7220809Y-8992058D02*
X7219571Y-8993296D01*
X7219571Y-8993296D02*
X7218333Y-8995772D01*
X7218333Y-8995772D02*
X7218333Y-8999487D01*
X7218333Y-8999487D02*
X7219571Y-9001963D01*
X7219571Y-9001963D02*
X7220809Y-9003201D01*
X7220809Y-9003201D02*
X7223286Y-9004439D01*
X7223286Y-9004439D02*
X7233190Y-9004439D01*
X7208428Y-8993296D02*
X7207190Y-8992058D01*
X7207190Y-8992058D02*
X7204714Y-8990820D01*
X7204714Y-8990820D02*
X7198524Y-8990820D01*
X7198524Y-8990820D02*
X7196047Y-8992058D01*
X7196047Y-8992058D02*
X7194809Y-8993296D01*
X7194809Y-8993296D02*
X7193571Y-8995772D01*
X7193571Y-8995772D02*
X7193571Y-8998249D01*
X7193571Y-8998249D02*
X7194809Y-9001963D01*
X7194809Y-9001963D02*
X7209667Y-9016820D01*
X7209667Y-9016820D02*
X7193571Y-9016820D01*
X7218333Y-8286820D02*
X7227000Y-8274439D01*
X7233190Y-8286820D02*
X7233190Y-8260820D01*
X7233190Y-8260820D02*
X7223286Y-8260820D01*
X7223286Y-8260820D02*
X7220809Y-8262058D01*
X7220809Y-8262058D02*
X7219571Y-8263296D01*
X7219571Y-8263296D02*
X7218333Y-8265772D01*
X7218333Y-8265772D02*
X7218333Y-8269487D01*
X7218333Y-8269487D02*
X7219571Y-8271963D01*
X7219571Y-8271963D02*
X7220809Y-8273201D01*
X7220809Y-8273201D02*
X7223286Y-8274439D01*
X7223286Y-8274439D02*
X7233190Y-8274439D01*
X7203476Y-8271963D02*
X7205952Y-8270725D01*
X7205952Y-8270725D02*
X7207190Y-8269487D01*
X7207190Y-8269487D02*
X7208428Y-8267010D01*
X7208428Y-8267010D02*
X7208428Y-8265772D01*
X7208428Y-8265772D02*
X7207190Y-8263296D01*
X7207190Y-8263296D02*
X7205952Y-8262058D01*
X7205952Y-8262058D02*
X7203476Y-8260820D01*
X7203476Y-8260820D02*
X7198524Y-8260820D01*
X7198524Y-8260820D02*
X7196047Y-8262058D01*
X7196047Y-8262058D02*
X7194809Y-8263296D01*
X7194809Y-8263296D02*
X7193571Y-8265772D01*
X7193571Y-8265772D02*
X7193571Y-8267010D01*
X7193571Y-8267010D02*
X7194809Y-8269487D01*
X7194809Y-8269487D02*
X7196047Y-8270725D01*
X7196047Y-8270725D02*
X7198524Y-8271963D01*
X7198524Y-8271963D02*
X7203476Y-8271963D01*
X7203476Y-8271963D02*
X7205952Y-8273201D01*
X7205952Y-8273201D02*
X7207190Y-8274439D01*
X7207190Y-8274439D02*
X7208428Y-8276915D01*
X7208428Y-8276915D02*
X7208428Y-8281868D01*
X7208428Y-8281868D02*
X7207190Y-8284344D01*
X7207190Y-8284344D02*
X7205952Y-8285582D01*
X7205952Y-8285582D02*
X7203476Y-8286820D01*
X7203476Y-8286820D02*
X7198524Y-8286820D01*
X7198524Y-8286820D02*
X7196047Y-8285582D01*
X7196047Y-8285582D02*
X7194809Y-8284344D01*
X7194809Y-8284344D02*
X7193571Y-8281868D01*
X7193571Y-8281868D02*
X7193571Y-8276915D01*
X7193571Y-8276915D02*
X7194809Y-8274439D01*
X7194809Y-8274439D02*
X7196047Y-8273201D01*
X7196047Y-8273201D02*
X7198524Y-8271963D01*
D12*
X7241714Y-9164383D02*
X7243619Y-9166288D01*
X7243619Y-9166288D02*
X7249333Y-9168193D01*
X7249333Y-9168193D02*
X7253143Y-9168193D01*
X7253143Y-9168193D02*
X7258857Y-9166288D01*
X7258857Y-9166288D02*
X7262667Y-9162478D01*
X7262667Y-9162478D02*
X7264571Y-9158669D01*
X7264571Y-9158669D02*
X7266476Y-9151050D01*
X7266476Y-9151050D02*
X7266476Y-9145336D01*
X7266476Y-9145336D02*
X7264571Y-9137717D01*
X7264571Y-9137717D02*
X7262667Y-9133907D01*
X7262667Y-9133907D02*
X7258857Y-9130098D01*
X7258857Y-9130098D02*
X7253143Y-9128193D01*
X7253143Y-9128193D02*
X7249333Y-9128193D01*
X7249333Y-9128193D02*
X7243619Y-9130098D01*
X7243619Y-9130098D02*
X7241714Y-9132002D01*
X7203619Y-9168193D02*
X7226476Y-9168193D01*
X7215047Y-9168193D02*
X7215047Y-9128193D01*
X7215047Y-9128193D02*
X7218857Y-9133907D01*
X7218857Y-9133907D02*
X7222667Y-9137717D01*
X7222667Y-9137717D02*
X7226476Y-9139621D01*
X7178857Y-9128193D02*
X7175048Y-9128193D01*
X7175048Y-9128193D02*
X7171238Y-9130098D01*
X7171238Y-9130098D02*
X7169333Y-9132002D01*
X7169333Y-9132002D02*
X7167428Y-9135812D01*
X7167428Y-9135812D02*
X7165524Y-9143431D01*
X7165524Y-9143431D02*
X7165524Y-9152955D01*
X7165524Y-9152955D02*
X7167428Y-9160574D01*
X7167428Y-9160574D02*
X7169333Y-9164383D01*
X7169333Y-9164383D02*
X7171238Y-9166288D01*
X7171238Y-9166288D02*
X7175048Y-9168193D01*
X7175048Y-9168193D02*
X7178857Y-9168193D01*
X7178857Y-9168193D02*
X7182667Y-9166288D01*
X7182667Y-9166288D02*
X7184571Y-9164383D01*
X7184571Y-9164383D02*
X7186476Y-9160574D01*
X7186476Y-9160574D02*
X7188381Y-9152955D01*
X7188381Y-9152955D02*
X7188381Y-9143431D01*
X7188381Y-9143431D02*
X7186476Y-9135812D01*
X7186476Y-9135812D02*
X7184571Y-9132002D01*
X7184571Y-9132002D02*
X7182667Y-9130098D01*
X7182667Y-9130098D02*
X7178857Y-9128193D01*
D10*
X9947564Y-8686820D02*
X9956231Y-8674439D01*
X9962421Y-8686820D02*
X9962421Y-8660820D01*
X9962421Y-8660820D02*
X9952517Y-8660820D01*
X9952517Y-8660820D02*
X9950040Y-8662058D01*
X9950040Y-8662058D02*
X9948802Y-8663296D01*
X9948802Y-8663296D02*
X9947564Y-8665772D01*
X9947564Y-8665772D02*
X9947564Y-8669487D01*
X9947564Y-8669487D02*
X9948802Y-8671963D01*
X9948802Y-8671963D02*
X9950040Y-8673201D01*
X9950040Y-8673201D02*
X9952517Y-8674439D01*
X9952517Y-8674439D02*
X9962421Y-8674439D01*
X9922802Y-8686820D02*
X9937660Y-8686820D01*
X9930231Y-8686820D02*
X9930231Y-8660820D01*
X9930231Y-8660820D02*
X9932707Y-8664534D01*
X9932707Y-8664534D02*
X9935183Y-8667011D01*
X9935183Y-8667011D02*
X9937660Y-8668249D01*
X9914136Y-8660820D02*
X9896802Y-8660820D01*
X9896802Y-8660820D02*
X9907945Y-8686820D01*
D12*
X7222667Y-9474383D02*
X7224571Y-9476288D01*
X7224571Y-9476288D02*
X7230286Y-9478193D01*
X7230286Y-9478193D02*
X7234095Y-9478193D01*
X7234095Y-9478193D02*
X7239809Y-9476288D01*
X7239809Y-9476288D02*
X7243619Y-9472478D01*
X7243619Y-9472478D02*
X7245524Y-9468669D01*
X7245524Y-9468669D02*
X7247428Y-9461050D01*
X7247428Y-9461050D02*
X7247428Y-9455336D01*
X7247428Y-9455336D02*
X7245524Y-9447717D01*
X7245524Y-9447717D02*
X7243619Y-9443907D01*
X7243619Y-9443907D02*
X7239809Y-9440098D01*
X7239809Y-9440098D02*
X7234095Y-9438193D01*
X7234095Y-9438193D02*
X7230286Y-9438193D01*
X7230286Y-9438193D02*
X7224571Y-9440098D01*
X7224571Y-9440098D02*
X7222667Y-9442002D01*
X7203619Y-9478193D02*
X7196000Y-9478193D01*
X7196000Y-9478193D02*
X7192190Y-9476288D01*
X7192190Y-9476288D02*
X7190286Y-9474383D01*
X7190286Y-9474383D02*
X7186476Y-9468669D01*
X7186476Y-9468669D02*
X7184571Y-9461050D01*
X7184571Y-9461050D02*
X7184571Y-9445812D01*
X7184571Y-9445812D02*
X7186476Y-9442002D01*
X7186476Y-9442002D02*
X7188381Y-9440098D01*
X7188381Y-9440098D02*
X7192190Y-9438193D01*
X7192190Y-9438193D02*
X7199809Y-9438193D01*
X7199809Y-9438193D02*
X7203619Y-9440098D01*
X7203619Y-9440098D02*
X7205524Y-9442002D01*
X7205524Y-9442002D02*
X7207428Y-9445812D01*
X7207428Y-9445812D02*
X7207428Y-9455336D01*
X7207428Y-9455336D02*
X7205524Y-9459145D01*
X7205524Y-9459145D02*
X7203619Y-9461050D01*
X7203619Y-9461050D02*
X7199809Y-9462955D01*
X7199809Y-9462955D02*
X7192190Y-9462955D01*
X7192190Y-9462955D02*
X7188381Y-9461050D01*
X7188381Y-9461050D02*
X7186476Y-9459145D01*
X7186476Y-9459145D02*
X7184571Y-9455336D01*
D10*
X7230714Y-8420153D02*
X7239381Y-8407773D01*
X7245571Y-8420153D02*
X7245571Y-8394153D01*
X7245571Y-8394153D02*
X7235667Y-8394153D01*
X7235667Y-8394153D02*
X7233190Y-8395392D01*
X7233190Y-8395392D02*
X7231952Y-8396630D01*
X7231952Y-8396630D02*
X7230714Y-8399106D01*
X7230714Y-8399106D02*
X7230714Y-8402820D01*
X7230714Y-8402820D02*
X7231952Y-8405296D01*
X7231952Y-8405296D02*
X7233190Y-8406534D01*
X7233190Y-8406534D02*
X7235667Y-8407773D01*
X7235667Y-8407773D02*
X7245571Y-8407773D01*
X7205952Y-8420153D02*
X7220809Y-8420153D01*
X7213381Y-8420153D02*
X7213381Y-8394153D01*
X7213381Y-8394153D02*
X7215857Y-8397868D01*
X7215857Y-8397868D02*
X7218333Y-8400344D01*
X7218333Y-8400344D02*
X7220809Y-8401582D01*
X7189857Y-8394153D02*
X7187381Y-8394153D01*
X7187381Y-8394153D02*
X7184905Y-8395392D01*
X7184905Y-8395392D02*
X7183667Y-8396630D01*
X7183667Y-8396630D02*
X7182428Y-8399106D01*
X7182428Y-8399106D02*
X7181190Y-8404058D01*
X7181190Y-8404058D02*
X7181190Y-8410249D01*
X7181190Y-8410249D02*
X7182428Y-8415201D01*
X7182428Y-8415201D02*
X7183667Y-8417677D01*
X7183667Y-8417677D02*
X7184905Y-8418915D01*
X7184905Y-8418915D02*
X7187381Y-8420153D01*
X7187381Y-8420153D02*
X7189857Y-8420153D01*
X7189857Y-8420153D02*
X7192333Y-8418915D01*
X7192333Y-8418915D02*
X7193571Y-8417677D01*
X7193571Y-8417677D02*
X7194809Y-8415201D01*
X7194809Y-8415201D02*
X7196048Y-8410249D01*
X7196048Y-8410249D02*
X7196048Y-8404058D01*
X7196048Y-8404058D02*
X7194809Y-8399106D01*
X7194809Y-8399106D02*
X7193571Y-8396630D01*
X7193571Y-8396630D02*
X7192333Y-8395392D01*
X7192333Y-8395392D02*
X7189857Y-8394153D01*
D13*
X6356888Y-8277523D02*
X6324888Y-8277523D01*
X6324888Y-8277523D02*
X6356888Y-8295809D01*
X6356888Y-8295809D02*
X6324888Y-8295809D01*
X6356888Y-8315618D02*
X6355364Y-8312571D01*
X6355364Y-8312571D02*
X6353840Y-8311047D01*
X6353840Y-8311047D02*
X6350792Y-8309523D01*
X6350792Y-8309523D02*
X6341650Y-8309523D01*
X6341650Y-8309523D02*
X6338602Y-8311047D01*
X6338602Y-8311047D02*
X6337078Y-8312571D01*
X6337078Y-8312571D02*
X6335554Y-8315618D01*
X6335554Y-8315618D02*
X6335554Y-8320190D01*
X6335554Y-8320190D02*
X6337078Y-8323237D01*
X6337078Y-8323237D02*
X6338602Y-8324761D01*
X6338602Y-8324761D02*
X6341650Y-8326285D01*
X6341650Y-8326285D02*
X6350792Y-8326285D01*
X6350792Y-8326285D02*
X6353840Y-8324761D01*
X6353840Y-8324761D02*
X6355364Y-8323237D01*
X6355364Y-8323237D02*
X6356888Y-8320190D01*
X6356888Y-8320190D02*
X6356888Y-8315618D01*
X6335554Y-8335428D02*
X6335554Y-8347618D01*
X6324888Y-8339999D02*
X6352316Y-8339999D01*
X6352316Y-8339999D02*
X6355364Y-8341523D01*
X6355364Y-8341523D02*
X6356888Y-8344571D01*
X6356888Y-8344571D02*
X6356888Y-8347618D01*
X6355364Y-8370476D02*
X6356888Y-8367428D01*
X6356888Y-8367428D02*
X6356888Y-8361333D01*
X6356888Y-8361333D02*
X6355364Y-8358285D01*
X6355364Y-8358285D02*
X6352316Y-8356761D01*
X6352316Y-8356761D02*
X6340126Y-8356761D01*
X6340126Y-8356761D02*
X6337078Y-8358285D01*
X6337078Y-8358285D02*
X6335554Y-8361333D01*
X6335554Y-8361333D02*
X6335554Y-8367428D01*
X6335554Y-8367428D02*
X6337078Y-8370476D01*
X6337078Y-8370476D02*
X6340126Y-8371999D01*
X6340126Y-8371999D02*
X6343173Y-8371999D01*
X6343173Y-8371999D02*
X6346221Y-8356761D01*
X6353840Y-8385714D02*
X6355364Y-8387237D01*
X6355364Y-8387237D02*
X6356888Y-8385714D01*
X6356888Y-8385714D02*
X6355364Y-8384190D01*
X6355364Y-8384190D02*
X6353840Y-8385714D01*
X6353840Y-8385714D02*
X6356888Y-8385714D01*
X6337078Y-8385714D02*
X6338602Y-8387237D01*
X6338602Y-8387237D02*
X6340126Y-8385714D01*
X6340126Y-8385714D02*
X6338602Y-8384190D01*
X6338602Y-8384190D02*
X6337078Y-8385714D01*
X6337078Y-8385714D02*
X6340126Y-8385714D01*
X6355364Y-8423809D02*
X6356888Y-8428380D01*
X6356888Y-8428380D02*
X6356888Y-8436000D01*
X6356888Y-8436000D02*
X6355364Y-8439047D01*
X6355364Y-8439047D02*
X6353840Y-8440571D01*
X6353840Y-8440571D02*
X6350792Y-8442095D01*
X6350792Y-8442095D02*
X6347745Y-8442095D01*
X6347745Y-8442095D02*
X6344697Y-8440571D01*
X6344697Y-8440571D02*
X6343173Y-8439047D01*
X6343173Y-8439047D02*
X6341650Y-8436000D01*
X6341650Y-8436000D02*
X6340126Y-8429904D01*
X6340126Y-8429904D02*
X6338602Y-8426857D01*
X6338602Y-8426857D02*
X6337078Y-8425333D01*
X6337078Y-8425333D02*
X6334031Y-8423809D01*
X6334031Y-8423809D02*
X6330983Y-8423809D01*
X6330983Y-8423809D02*
X6327935Y-8425333D01*
X6327935Y-8425333D02*
X6326412Y-8426857D01*
X6326412Y-8426857D02*
X6324888Y-8429904D01*
X6324888Y-8429904D02*
X6324888Y-8437523D01*
X6324888Y-8437523D02*
X6326412Y-8442095D01*
X6335554Y-8451238D02*
X6335554Y-8463428D01*
X6324888Y-8455809D02*
X6352316Y-8455809D01*
X6352316Y-8455809D02*
X6355364Y-8457333D01*
X6355364Y-8457333D02*
X6356888Y-8460380D01*
X6356888Y-8460380D02*
X6356888Y-8463428D01*
X6355364Y-8486285D02*
X6356888Y-8483238D01*
X6356888Y-8483238D02*
X6356888Y-8477142D01*
X6356888Y-8477142D02*
X6355364Y-8474095D01*
X6355364Y-8474095D02*
X6352316Y-8472571D01*
X6352316Y-8472571D02*
X6340126Y-8472571D01*
X6340126Y-8472571D02*
X6337078Y-8474095D01*
X6337078Y-8474095D02*
X6335554Y-8477142D01*
X6335554Y-8477142D02*
X6335554Y-8483238D01*
X6335554Y-8483238D02*
X6337078Y-8486285D01*
X6337078Y-8486285D02*
X6340126Y-8487809D01*
X6340126Y-8487809D02*
X6343173Y-8487809D01*
X6343173Y-8487809D02*
X6346221Y-8472571D01*
X6335554Y-8501523D02*
X6356888Y-8501523D01*
X6338602Y-8501523D02*
X6337078Y-8503047D01*
X6337078Y-8503047D02*
X6335554Y-8506095D01*
X6335554Y-8506095D02*
X6335554Y-8510666D01*
X6335554Y-8510666D02*
X6337078Y-8513714D01*
X6337078Y-8513714D02*
X6340126Y-8515238D01*
X6340126Y-8515238D02*
X6356888Y-8515238D01*
X6355364Y-8544190D02*
X6356888Y-8541142D01*
X6356888Y-8541142D02*
X6356888Y-8535047D01*
X6356888Y-8535047D02*
X6355364Y-8532000D01*
X6355364Y-8532000D02*
X6353840Y-8530476D01*
X6353840Y-8530476D02*
X6350792Y-8528952D01*
X6350792Y-8528952D02*
X6341650Y-8528952D01*
X6341650Y-8528952D02*
X6338602Y-8530476D01*
X6338602Y-8530476D02*
X6337078Y-8532000D01*
X6337078Y-8532000D02*
X6335554Y-8535047D01*
X6335554Y-8535047D02*
X6335554Y-8541142D01*
X6335554Y-8541142D02*
X6337078Y-8544190D01*
X6356888Y-8557904D02*
X6335554Y-8557904D01*
X6324888Y-8557904D02*
X6326412Y-8556381D01*
X6326412Y-8556381D02*
X6327935Y-8557904D01*
X6327935Y-8557904D02*
X6326412Y-8559428D01*
X6326412Y-8559428D02*
X6324888Y-8557904D01*
X6324888Y-8557904D02*
X6327935Y-8557904D01*
X6356888Y-8577714D02*
X6355364Y-8574666D01*
X6355364Y-8574666D02*
X6352316Y-8573142D01*
X6352316Y-8573142D02*
X6324888Y-8573142D01*
X6356888Y-8614285D02*
X6335554Y-8614285D01*
X6324888Y-8614285D02*
X6326412Y-8612762D01*
X6326412Y-8612762D02*
X6327935Y-8614285D01*
X6327935Y-8614285D02*
X6326412Y-8615809D01*
X6326412Y-8615809D02*
X6324888Y-8614285D01*
X6324888Y-8614285D02*
X6327935Y-8614285D01*
X6355364Y-8628000D02*
X6356888Y-8631047D01*
X6356888Y-8631047D02*
X6356888Y-8637142D01*
X6356888Y-8637142D02*
X6355364Y-8640190D01*
X6355364Y-8640190D02*
X6352316Y-8641714D01*
X6352316Y-8641714D02*
X6350792Y-8641714D01*
X6350792Y-8641714D02*
X6347745Y-8640190D01*
X6347745Y-8640190D02*
X6346221Y-8637142D01*
X6346221Y-8637142D02*
X6346221Y-8632571D01*
X6346221Y-8632571D02*
X6344697Y-8629523D01*
X6344697Y-8629523D02*
X6341650Y-8628000D01*
X6341650Y-8628000D02*
X6340126Y-8628000D01*
X6340126Y-8628000D02*
X6337078Y-8629523D01*
X6337078Y-8629523D02*
X6335554Y-8632571D01*
X6335554Y-8632571D02*
X6335554Y-8637142D01*
X6335554Y-8637142D02*
X6337078Y-8640190D01*
X6356888Y-8679809D02*
X6324888Y-8679809D01*
X6337078Y-8679809D02*
X6335554Y-8682857D01*
X6335554Y-8682857D02*
X6335554Y-8688952D01*
X6335554Y-8688952D02*
X6337078Y-8692000D01*
X6337078Y-8692000D02*
X6338602Y-8693524D01*
X6338602Y-8693524D02*
X6341650Y-8695047D01*
X6341650Y-8695047D02*
X6350792Y-8695047D01*
X6350792Y-8695047D02*
X6353840Y-8693524D01*
X6353840Y-8693524D02*
X6355364Y-8692000D01*
X6355364Y-8692000D02*
X6356888Y-8688952D01*
X6356888Y-8688952D02*
X6356888Y-8682857D01*
X6356888Y-8682857D02*
X6355364Y-8679809D01*
X6356888Y-8722476D02*
X6340126Y-8722476D01*
X6340126Y-8722476D02*
X6337078Y-8720952D01*
X6337078Y-8720952D02*
X6335554Y-8717905D01*
X6335554Y-8717905D02*
X6335554Y-8711809D01*
X6335554Y-8711809D02*
X6337078Y-8708762D01*
X6355364Y-8722476D02*
X6356888Y-8719428D01*
X6356888Y-8719428D02*
X6356888Y-8711809D01*
X6356888Y-8711809D02*
X6355364Y-8708762D01*
X6355364Y-8708762D02*
X6352316Y-8707238D01*
X6352316Y-8707238D02*
X6349269Y-8707238D01*
X6349269Y-8707238D02*
X6346221Y-8708762D01*
X6346221Y-8708762D02*
X6344697Y-8711809D01*
X6344697Y-8711809D02*
X6344697Y-8719428D01*
X6344697Y-8719428D02*
X6343173Y-8722476D01*
X6355364Y-8736190D02*
X6356888Y-8739238D01*
X6356888Y-8739238D02*
X6356888Y-8745333D01*
X6356888Y-8745333D02*
X6355364Y-8748381D01*
X6355364Y-8748381D02*
X6352316Y-8749905D01*
X6352316Y-8749905D02*
X6350792Y-8749905D01*
X6350792Y-8749905D02*
X6347745Y-8748381D01*
X6347745Y-8748381D02*
X6346221Y-8745333D01*
X6346221Y-8745333D02*
X6346221Y-8740762D01*
X6346221Y-8740762D02*
X6344697Y-8737714D01*
X6344697Y-8737714D02*
X6341650Y-8736190D01*
X6341650Y-8736190D02*
X6340126Y-8736190D01*
X6340126Y-8736190D02*
X6337078Y-8737714D01*
X6337078Y-8737714D02*
X6335554Y-8740762D01*
X6335554Y-8740762D02*
X6335554Y-8745333D01*
X6335554Y-8745333D02*
X6337078Y-8748381D01*
X6355364Y-8775809D02*
X6356888Y-8772762D01*
X6356888Y-8772762D02*
X6356888Y-8766666D01*
X6356888Y-8766666D02*
X6355364Y-8763619D01*
X6355364Y-8763619D02*
X6352316Y-8762095D01*
X6352316Y-8762095D02*
X6340126Y-8762095D01*
X6340126Y-8762095D02*
X6337078Y-8763619D01*
X6337078Y-8763619D02*
X6335554Y-8766666D01*
X6335554Y-8766666D02*
X6335554Y-8772762D01*
X6335554Y-8772762D02*
X6337078Y-8775809D01*
X6337078Y-8775809D02*
X6340126Y-8777333D01*
X6340126Y-8777333D02*
X6343173Y-8777333D01*
X6343173Y-8777333D02*
X6346221Y-8762095D01*
X6356888Y-8804762D02*
X6324888Y-8804762D01*
X6355364Y-8804762D02*
X6356888Y-8801714D01*
X6356888Y-8801714D02*
X6356888Y-8795619D01*
X6356888Y-8795619D02*
X6355364Y-8792571D01*
X6355364Y-8792571D02*
X6353840Y-8791047D01*
X6353840Y-8791047D02*
X6350792Y-8789524D01*
X6350792Y-8789524D02*
X6341650Y-8789524D01*
X6341650Y-8789524D02*
X6338602Y-8791047D01*
X6338602Y-8791047D02*
X6337078Y-8792571D01*
X6337078Y-8792571D02*
X6335554Y-8795619D01*
X6335554Y-8795619D02*
X6335554Y-8801714D01*
X6335554Y-8801714D02*
X6337078Y-8804762D01*
X6356888Y-8848952D02*
X6355364Y-8845905D01*
X6355364Y-8845905D02*
X6353840Y-8844381D01*
X6353840Y-8844381D02*
X6350792Y-8842857D01*
X6350792Y-8842857D02*
X6341650Y-8842857D01*
X6341650Y-8842857D02*
X6338602Y-8844381D01*
X6338602Y-8844381D02*
X6337078Y-8845905D01*
X6337078Y-8845905D02*
X6335554Y-8848952D01*
X6335554Y-8848952D02*
X6335554Y-8853524D01*
X6335554Y-8853524D02*
X6337078Y-8856571D01*
X6337078Y-8856571D02*
X6338602Y-8858095D01*
X6338602Y-8858095D02*
X6341650Y-8859619D01*
X6341650Y-8859619D02*
X6350792Y-8859619D01*
X6350792Y-8859619D02*
X6353840Y-8858095D01*
X6353840Y-8858095D02*
X6355364Y-8856571D01*
X6355364Y-8856571D02*
X6356888Y-8853524D01*
X6356888Y-8853524D02*
X6356888Y-8848952D01*
X6335554Y-8873333D02*
X6356888Y-8873333D01*
X6338602Y-8873333D02*
X6337078Y-8874857D01*
X6337078Y-8874857D02*
X6335554Y-8877905D01*
X6335554Y-8877905D02*
X6335554Y-8882476D01*
X6335554Y-8882476D02*
X6337078Y-8885524D01*
X6337078Y-8885524D02*
X6340126Y-8887048D01*
X6340126Y-8887048D02*
X6356888Y-8887048D01*
X6324888Y-8932762D02*
X6324888Y-8935810D01*
X6324888Y-8935810D02*
X6326412Y-8938857D01*
X6326412Y-8938857D02*
X6327935Y-8940381D01*
X6327935Y-8940381D02*
X6330983Y-8941905D01*
X6330983Y-8941905D02*
X6337078Y-8943429D01*
X6337078Y-8943429D02*
X6344697Y-8943429D01*
X6344697Y-8943429D02*
X6350792Y-8941905D01*
X6350792Y-8941905D02*
X6353840Y-8940381D01*
X6353840Y-8940381D02*
X6355364Y-8938857D01*
X6355364Y-8938857D02*
X6356888Y-8935810D01*
X6356888Y-8935810D02*
X6356888Y-8932762D01*
X6356888Y-8932762D02*
X6355364Y-8929714D01*
X6355364Y-8929714D02*
X6353840Y-8928190D01*
X6353840Y-8928190D02*
X6350792Y-8926667D01*
X6350792Y-8926667D02*
X6344697Y-8925143D01*
X6344697Y-8925143D02*
X6337078Y-8925143D01*
X6337078Y-8925143D02*
X6330983Y-8926667D01*
X6330983Y-8926667D02*
X6327935Y-8928190D01*
X6327935Y-8928190D02*
X6326412Y-8929714D01*
X6326412Y-8929714D02*
X6324888Y-8932762D01*
X6353840Y-8957143D02*
X6355364Y-8958667D01*
X6355364Y-8958667D02*
X6356888Y-8957143D01*
X6356888Y-8957143D02*
X6355364Y-8955619D01*
X6355364Y-8955619D02*
X6353840Y-8957143D01*
X6353840Y-8957143D02*
X6356888Y-8957143D01*
X6356888Y-8989143D02*
X6356888Y-8970857D01*
X6356888Y-8980000D02*
X6324888Y-8980000D01*
X6324888Y-8980000D02*
X6329459Y-8976952D01*
X6329459Y-8976952D02*
X6332507Y-8973905D01*
X6332507Y-8973905D02*
X6334031Y-8970857D01*
X6327935Y-9001333D02*
X6326412Y-9002857D01*
X6326412Y-9002857D02*
X6324888Y-9005905D01*
X6324888Y-9005905D02*
X6324888Y-9013524D01*
X6324888Y-9013524D02*
X6326412Y-9016571D01*
X6326412Y-9016571D02*
X6327935Y-9018095D01*
X6327935Y-9018095D02*
X6330983Y-9019619D01*
X6330983Y-9019619D02*
X6334031Y-9019619D01*
X6334031Y-9019619D02*
X6338602Y-9018095D01*
X6338602Y-9018095D02*
X6356888Y-8999810D01*
X6356888Y-8999810D02*
X6356888Y-9019619D01*
X6356888Y-9057714D02*
X6335554Y-9057714D01*
X6338602Y-9057714D02*
X6337078Y-9059238D01*
X6337078Y-9059238D02*
X6335554Y-9062286D01*
X6335554Y-9062286D02*
X6335554Y-9066857D01*
X6335554Y-9066857D02*
X6337078Y-9069905D01*
X6337078Y-9069905D02*
X6340126Y-9071429D01*
X6340126Y-9071429D02*
X6356888Y-9071429D01*
X6340126Y-9071429D02*
X6337078Y-9072952D01*
X6337078Y-9072952D02*
X6335554Y-9076000D01*
X6335554Y-9076000D02*
X6335554Y-9080571D01*
X6335554Y-9080571D02*
X6337078Y-9083619D01*
X6337078Y-9083619D02*
X6340126Y-9085143D01*
X6340126Y-9085143D02*
X6356888Y-9085143D01*
X6356888Y-9100381D02*
X6335554Y-9100381D01*
X6338602Y-9100381D02*
X6337078Y-9101905D01*
X6337078Y-9101905D02*
X6335554Y-9104952D01*
X6335554Y-9104952D02*
X6335554Y-9109524D01*
X6335554Y-9109524D02*
X6337078Y-9112572D01*
X6337078Y-9112572D02*
X6340126Y-9114095D01*
X6340126Y-9114095D02*
X6356888Y-9114095D01*
X6340126Y-9114095D02*
X6337078Y-9115619D01*
X6337078Y-9115619D02*
X6335554Y-9118667D01*
X6335554Y-9118667D02*
X6335554Y-9123238D01*
X6335554Y-9123238D02*
X6337078Y-9126286D01*
X6337078Y-9126286D02*
X6340126Y-9127810D01*
X6340126Y-9127810D02*
X6356888Y-9127810D01*
X6356888Y-9167429D02*
X6335554Y-9167429D01*
X6338602Y-9167429D02*
X6337078Y-9168953D01*
X6337078Y-9168953D02*
X6335554Y-9172000D01*
X6335554Y-9172000D02*
X6335554Y-9176572D01*
X6335554Y-9176572D02*
X6337078Y-9179619D01*
X6337078Y-9179619D02*
X6340126Y-9181143D01*
X6340126Y-9181143D02*
X6356888Y-9181143D01*
X6340126Y-9181143D02*
X6337078Y-9182667D01*
X6337078Y-9182667D02*
X6335554Y-9185714D01*
X6335554Y-9185714D02*
X6335554Y-9190286D01*
X6335554Y-9190286D02*
X6337078Y-9193334D01*
X6337078Y-9193334D02*
X6340126Y-9194857D01*
X6340126Y-9194857D02*
X6356888Y-9194857D01*
X6355364Y-9222286D02*
X6356888Y-9219238D01*
X6356888Y-9219238D02*
X6356888Y-9213143D01*
X6356888Y-9213143D02*
X6355364Y-9210095D01*
X6355364Y-9210095D02*
X6352316Y-9208572D01*
X6352316Y-9208572D02*
X6340126Y-9208572D01*
X6340126Y-9208572D02*
X6337078Y-9210095D01*
X6337078Y-9210095D02*
X6335554Y-9213143D01*
X6335554Y-9213143D02*
X6335554Y-9219238D01*
X6335554Y-9219238D02*
X6337078Y-9222286D01*
X6337078Y-9222286D02*
X6340126Y-9223810D01*
X6340126Y-9223810D02*
X6343173Y-9223810D01*
X6343173Y-9223810D02*
X6346221Y-9208572D01*
X6335554Y-9232953D02*
X6335554Y-9245143D01*
X6324888Y-9237524D02*
X6352316Y-9237524D01*
X6352316Y-9237524D02*
X6355364Y-9239048D01*
X6355364Y-9239048D02*
X6356888Y-9242095D01*
X6356888Y-9242095D02*
X6356888Y-9245143D01*
X6356888Y-9269524D02*
X6340126Y-9269524D01*
X6340126Y-9269524D02*
X6337078Y-9268000D01*
X6337078Y-9268000D02*
X6335554Y-9264953D01*
X6335554Y-9264953D02*
X6335554Y-9258857D01*
X6335554Y-9258857D02*
X6337078Y-9255810D01*
X6355364Y-9269524D02*
X6356888Y-9266476D01*
X6356888Y-9266476D02*
X6356888Y-9258857D01*
X6356888Y-9258857D02*
X6355364Y-9255810D01*
X6355364Y-9255810D02*
X6352316Y-9254286D01*
X6352316Y-9254286D02*
X6349269Y-9254286D01*
X6349269Y-9254286D02*
X6346221Y-9255810D01*
X6346221Y-9255810D02*
X6344697Y-9258857D01*
X6344697Y-9258857D02*
X6344697Y-9266476D01*
X6344697Y-9266476D02*
X6343173Y-9269524D01*
X6356888Y-9289334D02*
X6355364Y-9286286D01*
X6355364Y-9286286D02*
X6352316Y-9284762D01*
X6352316Y-9284762D02*
X6324888Y-9284762D01*
X6356888Y-9325905D02*
X6335554Y-9325905D01*
X6338602Y-9325905D02*
X6337078Y-9327429D01*
X6337078Y-9327429D02*
X6335554Y-9330476D01*
X6335554Y-9330476D02*
X6335554Y-9335048D01*
X6335554Y-9335048D02*
X6337078Y-9338096D01*
X6337078Y-9338096D02*
X6340126Y-9339619D01*
X6340126Y-9339619D02*
X6356888Y-9339619D01*
X6340126Y-9339619D02*
X6337078Y-9341143D01*
X6337078Y-9341143D02*
X6335554Y-9344191D01*
X6335554Y-9344191D02*
X6335554Y-9348762D01*
X6335554Y-9348762D02*
X6337078Y-9351810D01*
X6337078Y-9351810D02*
X6340126Y-9353334D01*
X6340126Y-9353334D02*
X6356888Y-9353334D01*
X6356888Y-9382286D02*
X6340126Y-9382286D01*
X6340126Y-9382286D02*
X6337078Y-9380762D01*
X6337078Y-9380762D02*
X6335554Y-9377715D01*
X6335554Y-9377715D02*
X6335554Y-9371619D01*
X6335554Y-9371619D02*
X6337078Y-9368572D01*
X6355364Y-9382286D02*
X6356888Y-9379238D01*
X6356888Y-9379238D02*
X6356888Y-9371619D01*
X6356888Y-9371619D02*
X6355364Y-9368572D01*
X6355364Y-9368572D02*
X6352316Y-9367048D01*
X6352316Y-9367048D02*
X6349269Y-9367048D01*
X6349269Y-9367048D02*
X6346221Y-9368572D01*
X6346221Y-9368572D02*
X6344697Y-9371619D01*
X6344697Y-9371619D02*
X6344697Y-9379238D01*
X6344697Y-9379238D02*
X6343173Y-9382286D01*
X6355364Y-9396000D02*
X6356888Y-9399048D01*
X6356888Y-9399048D02*
X6356888Y-9405143D01*
X6356888Y-9405143D02*
X6355364Y-9408191D01*
X6355364Y-9408191D02*
X6352316Y-9409715D01*
X6352316Y-9409715D02*
X6350792Y-9409715D01*
X6350792Y-9409715D02*
X6347745Y-9408191D01*
X6347745Y-9408191D02*
X6346221Y-9405143D01*
X6346221Y-9405143D02*
X6346221Y-9400572D01*
X6346221Y-9400572D02*
X6344697Y-9397524D01*
X6344697Y-9397524D02*
X6341650Y-9396000D01*
X6341650Y-9396000D02*
X6340126Y-9396000D01*
X6340126Y-9396000D02*
X6337078Y-9397524D01*
X6337078Y-9397524D02*
X6335554Y-9400572D01*
X6335554Y-9400572D02*
X6335554Y-9405143D01*
X6335554Y-9405143D02*
X6337078Y-9408191D01*
X6356888Y-9423429D02*
X6324888Y-9423429D01*
X6344697Y-9426477D02*
X6356888Y-9435619D01*
X6335554Y-9435619D02*
X6347745Y-9423429D01*
X6335554Y-9469143D02*
X6335554Y-9481334D01*
X6324888Y-9473715D02*
X6352316Y-9473715D01*
X6352316Y-9473715D02*
X6355364Y-9475239D01*
X6355364Y-9475239D02*
X6356888Y-9478286D01*
X6356888Y-9478286D02*
X6356888Y-9481334D01*
X6356888Y-9492000D02*
X6324888Y-9492000D01*
X6356888Y-9505715D02*
X6340126Y-9505715D01*
X6340126Y-9505715D02*
X6337078Y-9504191D01*
X6337078Y-9504191D02*
X6335554Y-9501143D01*
X6335554Y-9501143D02*
X6335554Y-9496572D01*
X6335554Y-9496572D02*
X6337078Y-9493524D01*
X6337078Y-9493524D02*
X6338602Y-9492000D01*
X6356888Y-9520953D02*
X6335554Y-9520953D01*
X6324888Y-9520953D02*
X6326412Y-9519429D01*
X6326412Y-9519429D02*
X6327935Y-9520953D01*
X6327935Y-9520953D02*
X6326412Y-9522477D01*
X6326412Y-9522477D02*
X6324888Y-9520953D01*
X6324888Y-9520953D02*
X6327935Y-9520953D01*
X6355364Y-9549905D02*
X6356888Y-9546858D01*
X6356888Y-9546858D02*
X6356888Y-9540762D01*
X6356888Y-9540762D02*
X6355364Y-9537715D01*
X6355364Y-9537715D02*
X6353840Y-9536191D01*
X6353840Y-9536191D02*
X6350792Y-9534667D01*
X6350792Y-9534667D02*
X6341650Y-9534667D01*
X6341650Y-9534667D02*
X6338602Y-9536191D01*
X6338602Y-9536191D02*
X6337078Y-9537715D01*
X6337078Y-9537715D02*
X6335554Y-9540762D01*
X6335554Y-9540762D02*
X6335554Y-9546858D01*
X6335554Y-9546858D02*
X6337078Y-9549905D01*
X6356888Y-9563620D02*
X6324888Y-9563620D01*
X6344697Y-9566667D02*
X6356888Y-9575810D01*
X6335554Y-9575810D02*
X6347745Y-9563620D01*
X6335554Y-9589524D02*
X6356888Y-9589524D01*
X6338602Y-9589524D02*
X6337078Y-9591048D01*
X6337078Y-9591048D02*
X6335554Y-9594096D01*
X6335554Y-9594096D02*
X6335554Y-9598667D01*
X6335554Y-9598667D02*
X6337078Y-9601715D01*
X6337078Y-9601715D02*
X6340126Y-9603239D01*
X6340126Y-9603239D02*
X6356888Y-9603239D01*
X6355364Y-9630667D02*
X6356888Y-9627620D01*
X6356888Y-9627620D02*
X6356888Y-9621524D01*
X6356888Y-9621524D02*
X6355364Y-9618477D01*
X6355364Y-9618477D02*
X6352316Y-9616953D01*
X6352316Y-9616953D02*
X6340126Y-9616953D01*
X6340126Y-9616953D02*
X6337078Y-9618477D01*
X6337078Y-9618477D02*
X6335554Y-9621524D01*
X6335554Y-9621524D02*
X6335554Y-9627620D01*
X6335554Y-9627620D02*
X6337078Y-9630667D01*
X6337078Y-9630667D02*
X6340126Y-9632191D01*
X6340126Y-9632191D02*
X6343173Y-9632191D01*
X6343173Y-9632191D02*
X6346221Y-9616953D01*
X6355364Y-9644382D02*
X6356888Y-9647429D01*
X6356888Y-9647429D02*
X6356888Y-9653524D01*
X6356888Y-9653524D02*
X6355364Y-9656572D01*
X6355364Y-9656572D02*
X6352316Y-9658096D01*
X6352316Y-9658096D02*
X6350792Y-9658096D01*
X6350792Y-9658096D02*
X6347745Y-9656572D01*
X6347745Y-9656572D02*
X6346221Y-9653524D01*
X6346221Y-9653524D02*
X6346221Y-9648953D01*
X6346221Y-9648953D02*
X6344697Y-9645905D01*
X6344697Y-9645905D02*
X6341650Y-9644382D01*
X6341650Y-9644382D02*
X6340126Y-9644382D01*
X6340126Y-9644382D02*
X6337078Y-9645905D01*
X6337078Y-9645905D02*
X6335554Y-9648953D01*
X6335554Y-9648953D02*
X6335554Y-9653524D01*
X6335554Y-9653524D02*
X6337078Y-9656572D01*
X6355364Y-9670286D02*
X6356888Y-9673334D01*
X6356888Y-9673334D02*
X6356888Y-9679429D01*
X6356888Y-9679429D02*
X6355364Y-9682477D01*
X6355364Y-9682477D02*
X6352316Y-9684001D01*
X6352316Y-9684001D02*
X6350792Y-9684001D01*
X6350792Y-9684001D02*
X6347745Y-9682477D01*
X6347745Y-9682477D02*
X6346221Y-9679429D01*
X6346221Y-9679429D02*
X6346221Y-9674858D01*
X6346221Y-9674858D02*
X6344697Y-9671810D01*
X6344697Y-9671810D02*
X6341650Y-9670286D01*
X6341650Y-9670286D02*
X6340126Y-9670286D01*
X6340126Y-9670286D02*
X6337078Y-9671810D01*
X6337078Y-9671810D02*
X6335554Y-9674858D01*
X6335554Y-9674858D02*
X6335554Y-9679429D01*
X6335554Y-9679429D02*
X6337078Y-9682477D01*
D10*
X7218333Y-8153487D02*
X7227000Y-8141106D01*
X7233190Y-8153487D02*
X7233190Y-8127487D01*
X7233190Y-8127487D02*
X7223286Y-8127487D01*
X7223286Y-8127487D02*
X7220809Y-8128725D01*
X7220809Y-8128725D02*
X7219571Y-8129963D01*
X7219571Y-8129963D02*
X7218333Y-8132439D01*
X7218333Y-8132439D02*
X7218333Y-8136153D01*
X7218333Y-8136153D02*
X7219571Y-8138630D01*
X7219571Y-8138630D02*
X7220809Y-8139868D01*
X7220809Y-8139868D02*
X7223286Y-8141106D01*
X7223286Y-8141106D02*
X7233190Y-8141106D01*
X7205952Y-8153487D02*
X7201000Y-8153487D01*
X7201000Y-8153487D02*
X7198524Y-8152249D01*
X7198524Y-8152249D02*
X7197286Y-8151011D01*
X7197286Y-8151011D02*
X7194809Y-8147296D01*
X7194809Y-8147296D02*
X7193571Y-8142344D01*
X7193571Y-8142344D02*
X7193571Y-8132439D01*
X7193571Y-8132439D02*
X7194809Y-8129963D01*
X7194809Y-8129963D02*
X7196047Y-8128725D01*
X7196047Y-8128725D02*
X7198524Y-8127487D01*
X7198524Y-8127487D02*
X7203476Y-8127487D01*
X7203476Y-8127487D02*
X7205952Y-8128725D01*
X7205952Y-8128725D02*
X7207190Y-8129963D01*
X7207190Y-8129963D02*
X7208428Y-8132439D01*
X7208428Y-8132439D02*
X7208428Y-8138630D01*
X7208428Y-8138630D02*
X7207190Y-8141106D01*
X7207190Y-8141106D02*
X7205952Y-8142344D01*
X7205952Y-8142344D02*
X7203476Y-8143582D01*
X7203476Y-8143582D02*
X7198524Y-8143582D01*
X7198524Y-8143582D02*
X7196047Y-8142344D01*
X7196047Y-8142344D02*
X7194809Y-8141106D01*
X7194809Y-8141106D02*
X7193571Y-8138630D01*
X9446714Y-8671820D02*
X9455381Y-8659439D01*
X9461571Y-8671820D02*
X9461571Y-8645820D01*
X9461571Y-8645820D02*
X9451667Y-8645820D01*
X9451667Y-8645820D02*
X9449190Y-8647058D01*
X9449190Y-8647058D02*
X9447952Y-8648296D01*
X9447952Y-8648296D02*
X9446714Y-8650772D01*
X9446714Y-8650772D02*
X9446714Y-8654487D01*
X9446714Y-8654487D02*
X9447952Y-8656963D01*
X9447952Y-8656963D02*
X9449190Y-8658201D01*
X9449190Y-8658201D02*
X9451667Y-8659439D01*
X9451667Y-8659439D02*
X9461571Y-8659439D01*
X9421952Y-8671820D02*
X9436810Y-8671820D01*
X9429381Y-8671820D02*
X9429381Y-8645820D01*
X9429381Y-8645820D02*
X9431857Y-8649534D01*
X9431857Y-8649534D02*
X9434333Y-8652011D01*
X9434333Y-8652011D02*
X9436810Y-8653249D01*
X9409571Y-8671820D02*
X9404619Y-8671820D01*
X9404619Y-8671820D02*
X9402143Y-8670582D01*
X9402143Y-8670582D02*
X9400905Y-8669344D01*
X9400905Y-8669344D02*
X9398429Y-8665630D01*
X9398429Y-8665630D02*
X9397190Y-8660677D01*
X9397190Y-8660677D02*
X9397190Y-8650772D01*
X9397190Y-8650772D02*
X9398429Y-8648296D01*
X9398429Y-8648296D02*
X9399667Y-8647058D01*
X9399667Y-8647058D02*
X9402143Y-8645820D01*
X9402143Y-8645820D02*
X9407095Y-8645820D01*
X9407095Y-8645820D02*
X9409571Y-8647058D01*
X9409571Y-8647058D02*
X9410810Y-8648296D01*
X9410810Y-8648296D02*
X9412048Y-8650772D01*
X9412048Y-8650772D02*
X9412048Y-8656963D01*
X9412048Y-8656963D02*
X9410810Y-8659439D01*
X9410810Y-8659439D02*
X9409571Y-8660677D01*
X9409571Y-8660677D02*
X9407095Y-8661915D01*
X9407095Y-8661915D02*
X9402143Y-8661915D01*
X9402143Y-8661915D02*
X9399667Y-8660677D01*
X9399667Y-8660677D02*
X9398429Y-8659439D01*
X9398429Y-8659439D02*
X9397190Y-8656963D01*
X9534167Y-8773977D02*
X9535357Y-8775167D01*
X9535357Y-8775167D02*
X9538929Y-8776357D01*
X9538929Y-8776357D02*
X9541309Y-8776357D01*
X9541309Y-8776357D02*
X9544881Y-8775167D01*
X9544881Y-8775167D02*
X9547262Y-8772786D01*
X9547262Y-8772786D02*
X9548452Y-8770405D01*
X9548452Y-8770405D02*
X9549643Y-8765643D01*
X9549643Y-8765643D02*
X9549643Y-8762072D01*
X9549643Y-8762072D02*
X9548452Y-8757310D01*
X9548452Y-8757310D02*
X9547262Y-8754929D01*
X9547262Y-8754929D02*
X9544881Y-8752548D01*
X9544881Y-8752548D02*
X9541309Y-8751357D01*
X9541309Y-8751357D02*
X9538929Y-8751357D01*
X9538929Y-8751357D02*
X9535357Y-8752548D01*
X9535357Y-8752548D02*
X9534167Y-8753738D01*
X9512738Y-8759691D02*
X9512738Y-8776357D01*
X9518690Y-8750167D02*
X9524643Y-8768024D01*
X9524643Y-8768024D02*
X9509167Y-8768024D01*
%TO.C,U3*%
D14*
X9470850Y-8390000D02*
X9470850Y-8540000D01*
X9470850Y-8390000D02*
X9620850Y-8390000D01*
X9470850Y-8540000D02*
X9620850Y-8540000D01*
X9620850Y-8390000D02*
X9620850Y-8540000D01*
D15*
X9505850Y-8287500D02*
G75*
G02*
X9485850Y-8287500I-10000J0D01*
G01*
X9485850Y-8287500D02*
G75*
G02*
X9505850Y-8287500I10000J0D01*
G01*
%TO.C,R14*%
D16*
X9343850Y-8427500D02*
X9397850Y-8427500D01*
X9397850Y-8532500D01*
X9343850Y-8532500D01*
X9343850Y-8427500D01*
%TO.C,R16*%
X9888350Y-8208000D02*
X9993350Y-8208000D01*
X9993350Y-8262000D01*
X9888350Y-8262000D01*
X9888350Y-8208000D01*
%TO.C,Q1*%
D14*
X9845500Y-8310000D02*
X9845500Y-8600000D01*
X9845500Y-8600000D02*
X10005500Y-8600000D01*
X10005500Y-8310000D02*
X9845500Y-8310000D01*
X10005500Y-8600000D02*
X10005500Y-8310000D01*
D15*
X9692700Y-8549500D02*
G75*
G02*
X9672700Y-8549500I-10000J0D01*
G01*
X9672700Y-8549500D02*
G75*
G02*
X9692700Y-8549500I10000J0D01*
G01*
%TO.C,R11*%
D16*
X7161500Y-8514667D02*
X7266500Y-8514667D01*
X7266500Y-8568667D01*
X7161500Y-8568667D01*
X7161500Y-8514667D01*
%TO.C,R2*%
X7161500Y-8978000D02*
X7266500Y-8978000D01*
X7266500Y-9032000D01*
X7161500Y-9032000D01*
X7161500Y-8978000D01*
%TO.C,R8*%
X7161500Y-8248000D02*
X7266500Y-8248000D01*
X7266500Y-8302000D01*
X7161500Y-8302000D01*
X7161500Y-8248000D01*
%TO.C,C10*%
X7136000Y-9110000D02*
X7296000Y-9110000D01*
X7296000Y-9190000D01*
X7136000Y-9190000D01*
X7136000Y-9110000D01*
%TO.C,R17*%
X9878350Y-8648000D02*
X9983350Y-8648000D01*
X9983350Y-8702000D01*
X9878350Y-8702000D01*
X9878350Y-8648000D01*
%TO.C,C9*%
X7136000Y-9420000D02*
X7296000Y-9420000D01*
X7296000Y-9500000D01*
X7136000Y-9500000D01*
X7136000Y-9420000D01*
%TO.C,R10*%
X7161500Y-8381333D02*
X7266500Y-8381333D01*
X7266500Y-8435333D01*
X7161500Y-8435333D01*
X7161500Y-8381333D01*
%TO.C,J2*%
D14*
X6677500Y-8426000D02*
X6862500Y-8426000D01*
X6677500Y-9578000D02*
X6677500Y-8426000D01*
X6862500Y-8426000D02*
X6862500Y-9578000D01*
X6862500Y-9578000D02*
X6677500Y-9578000D01*
D15*
X7010000Y-8522000D02*
G75*
G02*
X6990000Y-8522000I-10000J0D01*
G01*
X6990000Y-8522000D02*
G75*
G02*
X7010000Y-8522000I10000J0D01*
G01*
%TO.C,R9*%
D16*
X7161500Y-8114667D02*
X7266500Y-8114667D01*
X7266500Y-8168667D01*
X7161500Y-8168667D01*
X7161500Y-8114667D01*
%TO.C,R19*%
X9377500Y-8633000D02*
X9482500Y-8633000D01*
X9482500Y-8687000D01*
X9377500Y-8687000D01*
X9377500Y-8633000D01*
%TO.C,C4*%
X9480000Y-8740000D02*
X9580000Y-8740000D01*
X9580000Y-8790000D01*
X9480000Y-8790000D01*
X9480000Y-8740000D01*
%TD*%
M02*
