%TF.GenerationSoftware,KiCad,Pcbnew,10.0.3*%
%TF.CreationDate,2026-09-21T21:17:41+02:00*%
%TF.ProjectId,wulpus_pro_wifi_host,77756c70-7573-45f7-9072-6f5f77696669,v1.0.1*%
%TF.SameCoordinates,Original*%
%TF.FileFunction,Copper,L2,Inr*%
%TF.FilePolarity,Positive*%
%FSLAX45Y45*%
G04 Gerber Fmt 4.5, Leading zero omitted, Abs format (unit mm)*
G04 Created by KiCad (PCBNEW 10.0.3) date 2026-09-21 21:17:41*
%MOMM*%
%LPD*%
G01*
G04 APERTURE LIST*
%TA.AperFunction,ComponentPad*%
%ADD10C,0.600000*%
%TD*%
%TA.AperFunction,ViaPad*%
%ADD11C,0.600000*%
%TD*%
G04 APERTURE END LIST*
D10*
%TO.N,GND*%
%TO.C,U2*%
X10121000Y-9551000D03*
X10001000Y-9551000D03*
%TD*%
%TO.N,GND*%
%TO.C,U4*%
X9468000Y-9556000D03*
X9348000Y-9556000D03*
%TD*%
D11*
%TO.N,GND*%
X8549000Y-8618000D03*
X7387000Y-9958000D03*
X6816000Y-8654000D03*
X6636000Y-9832000D03*
X9304000Y-8274000D03*
X9144000Y-8968000D03*
X9314000Y-9075000D03*
X8183000Y-9483000D03*
X6660000Y-9938000D03*
X8539000Y-8491000D03*
X6758000Y-8715000D03*
X8599000Y-9371000D03*
X7431000Y-9737000D03*
X7941000Y-9465000D03*
X10298000Y-9959000D03*
X7434000Y-8335000D03*
X10083000Y-8924000D03*
X9735000Y-9640000D03*
X6969000Y-9946000D03*
X9305000Y-8111000D03*
X9972000Y-9154000D03*
X6974000Y-8336000D03*
X7378000Y-9432000D03*
X10143000Y-8702000D03*
X9937000Y-8324000D03*
X6721000Y-9370000D03*
X6748000Y-8241000D03*
X9683000Y-9969000D03*
X9020000Y-8114000D03*
X8574000Y-9869000D03*
X7381000Y-9248000D03*
X9685000Y-8408000D03*
X8409000Y-9498000D03*
X9182000Y-8205000D03*
X8318000Y-8521000D03*
X7412000Y-8213000D03*
X9497000Y-9339000D03*
X8532000Y-8201000D03*
X9101000Y-9350000D03*
X7987000Y-9085000D03*
X7581000Y-9441000D03*
X7382000Y-9092000D03*
X9683000Y-8330000D03*
X9898000Y-9153000D03*
X6949000Y-9681000D03*
X9767000Y-8151000D03*
X9072000Y-10011000D03*
X10314000Y-9344000D03*
X8378000Y-8968000D03*
X6693000Y-8295000D03*
X9736000Y-9402000D03*
X8318000Y-8200000D03*
%TO.N,+V_board*%
X6994000Y-9493000D03*
X6996000Y-9435000D03*
%TD*%
%TA.AperFunction,Conductor*%
%TO.N,GND*%
G36*
X10344254Y-8057018D02*
G01*
X10348829Y-8062299D01*
X10349950Y-8067450D01*
X10349950Y-10042550D01*
X10347982Y-10049254D01*
X10342701Y-10053829D01*
X10337550Y-10054950D01*
X8468985Y-10054950D01*
X8462281Y-10052982D01*
X8457706Y-10047701D01*
X8456585Y-10042564D01*
X8456282Y-9764465D01*
X7475543Y-9765535D01*
X7475543Y-9765535D01*
X7473156Y-10042657D01*
X7471130Y-10049344D01*
X7465810Y-10053873D01*
X7460756Y-10054950D01*
X6562450Y-10054950D01*
X6555746Y-10052982D01*
X6551171Y-10047701D01*
X6550050Y-10042550D01*
X6550050Y-9681727D01*
X9074950Y-9681727D01*
X9074950Y-9692273D01*
X9077216Y-9700728D01*
X9077679Y-9702459D01*
X9077679Y-9702459D01*
X9078727Y-9704273D01*
X9082952Y-9711591D01*
X9090409Y-9719048D01*
X9099541Y-9724321D01*
X9109727Y-9727050D01*
X9109728Y-9727050D01*
X9120273Y-9727050D01*
X9120273Y-9727050D01*
X9130459Y-9724321D01*
X9139591Y-9719048D01*
X9147048Y-9711591D01*
X9152321Y-9702459D01*
X9154660Y-9693727D01*
X9539950Y-9693727D01*
X9539950Y-9704273D01*
X9542679Y-9714459D01*
X9547952Y-9723591D01*
X9555409Y-9731048D01*
X9564541Y-9736321D01*
X9574727Y-9739050D01*
X9574728Y-9739050D01*
X9585273Y-9739050D01*
X9585273Y-9739050D01*
X9595459Y-9736321D01*
X9600576Y-9733366D01*
X9607365Y-9731719D01*
X9613968Y-9734004D01*
X9617514Y-9737905D01*
X9621952Y-9745591D01*
X9629409Y-9753048D01*
X9638541Y-9758321D01*
X9648727Y-9761050D01*
X9648728Y-9761050D01*
X9659273Y-9761050D01*
X9659273Y-9761050D01*
X9669459Y-9758321D01*
X9678591Y-9753048D01*
X9686048Y-9745591D01*
X9691321Y-9736459D01*
X9694050Y-9726273D01*
X9694050Y-9715727D01*
X9691321Y-9705541D01*
X9686048Y-9696409D01*
X9678591Y-9688952D01*
X9678202Y-9688727D01*
X9792950Y-9688727D01*
X9792950Y-9699273D01*
X9794630Y-9705541D01*
X9795679Y-9709459D01*
X9795679Y-9709459D01*
X9796727Y-9711273D01*
X9800952Y-9718591D01*
X9808409Y-9726048D01*
X9817541Y-9731321D01*
X9827727Y-9734050D01*
X9827728Y-9734050D01*
X9838273Y-9734050D01*
X9838273Y-9734050D01*
X9848459Y-9731321D01*
X9857591Y-9726048D01*
X9865048Y-9718591D01*
X9867504Y-9714338D01*
X9872560Y-9709517D01*
X9879421Y-9708194D01*
X9884442Y-9709799D01*
X9890541Y-9713321D01*
X9900727Y-9716050D01*
X9900728Y-9716050D01*
X9911273Y-9716050D01*
X9911273Y-9716050D01*
X9921459Y-9713321D01*
X9930591Y-9708048D01*
X9938048Y-9700591D01*
X9938547Y-9699727D01*
X10173950Y-9699727D01*
X10173950Y-9710273D01*
X10176679Y-9720459D01*
X10181952Y-9729591D01*
X10189409Y-9737048D01*
X10198541Y-9742321D01*
X10208727Y-9745050D01*
X10208728Y-9745050D01*
X10219273Y-9745050D01*
X10219273Y-9745050D01*
X10229459Y-9742321D01*
X10237987Y-9737397D01*
X10244776Y-9735750D01*
X10250628Y-9737775D01*
X10250705Y-9737642D01*
X10251409Y-9738048D01*
X10251409Y-9738048D01*
X10260541Y-9743321D01*
X10270727Y-9746050D01*
X10270728Y-9746050D01*
X10281273Y-9746050D01*
X10281273Y-9746050D01*
X10291459Y-9743321D01*
X10300591Y-9738048D01*
X10308048Y-9730591D01*
X10313321Y-9721459D01*
X10316050Y-9711273D01*
X10316050Y-9700727D01*
X10313321Y-9690541D01*
X10308048Y-9681409D01*
X10300591Y-9673952D01*
X10291459Y-9668679D01*
X10281273Y-9665950D01*
X10270727Y-9665950D01*
X10260541Y-9668679D01*
X10260541Y-9668679D01*
X10254956Y-9671904D01*
X10252013Y-9673603D01*
X10245224Y-9675250D01*
X10239372Y-9673225D01*
X10239295Y-9673358D01*
X10238591Y-9672952D01*
X10238591Y-9672952D01*
X10229459Y-9667679D01*
X10219273Y-9664950D01*
X10208727Y-9664950D01*
X10198541Y-9667679D01*
X10198541Y-9667679D01*
X10189409Y-9672952D01*
X10181952Y-9680409D01*
X10176679Y-9689541D01*
X10176679Y-9689541D01*
X10173950Y-9699727D01*
X9938547Y-9699727D01*
X9943321Y-9691459D01*
X9946050Y-9681273D01*
X9946050Y-9670727D01*
X9943321Y-9660541D01*
X9938048Y-9651409D01*
X9930591Y-9643952D01*
X9921459Y-9638679D01*
X9911273Y-9635950D01*
X9900727Y-9635950D01*
X9890541Y-9638679D01*
X9890541Y-9638679D01*
X9881409Y-9643952D01*
X9873952Y-9651409D01*
X9871496Y-9655662D01*
X9866440Y-9660484D01*
X9859579Y-9661806D01*
X9854558Y-9660201D01*
X9848459Y-9656679D01*
X9838273Y-9653950D01*
X9827727Y-9653950D01*
X9817541Y-9656679D01*
X9817541Y-9656679D01*
X9808409Y-9661952D01*
X9800952Y-9669409D01*
X9795679Y-9678541D01*
X9795679Y-9678541D01*
X9792950Y-9688727D01*
X9678202Y-9688727D01*
X9669459Y-9683679D01*
X9659273Y-9680950D01*
X9648727Y-9680950D01*
X9638541Y-9683679D01*
X9638541Y-9683679D01*
X9633424Y-9686634D01*
X9626634Y-9688281D01*
X9620032Y-9685996D01*
X9616486Y-9682095D01*
X9616011Y-9681273D01*
X9612048Y-9674409D01*
X9604591Y-9666952D01*
X9595931Y-9661952D01*
X9595459Y-9661679D01*
X9595459Y-9661679D01*
X9595459Y-9661679D01*
X9585273Y-9658950D01*
X9574727Y-9658950D01*
X9564541Y-9661679D01*
X9564541Y-9661679D01*
X9555409Y-9666952D01*
X9547952Y-9674409D01*
X9542679Y-9683541D01*
X9542679Y-9683541D01*
X9539950Y-9693727D01*
X9154660Y-9693727D01*
X9155050Y-9692273D01*
X9155050Y-9681727D01*
X9152321Y-9671541D01*
X9147048Y-9662409D01*
X9139591Y-9654952D01*
X9130459Y-9649679D01*
X9120273Y-9646950D01*
X9109727Y-9646950D01*
X9099541Y-9649679D01*
X9099541Y-9649679D01*
X9090409Y-9654952D01*
X9082952Y-9662409D01*
X9077679Y-9671541D01*
X9077679Y-9671541D01*
X9074950Y-9681727D01*
X6550050Y-9681727D01*
X6550050Y-9627585D01*
X9311771Y-9627585D01*
X9324665Y-9632926D01*
X9324666Y-9632926D01*
X9340120Y-9636000D01*
X9340121Y-9636000D01*
X9355879Y-9636000D01*
X9355880Y-9636000D01*
X9371334Y-9632926D01*
X9371335Y-9632926D01*
X9384229Y-9627585D01*
X9431771Y-9627585D01*
X9444665Y-9632926D01*
X9444666Y-9632926D01*
X9460120Y-9636000D01*
X9460121Y-9636000D01*
X9475879Y-9636000D01*
X9475880Y-9636000D01*
X9491334Y-9632926D01*
X9491335Y-9632926D01*
X9504229Y-9627585D01*
X9499229Y-9622585D01*
X9964771Y-9622585D01*
X9977665Y-9627926D01*
X9977666Y-9627926D01*
X9993120Y-9631000D01*
X9993121Y-9631000D01*
X10008879Y-9631000D01*
X10008880Y-9631000D01*
X10024334Y-9627926D01*
X10024335Y-9627926D01*
X10037229Y-9622585D01*
X10084771Y-9622585D01*
X10097665Y-9627926D01*
X10097666Y-9627926D01*
X10113120Y-9631000D01*
X10113121Y-9631000D01*
X10128879Y-9631000D01*
X10128880Y-9631000D01*
X10144334Y-9627926D01*
X10144335Y-9627926D01*
X10157229Y-9622585D01*
X10121000Y-9586355D01*
X10121000Y-9586355D01*
X10084771Y-9622585D01*
X10037229Y-9622585D01*
X10001000Y-9586355D01*
X10001000Y-9586355D01*
X9964771Y-9622585D01*
X9499229Y-9622585D01*
X9468000Y-9591355D01*
X9468000Y-9591355D01*
X9431771Y-9627585D01*
X9384229Y-9627585D01*
X9348000Y-9591355D01*
X9348000Y-9591355D01*
X9311771Y-9627585D01*
X6550050Y-9627585D01*
X6550050Y-9534727D01*
X6677450Y-9534727D01*
X6677450Y-9545273D01*
X6678985Y-9551000D01*
X6680179Y-9555459D01*
X6680180Y-9555459D01*
X6680492Y-9556000D01*
X6685452Y-9564591D01*
X6692909Y-9572048D01*
X6702041Y-9577321D01*
X6712227Y-9580050D01*
X6712228Y-9580050D01*
X6722773Y-9580050D01*
X6722773Y-9580050D01*
X6732959Y-9577321D01*
X6742091Y-9572048D01*
X6749548Y-9564591D01*
X6754821Y-9555459D01*
X6756787Y-9548120D01*
X9268000Y-9548120D01*
X9268000Y-9563880D01*
X9271074Y-9579334D01*
X9271074Y-9579335D01*
X9276415Y-9592229D01*
X9312645Y-9556000D01*
X9312645Y-9556000D01*
X9309661Y-9553016D01*
X9333000Y-9553016D01*
X9333000Y-9558984D01*
X9335284Y-9564497D01*
X9339503Y-9568716D01*
X9345016Y-9571000D01*
X9350984Y-9571000D01*
X9356497Y-9568716D01*
X9360716Y-9564497D01*
X9363000Y-9558984D01*
X9363000Y-9556000D01*
X9383355Y-9556000D01*
X9408000Y-9580645D01*
X9432645Y-9556000D01*
X9432645Y-9556000D01*
X9429661Y-9553016D01*
X9453000Y-9553016D01*
X9453000Y-9558984D01*
X9455284Y-9564497D01*
X9459503Y-9568716D01*
X9465016Y-9571000D01*
X9470984Y-9571000D01*
X9476497Y-9568716D01*
X9480716Y-9564497D01*
X9483000Y-9558984D01*
X9483000Y-9556000D01*
X9503355Y-9556000D01*
X9503355Y-9556000D01*
X9539585Y-9592229D01*
X9544926Y-9579335D01*
X9544926Y-9579334D01*
X9548000Y-9563880D01*
X9548000Y-9563879D01*
X9548000Y-9548121D01*
X9548000Y-9548120D01*
X9547366Y-9544931D01*
X9547005Y-9543120D01*
X9921000Y-9543120D01*
X9921000Y-9558880D01*
X9924074Y-9574334D01*
X9924074Y-9574335D01*
X9929415Y-9587229D01*
X9965645Y-9551000D01*
X9965645Y-9551000D01*
X9962661Y-9548016D01*
X9986000Y-9548016D01*
X9986000Y-9553984D01*
X9988284Y-9559497D01*
X9992503Y-9563716D01*
X9998016Y-9566000D01*
X10003984Y-9566000D01*
X10009497Y-9563716D01*
X10013716Y-9559497D01*
X10016000Y-9553984D01*
X10016000Y-9551000D01*
X10036355Y-9551000D01*
X10061000Y-9575645D01*
X10085645Y-9551000D01*
X10085645Y-9551000D01*
X10082661Y-9548016D01*
X10106000Y-9548016D01*
X10106000Y-9553984D01*
X10108284Y-9559497D01*
X10112503Y-9563716D01*
X10118016Y-9566000D01*
X10123984Y-9566000D01*
X10129497Y-9563716D01*
X10133716Y-9559497D01*
X10136000Y-9553984D01*
X10136000Y-9551000D01*
X10156355Y-9551000D01*
X10156355Y-9551000D01*
X10192585Y-9587229D01*
X10197926Y-9574335D01*
X10197926Y-9574334D01*
X10201000Y-9558880D01*
X10201000Y-9558879D01*
X10201000Y-9543121D01*
X10201000Y-9543120D01*
X10197926Y-9527666D01*
X10197926Y-9527665D01*
X10192585Y-9514771D01*
X10156355Y-9551000D01*
X10136000Y-9551000D01*
X10136000Y-9548016D01*
X10133716Y-9542503D01*
X10129497Y-9538284D01*
X10123984Y-9536000D01*
X10118016Y-9536000D01*
X10112503Y-9538284D01*
X10108284Y-9542503D01*
X10106000Y-9548016D01*
X10082661Y-9548016D01*
X10061000Y-9526355D01*
X10036355Y-9551000D01*
X10016000Y-9551000D01*
X10016000Y-9548016D01*
X10013716Y-9542503D01*
X10009497Y-9538284D01*
X10003984Y-9536000D01*
X9998016Y-9536000D01*
X9992503Y-9538284D01*
X9988284Y-9542503D01*
X9986000Y-9548016D01*
X9962661Y-9548016D01*
X9929415Y-9514771D01*
X9924074Y-9527665D01*
X9924074Y-9527666D01*
X9921000Y-9543120D01*
X9547005Y-9543120D01*
X9544926Y-9532666D01*
X9544926Y-9532665D01*
X9539585Y-9519771D01*
X9503355Y-9556000D01*
X9483000Y-9556000D01*
X9483000Y-9553016D01*
X9480716Y-9547503D01*
X9476497Y-9543284D01*
X9470984Y-9541000D01*
X9465016Y-9541000D01*
X9459503Y-9543284D01*
X9455284Y-9547503D01*
X9453000Y-9553016D01*
X9429661Y-9553016D01*
X9408000Y-9531355D01*
X9383355Y-9556000D01*
X9363000Y-9556000D01*
X9363000Y-9553016D01*
X9360716Y-9547503D01*
X9356497Y-9543284D01*
X9350984Y-9541000D01*
X9345016Y-9541000D01*
X9339503Y-9543284D01*
X9335284Y-9547503D01*
X9333000Y-9553016D01*
X9309661Y-9553016D01*
X9276415Y-9519771D01*
X9271074Y-9532665D01*
X9271074Y-9532666D01*
X9268000Y-9548120D01*
X6756787Y-9548120D01*
X6757550Y-9545273D01*
X6757550Y-9534727D01*
X6754821Y-9524541D01*
X6753216Y-9521761D01*
X6751568Y-9514971D01*
X6753854Y-9508369D01*
X6759346Y-9504049D01*
X6760744Y-9503584D01*
X6765459Y-9502321D01*
X6774591Y-9497048D01*
X6782048Y-9489591D01*
X6783884Y-9486411D01*
X6943950Y-9486411D01*
X6943950Y-9499589D01*
X6944682Y-9502321D01*
X6947361Y-9512319D01*
X6950655Y-9518025D01*
X6953950Y-9523731D01*
X6963269Y-9533050D01*
X6973152Y-9538756D01*
X6974681Y-9539639D01*
X6974681Y-9539639D01*
X6987411Y-9543050D01*
X6987411Y-9543050D01*
X7000589Y-9543050D01*
X7000589Y-9543050D01*
X7013319Y-9539639D01*
X7024731Y-9533050D01*
X7034050Y-9523731D01*
X7040639Y-9512319D01*
X7044050Y-9499589D01*
X7044050Y-9486411D01*
X7043515Y-9484415D01*
X9311771Y-9484415D01*
X9348000Y-9520645D01*
X9348000Y-9520645D01*
X9384229Y-9484415D01*
X9431771Y-9484415D01*
X9468000Y-9520645D01*
X9468000Y-9520645D01*
X9504229Y-9484415D01*
X9492158Y-9479415D01*
X9964771Y-9479415D01*
X10001000Y-9515645D01*
X10001000Y-9515645D01*
X10037229Y-9479415D01*
X10084771Y-9479415D01*
X10121000Y-9515645D01*
X10121000Y-9515645D01*
X10157229Y-9479415D01*
X10144335Y-9474074D01*
X10144334Y-9474074D01*
X10128880Y-9471000D01*
X10113120Y-9471000D01*
X10097666Y-9474074D01*
X10097665Y-9474074D01*
X10084771Y-9479415D01*
X10037229Y-9479415D01*
X10024335Y-9474074D01*
X10024334Y-9474074D01*
X10008880Y-9471000D01*
X9993120Y-9471000D01*
X9977666Y-9474074D01*
X9977665Y-9474074D01*
X9964771Y-9479415D01*
X9492158Y-9479415D01*
X9491335Y-9479074D01*
X9491334Y-9479074D01*
X9475880Y-9476000D01*
X9460120Y-9476000D01*
X9444666Y-9479074D01*
X9444665Y-9479074D01*
X9431771Y-9484415D01*
X9384229Y-9484415D01*
X9371335Y-9479074D01*
X9371334Y-9479074D01*
X9355880Y-9476000D01*
X9340120Y-9476000D01*
X9324666Y-9479074D01*
X9324665Y-9479074D01*
X9311771Y-9484415D01*
X7043515Y-9484415D01*
X7040639Y-9473681D01*
X7038811Y-9470514D01*
X7038388Y-9468933D01*
X7038435Y-9467011D01*
X7037982Y-9465142D01*
X7038526Y-9463287D01*
X7038559Y-9461948D01*
X7039195Y-9461010D01*
X7039629Y-9459532D01*
X7042639Y-9454319D01*
X7042639Y-9454319D01*
X7042639Y-9454319D01*
X7046050Y-9441589D01*
X7046050Y-9428411D01*
X7042639Y-9415681D01*
X7036050Y-9404269D01*
X7026731Y-9394950D01*
X7021025Y-9391655D01*
X7015319Y-9388361D01*
X7008954Y-9386655D01*
X7002589Y-9384950D01*
X6989411Y-9384950D01*
X6976681Y-9388361D01*
X6965269Y-9394950D01*
X6965268Y-9394950D01*
X6955950Y-9404268D01*
X6955950Y-9404269D01*
X6949361Y-9415681D01*
X6946877Y-9424950D01*
X6945950Y-9428411D01*
X6945950Y-9441589D01*
X6948081Y-9449541D01*
X6949361Y-9454319D01*
X6949361Y-9454319D01*
X6950371Y-9456068D01*
X6950371Y-9456070D01*
X6950372Y-9456071D01*
X6951247Y-9459679D01*
X6952018Y-9462858D01*
X6952017Y-9462860D01*
X6952018Y-9462861D01*
X6951349Y-9466327D01*
X6950962Y-9467444D01*
X6947361Y-9473681D01*
X6943950Y-9486411D01*
X6783884Y-9486411D01*
X6787321Y-9480459D01*
X6790050Y-9470273D01*
X6790050Y-9459727D01*
X6787321Y-9449541D01*
X6782048Y-9440409D01*
X6774591Y-9432952D01*
X6767906Y-9429092D01*
X6765459Y-9427679D01*
X6765459Y-9427679D01*
X6765459Y-9427679D01*
X6755273Y-9424950D01*
X6744727Y-9424950D01*
X6734541Y-9427679D01*
X6734541Y-9427679D01*
X6725408Y-9432952D01*
X6717952Y-9440409D01*
X6712679Y-9449541D01*
X6712679Y-9449541D01*
X6709950Y-9459727D01*
X6709950Y-9470273D01*
X6712400Y-9479415D01*
X6712679Y-9480459D01*
X6712679Y-9480459D01*
X6714284Y-9483239D01*
X6715932Y-9490029D01*
X6713646Y-9496632D01*
X6708154Y-9500951D01*
X6706755Y-9501416D01*
X6702041Y-9502679D01*
X6702041Y-9502679D01*
X6702041Y-9502679D01*
X6692909Y-9507952D01*
X6685452Y-9515409D01*
X6680180Y-9524541D01*
X6680179Y-9524541D01*
X6677450Y-9534727D01*
X6550050Y-9534727D01*
X6550050Y-9139727D01*
X6689950Y-9139727D01*
X6689950Y-9150273D01*
X6692679Y-9160459D01*
X6697952Y-9169591D01*
X6705409Y-9177048D01*
X6714541Y-9182321D01*
X6724727Y-9185050D01*
X6724727Y-9185050D01*
X6735272Y-9185050D01*
X6735273Y-9185050D01*
X6745459Y-9182321D01*
X6749060Y-9180241D01*
X6755850Y-9178594D01*
X6762453Y-9180879D01*
X6766772Y-9186371D01*
X6767436Y-9193327D01*
X6767238Y-9194189D01*
X6764950Y-9202727D01*
X6764950Y-9202727D01*
X6764950Y-9213273D01*
X6767679Y-9223459D01*
X6772952Y-9232591D01*
X6780409Y-9240048D01*
X6780912Y-9240339D01*
X6785733Y-9245395D01*
X6787056Y-9252255D01*
X6785451Y-9257277D01*
X6780679Y-9265541D01*
X6780679Y-9265541D01*
X6777950Y-9275727D01*
X6777950Y-9286273D01*
X6780679Y-9296459D01*
X6785952Y-9305591D01*
X6793409Y-9313048D01*
X6802541Y-9318321D01*
X6812727Y-9321050D01*
X6812727Y-9321050D01*
X6823272Y-9321050D01*
X6823273Y-9321050D01*
X6833459Y-9318321D01*
X6842591Y-9313048D01*
X6850048Y-9305591D01*
X6855321Y-9296459D01*
X6858050Y-9286273D01*
X6858050Y-9275727D01*
X6855321Y-9265541D01*
X6850048Y-9256409D01*
X6843362Y-9249722D01*
X6948428Y-9249722D01*
X6948428Y-9260268D01*
X6951157Y-9270454D01*
X6956430Y-9279586D01*
X6963886Y-9287043D01*
X6973019Y-9292316D01*
X6983205Y-9295045D01*
X6983205Y-9295045D01*
X6993750Y-9295045D01*
X6993750Y-9295045D01*
X7003936Y-9292316D01*
X7013069Y-9287043D01*
X7020526Y-9279586D01*
X7025798Y-9270454D01*
X7028528Y-9260268D01*
X7028528Y-9249722D01*
X7025956Y-9240125D01*
X7025968Y-9239636D01*
X7025746Y-9239200D01*
X7026050Y-9236177D01*
X7026122Y-9233140D01*
X7026397Y-9232735D01*
X7026397Y-9232727D01*
X10175950Y-9232727D01*
X10175950Y-9243273D01*
X10178679Y-9253459D01*
X10183952Y-9262591D01*
X10191409Y-9270048D01*
X10200541Y-9275321D01*
X10210727Y-9278050D01*
X10210728Y-9278050D01*
X10221273Y-9278050D01*
X10221273Y-9278050D01*
X10231459Y-9275321D01*
X10240591Y-9270048D01*
X10248048Y-9262591D01*
X10253321Y-9253459D01*
X10256050Y-9243273D01*
X10256050Y-9232727D01*
X10253321Y-9222541D01*
X10248048Y-9213409D01*
X10240591Y-9205952D01*
X10231459Y-9200679D01*
X10221273Y-9197950D01*
X10210727Y-9197950D01*
X10200541Y-9200679D01*
X10200541Y-9200679D01*
X10191409Y-9205952D01*
X10183952Y-9213409D01*
X10178679Y-9222541D01*
X10178679Y-9222541D01*
X10175950Y-9232727D01*
X7026397Y-9232727D01*
X7026446Y-9232248D01*
X7028336Y-9229870D01*
X7030039Y-9227354D01*
X7030572Y-9227056D01*
X7030793Y-9226778D01*
X7032506Y-9225976D01*
X7033938Y-9225177D01*
X7034325Y-9225045D01*
X7044401Y-9222346D01*
X7053534Y-9217073D01*
X7060990Y-9209616D01*
X7066263Y-9200484D01*
X7068992Y-9190298D01*
X7068992Y-9179752D01*
X7066263Y-9169566D01*
X7060990Y-9160434D01*
X7053534Y-9152977D01*
X7044401Y-9147704D01*
X7034215Y-9144975D01*
X7028441Y-9144975D01*
X7021737Y-9143006D01*
X7017162Y-9137726D01*
X7016167Y-9130810D01*
X7019070Y-9124455D01*
X7019673Y-9123807D01*
X7024998Y-9118482D01*
X7030271Y-9109349D01*
X7033000Y-9099163D01*
X7033000Y-9088618D01*
X7030271Y-9078432D01*
X7024998Y-9069299D01*
X7017541Y-9061842D01*
X7008409Y-9056570D01*
X6998223Y-9053840D01*
X6987677Y-9053840D01*
X6977491Y-9056570D01*
X6977491Y-9056570D01*
X6968358Y-9061843D01*
X6960902Y-9069299D01*
X6955629Y-9078431D01*
X6955629Y-9078432D01*
X6952900Y-9088618D01*
X6952900Y-9099163D01*
X6955629Y-9109349D01*
X6960902Y-9118482D01*
X6968359Y-9125938D01*
X6977491Y-9131211D01*
X6987677Y-9133940D01*
X6987677Y-9133940D01*
X6993451Y-9133940D01*
X7000155Y-9135909D01*
X7004731Y-9141189D01*
X7005725Y-9148105D01*
X7002823Y-9154461D01*
X7002219Y-9155109D01*
X6996894Y-9160433D01*
X6991622Y-9169566D01*
X6991622Y-9169566D01*
X6988892Y-9179752D01*
X6988892Y-9190298D01*
X6991464Y-9199895D01*
X6991298Y-9206880D01*
X6987381Y-9212666D01*
X6982696Y-9215082D01*
X6973019Y-9217674D01*
X6973019Y-9217675D01*
X6973019Y-9217675D01*
X6963886Y-9222947D01*
X6956430Y-9230404D01*
X6951157Y-9239536D01*
X6951157Y-9239536D01*
X6948428Y-9249722D01*
X6843362Y-9249722D01*
X6842591Y-9248952D01*
X6840830Y-9247935D01*
X6839775Y-9246939D01*
X6838716Y-9245125D01*
X6837266Y-9243605D01*
X6836989Y-9242168D01*
X6836252Y-9240905D01*
X6836342Y-9238807D01*
X6835944Y-9236744D01*
X6836505Y-9234990D01*
X6836550Y-9233924D01*
X6837090Y-9233158D01*
X6837549Y-9231723D01*
X6842321Y-9223459D01*
X6845050Y-9213273D01*
X6845050Y-9202727D01*
X6842321Y-9192541D01*
X6837048Y-9183409D01*
X6829591Y-9175952D01*
X6822906Y-9172092D01*
X6820459Y-9170679D01*
X6820459Y-9170679D01*
X6820459Y-9170679D01*
X6810273Y-9167950D01*
X6799727Y-9167950D01*
X6789541Y-9170679D01*
X6789541Y-9170680D01*
X6785939Y-9172759D01*
X6779149Y-9174406D01*
X6772547Y-9172121D01*
X6768228Y-9166628D01*
X6767564Y-9159673D01*
X6767761Y-9158814D01*
X6770050Y-9150273D01*
X6770050Y-9139727D01*
X6767321Y-9129541D01*
X6766060Y-9127358D01*
X6764413Y-9120569D01*
X6766698Y-9113966D01*
X6772190Y-9109647D01*
X6773589Y-9109181D01*
X6776228Y-9108474D01*
X6785361Y-9103202D01*
X6792817Y-9095745D01*
X6798090Y-9086612D01*
X6800819Y-9076426D01*
X6800819Y-9065881D01*
X6798090Y-9055695D01*
X6796954Y-9053727D01*
X9623950Y-9053727D01*
X9623950Y-9064273D01*
X9626679Y-9074459D01*
X9631952Y-9083591D01*
X9639409Y-9091048D01*
X9648541Y-9096321D01*
X9658727Y-9099050D01*
X9658728Y-9099050D01*
X9669273Y-9099050D01*
X9669273Y-9099050D01*
X9679459Y-9096321D01*
X9688591Y-9091048D01*
X9696048Y-9083591D01*
X9701321Y-9074459D01*
X9704050Y-9064273D01*
X9704050Y-9053727D01*
X9701321Y-9043541D01*
X9696048Y-9034409D01*
X9688591Y-9026952D01*
X9679459Y-9021679D01*
X9669273Y-9018950D01*
X9658727Y-9018950D01*
X9648541Y-9021679D01*
X9648541Y-9021679D01*
X9639409Y-9026952D01*
X9631952Y-9034409D01*
X9626679Y-9043541D01*
X9626679Y-9043541D01*
X9623950Y-9053727D01*
X6796954Y-9053727D01*
X6792817Y-9046562D01*
X6787667Y-9041412D01*
X6784318Y-9035280D01*
X6784817Y-9028310D01*
X6789004Y-9022717D01*
X6790233Y-9021906D01*
X6796105Y-9018516D01*
X6803562Y-9011060D01*
X6808834Y-9001927D01*
X6811564Y-8991741D01*
X6811564Y-8981196D01*
X6808834Y-8971010D01*
X6803562Y-8961877D01*
X6803561Y-8961877D01*
X6803155Y-8961173D01*
X6803325Y-8961075D01*
X6801190Y-8955553D01*
X6802594Y-8948708D01*
X6807347Y-8943782D01*
X6813249Y-8940375D01*
X6820706Y-8932918D01*
X6825979Y-8923785D01*
X6828708Y-8913599D01*
X6828708Y-8903054D01*
X6825979Y-8892868D01*
X6820706Y-8883735D01*
X6816698Y-8879727D01*
X9703950Y-8879727D01*
X9703950Y-8890273D01*
X9706679Y-8900459D01*
X9711952Y-8909591D01*
X9719409Y-8917048D01*
X9728541Y-8922321D01*
X9738727Y-8925050D01*
X9738728Y-8925050D01*
X9749273Y-8925050D01*
X9749273Y-8925050D01*
X9759459Y-8922321D01*
X9768591Y-8917048D01*
X9776048Y-8909591D01*
X9781321Y-8900459D01*
X9784050Y-8890273D01*
X9784050Y-8889727D01*
X10204950Y-8889727D01*
X10204950Y-8900273D01*
X10207679Y-8910459D01*
X10212952Y-8919591D01*
X10220409Y-8927048D01*
X10229541Y-8932321D01*
X10239727Y-8935050D01*
X10239728Y-8935050D01*
X10250273Y-8935050D01*
X10250273Y-8935050D01*
X10260459Y-8932321D01*
X10269591Y-8927048D01*
X10277048Y-8919591D01*
X10282321Y-8910459D01*
X10285050Y-8900273D01*
X10285050Y-8889727D01*
X10282321Y-8879541D01*
X10277048Y-8870409D01*
X10269591Y-8862952D01*
X10260459Y-8857679D01*
X10250273Y-8854950D01*
X10239727Y-8854950D01*
X10229541Y-8857679D01*
X10229541Y-8857679D01*
X10220409Y-8862952D01*
X10212952Y-8870409D01*
X10207679Y-8879541D01*
X10207679Y-8879541D01*
X10204950Y-8889727D01*
X9784050Y-8889727D01*
X9784050Y-8879727D01*
X9781321Y-8869541D01*
X9776048Y-8860409D01*
X9768591Y-8852952D01*
X9759459Y-8847679D01*
X9749273Y-8844950D01*
X9738727Y-8844950D01*
X9728541Y-8847679D01*
X9728541Y-8847679D01*
X9719409Y-8852952D01*
X9711952Y-8860409D01*
X9706679Y-8869541D01*
X9706679Y-8869541D01*
X9703950Y-8879727D01*
X6816698Y-8879727D01*
X6813249Y-8876279D01*
X6804117Y-8871006D01*
X6793931Y-8868277D01*
X6793931Y-8868277D01*
X6793705Y-8868216D01*
X6787739Y-8864580D01*
X6784686Y-8858295D01*
X6785516Y-8851358D01*
X6789964Y-8845970D01*
X6792170Y-8844782D01*
X6792700Y-8844563D01*
X6792701Y-8844563D01*
X6801833Y-8839290D01*
X6809290Y-8831833D01*
X6814563Y-8822701D01*
X6817292Y-8812515D01*
X6817292Y-8801969D01*
X6814563Y-8791783D01*
X6809290Y-8782651D01*
X6801833Y-8775194D01*
X6792701Y-8769921D01*
X6792701Y-8769921D01*
X6792664Y-8769911D01*
X6792592Y-8769892D01*
X6788205Y-8768717D01*
X6782515Y-8767192D01*
X6771969Y-8767192D01*
X6761783Y-8769921D01*
X6761783Y-8769921D01*
X6752650Y-8775194D01*
X6745194Y-8782650D01*
X6739921Y-8791783D01*
X6739921Y-8791783D01*
X6737192Y-8801969D01*
X6737192Y-8812515D01*
X6739921Y-8822701D01*
X6745194Y-8831833D01*
X6752651Y-8839290D01*
X6761783Y-8844563D01*
X6771969Y-8847292D01*
X6771969Y-8847292D01*
X6772195Y-8847352D01*
X6778161Y-8850989D01*
X6781214Y-8857273D01*
X6780384Y-8864211D01*
X6775936Y-8869599D01*
X6773731Y-8870786D01*
X6773199Y-8871006D01*
X6764067Y-8876279D01*
X6756610Y-8883735D01*
X6751338Y-8892868D01*
X6751337Y-8892868D01*
X6748608Y-8903054D01*
X6748608Y-8913599D01*
X6751337Y-8923785D01*
X6756610Y-8932918D01*
X6756610Y-8932918D01*
X6757017Y-8933622D01*
X6756847Y-8933720D01*
X6758982Y-8939243D01*
X6757578Y-8946087D01*
X6752825Y-8951012D01*
X6746922Y-8954420D01*
X6739466Y-8961877D01*
X6734193Y-8971009D01*
X6734193Y-8971010D01*
X6731464Y-8981196D01*
X6731464Y-8991741D01*
X6734193Y-9001927D01*
X6734193Y-9001927D01*
X6739466Y-9011060D01*
X6744616Y-9016210D01*
X6747964Y-9022342D01*
X6747466Y-9029311D01*
X6743279Y-9034905D01*
X6742048Y-9035716D01*
X6736178Y-9039106D01*
X6736178Y-9039106D01*
X6728721Y-9046562D01*
X6723449Y-9055695D01*
X6723449Y-9055695D01*
X6720719Y-9065881D01*
X6720719Y-9076426D01*
X6722639Y-9083591D01*
X6723449Y-9086612D01*
X6723449Y-9086613D01*
X6724709Y-9088795D01*
X6726356Y-9095585D01*
X6724071Y-9102188D01*
X6718578Y-9106507D01*
X6717180Y-9106972D01*
X6714541Y-9107679D01*
X6714541Y-9107679D01*
X6705408Y-9112952D01*
X6697952Y-9120409D01*
X6692679Y-9129541D01*
X6692679Y-9129541D01*
X6689950Y-9139727D01*
X6550050Y-9139727D01*
X6550050Y-8758727D01*
X8508950Y-8758727D01*
X8508950Y-8769273D01*
X8510979Y-8776845D01*
X8511679Y-8779459D01*
X8511679Y-8779459D01*
X8513092Y-8781906D01*
X8516373Y-8787588D01*
X8516952Y-8788591D01*
X8521093Y-8792732D01*
X8524441Y-8798864D01*
X8523943Y-8805833D01*
X8521093Y-8810268D01*
X8517952Y-8813409D01*
X8512679Y-8822541D01*
X8512679Y-8822541D01*
X8509950Y-8832727D01*
X8509950Y-8843273D01*
X8512679Y-8853459D01*
X8517952Y-8862591D01*
X8525409Y-8870048D01*
X8534541Y-8875321D01*
X8544727Y-8878050D01*
X8544728Y-8878050D01*
X8555273Y-8878050D01*
X8555273Y-8878050D01*
X8565459Y-8875321D01*
X8574591Y-8870048D01*
X8582048Y-8862591D01*
X8587321Y-8853459D01*
X8590050Y-8843273D01*
X8590050Y-8832727D01*
X8587321Y-8822541D01*
X8582048Y-8813409D01*
X8577907Y-8809268D01*
X8574559Y-8803136D01*
X8575057Y-8796167D01*
X8577907Y-8791732D01*
X8579181Y-8790459D01*
X8581048Y-8788591D01*
X8586321Y-8779459D01*
X8589050Y-8769273D01*
X8589050Y-8758727D01*
X8586321Y-8748541D01*
X8581048Y-8739409D01*
X8573591Y-8731952D01*
X8565809Y-8727459D01*
X8564459Y-8726679D01*
X8564459Y-8726679D01*
X8564459Y-8726679D01*
X8554273Y-8723950D01*
X8543727Y-8723950D01*
X8533541Y-8726679D01*
X8533541Y-8726679D01*
X8524409Y-8731952D01*
X8516952Y-8739409D01*
X8511679Y-8748541D01*
X8511679Y-8748541D01*
X8508950Y-8758727D01*
X6550050Y-8758727D01*
X6550050Y-8659727D01*
X7329950Y-8659727D01*
X7329950Y-8670273D01*
X7332679Y-8680459D01*
X7337952Y-8689591D01*
X7345409Y-8697048D01*
X7354541Y-8702321D01*
X7364727Y-8705050D01*
X7364727Y-8705050D01*
X7375272Y-8705050D01*
X7375273Y-8705050D01*
X7385459Y-8702321D01*
X7386486Y-8701727D01*
X8970950Y-8701727D01*
X8970950Y-8712273D01*
X8973679Y-8722459D01*
X8978952Y-8731591D01*
X8986409Y-8739048D01*
X8995541Y-8744321D01*
X9005727Y-8747050D01*
X9005728Y-8747050D01*
X9016273Y-8747050D01*
X9016273Y-8747050D01*
X9026459Y-8744321D01*
X9035591Y-8739048D01*
X9041142Y-8733497D01*
X9047274Y-8730149D01*
X9054243Y-8730647D01*
X9059837Y-8734835D01*
X9060648Y-8736065D01*
X9060952Y-8736591D01*
X9068409Y-8744048D01*
X9077541Y-8749321D01*
X9087727Y-8752050D01*
X9087728Y-8752050D01*
X9098273Y-8752050D01*
X9098273Y-8752050D01*
X9108459Y-8749321D01*
X9117591Y-8744048D01*
X9125048Y-8736591D01*
X9130321Y-8727459D01*
X9133050Y-8717273D01*
X9133050Y-8706727D01*
X9130321Y-8696541D01*
X9125048Y-8687409D01*
X9117591Y-8679952D01*
X9108931Y-8674952D01*
X9108459Y-8674679D01*
X9108459Y-8674679D01*
X9108459Y-8674679D01*
X9098273Y-8671950D01*
X9087727Y-8671950D01*
X9087727Y-8671950D01*
X9080467Y-8673895D01*
X9073482Y-8673729D01*
X9067696Y-8669813D01*
X9064945Y-8663390D01*
X9065225Y-8661727D01*
X9252950Y-8661727D01*
X9252950Y-8672273D01*
X9255679Y-8682459D01*
X9260952Y-8691591D01*
X9268409Y-8699048D01*
X9277541Y-8704321D01*
X9287727Y-8707050D01*
X9287728Y-8707050D01*
X9298273Y-8707050D01*
X9298273Y-8707050D01*
X9308459Y-8704321D01*
X9317591Y-8699048D01*
X9325048Y-8691591D01*
X9330321Y-8682459D01*
X9333050Y-8672273D01*
X9333050Y-8665727D01*
X9556950Y-8665727D01*
X9556950Y-8676273D01*
X9559679Y-8686459D01*
X9564952Y-8695591D01*
X9572409Y-8703048D01*
X9581541Y-8708321D01*
X9591727Y-8711050D01*
X9591728Y-8711050D01*
X9591841Y-8711080D01*
X9597807Y-8714717D01*
X9600860Y-8721002D01*
X9600609Y-8726267D01*
X9599950Y-8728727D01*
X9599950Y-8739273D01*
X9602679Y-8749459D01*
X9607952Y-8758591D01*
X9615409Y-8766048D01*
X9620840Y-8769184D01*
X9625662Y-8774241D01*
X9626984Y-8781101D01*
X9624387Y-8787588D01*
X9620840Y-8790661D01*
X9613409Y-8794952D01*
X9605952Y-8802409D01*
X9600679Y-8811541D01*
X9600679Y-8811541D01*
X9597950Y-8821727D01*
X9597950Y-8832273D01*
X9600679Y-8842459D01*
X9605952Y-8851591D01*
X9613409Y-8859048D01*
X9622541Y-8864321D01*
X9632727Y-8867050D01*
X9632728Y-8867050D01*
X9643272Y-8867050D01*
X9643273Y-8867050D01*
X9653459Y-8864321D01*
X9662591Y-8859048D01*
X9670048Y-8851591D01*
X9675321Y-8842459D01*
X9678050Y-8832273D01*
X9678050Y-8821727D01*
X9675321Y-8811541D01*
X9670048Y-8802409D01*
X9662591Y-8794952D01*
X9657159Y-8791816D01*
X9654889Y-8789434D01*
X9652539Y-8787132D01*
X9652490Y-8786918D01*
X9652338Y-8786759D01*
X9651716Y-8783530D01*
X9650983Y-8780321D01*
X9651057Y-8780114D01*
X9651016Y-8779899D01*
X9652238Y-8776845D01*
X9653356Y-8773750D01*
X9653545Y-8773580D01*
X9653613Y-8773412D01*
X9655826Y-8771228D01*
X9656463Y-8770741D01*
X9658218Y-8769727D01*
X9703950Y-8769727D01*
X9703950Y-8780273D01*
X9706679Y-8790459D01*
X9711952Y-8799591D01*
X9719409Y-8807048D01*
X9728541Y-8812321D01*
X9738727Y-8815050D01*
X9738728Y-8815050D01*
X9749273Y-8815050D01*
X9749273Y-8815050D01*
X9759459Y-8812321D01*
X9768591Y-8807048D01*
X9776048Y-8799591D01*
X9781321Y-8790459D01*
X9784050Y-8780273D01*
X9784050Y-8769727D01*
X9781321Y-8759541D01*
X9776048Y-8750409D01*
X9768591Y-8742952D01*
X9761427Y-8738816D01*
X9756606Y-8733759D01*
X9755284Y-8726899D01*
X9757881Y-8720412D01*
X9761428Y-8717339D01*
X9761459Y-8717321D01*
X9761459Y-8717321D01*
X9770591Y-8712048D01*
X9778048Y-8704591D01*
X9783321Y-8695459D01*
X9786050Y-8685273D01*
X9786050Y-8674727D01*
X9783321Y-8664541D01*
X9778048Y-8655409D01*
X9770591Y-8647952D01*
X9761459Y-8642679D01*
X9751273Y-8639950D01*
X9740727Y-8639950D01*
X9730541Y-8642679D01*
X9730541Y-8642679D01*
X9721409Y-8647952D01*
X9713952Y-8655409D01*
X9708679Y-8664541D01*
X9708679Y-8664541D01*
X9705950Y-8674727D01*
X9705950Y-8685273D01*
X9708275Y-8693950D01*
X9708679Y-8695459D01*
X9708679Y-8695459D01*
X9708756Y-8695591D01*
X9713952Y-8704591D01*
X9721409Y-8712048D01*
X9728573Y-8716184D01*
X9733394Y-8721241D01*
X9734716Y-8728101D01*
X9732120Y-8734588D01*
X9728573Y-8737661D01*
X9728541Y-8737679D01*
X9728541Y-8737679D01*
X9725546Y-8739409D01*
X9719408Y-8742952D01*
X9711952Y-8750409D01*
X9706679Y-8759541D01*
X9706679Y-8759541D01*
X9703950Y-8769727D01*
X9658218Y-8769727D01*
X9664591Y-8766048D01*
X9672048Y-8758591D01*
X9677321Y-8749459D01*
X9680050Y-8739273D01*
X9680050Y-8728727D01*
X9677321Y-8718541D01*
X9672048Y-8709409D01*
X9664591Y-8701952D01*
X9655459Y-8696679D01*
X9655459Y-8696679D01*
X9649442Y-8695067D01*
X9645273Y-8693950D01*
X9645273Y-8693950D01*
X9645159Y-8693920D01*
X9639193Y-8690283D01*
X9636140Y-8683998D01*
X9635968Y-8681952D01*
X9635967Y-8680315D01*
X9637050Y-8676273D01*
X9637050Y-8665727D01*
X9635952Y-8661628D01*
X9635950Y-8660001D01*
X9636493Y-8658147D01*
X9636539Y-8656215D01*
X9637454Y-8654863D01*
X9637913Y-8653296D01*
X9639372Y-8652029D01*
X9640455Y-8650429D01*
X9642329Y-8649463D01*
X9643190Y-8648716D01*
X9644008Y-8648597D01*
X9645141Y-8648014D01*
X9651459Y-8646321D01*
X9660591Y-8641048D01*
X9668048Y-8633591D01*
X9673321Y-8624459D01*
X9676050Y-8614273D01*
X9676050Y-8603727D01*
X9673321Y-8593541D01*
X9668048Y-8584409D01*
X9660591Y-8576952D01*
X9651459Y-8571679D01*
X9641273Y-8568950D01*
X9630727Y-8568950D01*
X9620541Y-8571679D01*
X9620541Y-8571679D01*
X9611409Y-8576952D01*
X9603952Y-8584409D01*
X9598679Y-8593541D01*
X9598679Y-8593541D01*
X9595950Y-8603727D01*
X9595950Y-8614273D01*
X9596627Y-8616800D01*
X9596461Y-8623785D01*
X9592544Y-8629571D01*
X9587859Y-8631987D01*
X9581541Y-8633679D01*
X9581541Y-8633679D01*
X9572409Y-8638952D01*
X9564952Y-8646409D01*
X9559679Y-8655541D01*
X9559679Y-8655541D01*
X9556950Y-8665727D01*
X9333050Y-8665727D01*
X9333050Y-8661727D01*
X9330321Y-8651541D01*
X9325048Y-8642409D01*
X9317591Y-8634952D01*
X9308459Y-8629679D01*
X9298273Y-8626950D01*
X9287727Y-8626950D01*
X9277541Y-8629679D01*
X9277541Y-8629679D01*
X9268409Y-8634952D01*
X9260952Y-8642409D01*
X9255679Y-8651541D01*
X9255679Y-8651541D01*
X9252950Y-8661727D01*
X9065225Y-8661727D01*
X9066104Y-8656500D01*
X9068490Y-8653150D01*
X9069048Y-8652591D01*
X9074321Y-8643459D01*
X9077050Y-8633273D01*
X9077050Y-8622727D01*
X9074321Y-8612541D01*
X9069048Y-8603409D01*
X9061591Y-8595952D01*
X9052459Y-8590679D01*
X9042273Y-8587950D01*
X9031727Y-8587950D01*
X9021541Y-8590679D01*
X9021541Y-8590679D01*
X9012409Y-8595952D01*
X9004952Y-8603409D01*
X8999679Y-8612541D01*
X8999679Y-8612541D01*
X8996950Y-8622727D01*
X8996950Y-8633273D01*
X8998472Y-8638952D01*
X8999679Y-8643459D01*
X8999679Y-8643459D01*
X9004155Y-8651211D01*
X9005803Y-8658001D01*
X9003517Y-8664604D01*
X8998025Y-8668923D01*
X8996626Y-8669389D01*
X8995542Y-8669679D01*
X8995541Y-8669679D01*
X8986409Y-8674952D01*
X8978952Y-8682409D01*
X8973679Y-8691541D01*
X8973679Y-8691541D01*
X8970950Y-8701727D01*
X7386486Y-8701727D01*
X7394591Y-8697048D01*
X7402048Y-8689591D01*
X7407321Y-8680459D01*
X7410050Y-8670273D01*
X7410050Y-8659727D01*
X7407321Y-8649541D01*
X7402048Y-8640409D01*
X7394591Y-8632952D01*
X7385459Y-8627679D01*
X7375273Y-8624950D01*
X7364727Y-8624950D01*
X7354541Y-8627679D01*
X7354541Y-8627679D01*
X7345408Y-8632952D01*
X7337952Y-8640409D01*
X7332679Y-8649541D01*
X7332679Y-8649541D01*
X7329950Y-8659727D01*
X6550050Y-8659727D01*
X6550050Y-8544727D01*
X7349950Y-8544727D01*
X7349950Y-8555273D01*
X7352679Y-8565459D01*
X7357952Y-8574591D01*
X7365409Y-8582048D01*
X7374541Y-8587321D01*
X7384727Y-8590050D01*
X7384727Y-8590050D01*
X7395272Y-8590050D01*
X7395273Y-8590050D01*
X7405459Y-8587321D01*
X7414591Y-8582048D01*
X7422048Y-8574591D01*
X7427321Y-8565459D01*
X7430050Y-8555273D01*
X7430050Y-8544727D01*
X7428710Y-8539727D01*
X10144950Y-8539727D01*
X10144950Y-8550273D01*
X10147679Y-8560459D01*
X10152952Y-8569591D01*
X10160409Y-8577048D01*
X10169541Y-8582321D01*
X10179727Y-8585050D01*
X10179728Y-8585050D01*
X10190273Y-8585050D01*
X10190273Y-8585050D01*
X10200459Y-8582321D01*
X10209591Y-8577048D01*
X10217048Y-8569591D01*
X10222321Y-8560459D01*
X10225050Y-8550273D01*
X10225050Y-8539727D01*
X10222321Y-8529541D01*
X10217048Y-8520409D01*
X10209591Y-8512952D01*
X10200459Y-8507679D01*
X10190273Y-8504950D01*
X10179727Y-8504950D01*
X10169541Y-8507679D01*
X10169541Y-8507679D01*
X10160409Y-8512952D01*
X10152952Y-8520409D01*
X10147679Y-8529541D01*
X10147679Y-8529541D01*
X10144950Y-8539727D01*
X7428710Y-8539727D01*
X7427321Y-8534541D01*
X7422048Y-8525409D01*
X7414591Y-8517952D01*
X7405931Y-8512952D01*
X7405459Y-8512679D01*
X7405459Y-8512679D01*
X7405459Y-8512679D01*
X7395273Y-8509950D01*
X7384727Y-8509950D01*
X7374541Y-8512679D01*
X7374541Y-8512679D01*
X7365408Y-8517952D01*
X7357952Y-8525409D01*
X7352679Y-8534541D01*
X7352679Y-8534541D01*
X7349950Y-8544727D01*
X6550050Y-8544727D01*
X6550050Y-8414727D01*
X7349950Y-8414727D01*
X7349950Y-8425273D01*
X7352679Y-8435459D01*
X7357952Y-8444591D01*
X7365409Y-8452048D01*
X7374541Y-8457321D01*
X7384727Y-8460050D01*
X7384727Y-8460050D01*
X7395272Y-8460050D01*
X7395273Y-8460050D01*
X7405459Y-8457321D01*
X7414591Y-8452048D01*
X7422048Y-8444591D01*
X7427321Y-8435459D01*
X7430050Y-8425273D01*
X7430050Y-8414727D01*
X7427321Y-8404541D01*
X7422048Y-8395409D01*
X7414591Y-8387952D01*
X7405459Y-8382679D01*
X7395273Y-8379950D01*
X7384727Y-8379950D01*
X7374541Y-8382679D01*
X7374541Y-8382679D01*
X7365408Y-8387952D01*
X7357952Y-8395409D01*
X7352679Y-8404541D01*
X7352679Y-8404541D01*
X7349950Y-8414727D01*
X6550050Y-8414727D01*
X6550050Y-8354727D01*
X7619950Y-8354727D01*
X7619950Y-8365273D01*
X7622679Y-8375459D01*
X7627952Y-8384591D01*
X7635409Y-8392048D01*
X7644541Y-8397321D01*
X7654727Y-8400050D01*
X7654727Y-8400050D01*
X7665272Y-8400050D01*
X7665273Y-8400050D01*
X7675459Y-8397321D01*
X7684591Y-8392048D01*
X7692048Y-8384591D01*
X7697321Y-8375459D01*
X7700050Y-8365273D01*
X7700050Y-8354727D01*
X7697321Y-8344541D01*
X7692048Y-8335409D01*
X7684591Y-8327952D01*
X7675459Y-8322679D01*
X7665273Y-8319950D01*
X7654727Y-8319950D01*
X7644541Y-8322679D01*
X7644541Y-8322679D01*
X7635408Y-8327952D01*
X7627952Y-8335408D01*
X7622679Y-8344541D01*
X7622679Y-8344541D01*
X7619950Y-8354727D01*
X6550050Y-8354727D01*
X6550050Y-8224727D01*
X9649950Y-8224727D01*
X9649950Y-8235273D01*
X9652679Y-8245459D01*
X9657952Y-8254591D01*
X9665409Y-8262048D01*
X9674541Y-8267321D01*
X9684727Y-8270050D01*
X9684728Y-8270050D01*
X9695273Y-8270050D01*
X9695273Y-8270050D01*
X9705459Y-8267321D01*
X9714591Y-8262048D01*
X9722048Y-8254591D01*
X9727321Y-8245459D01*
X9730050Y-8235273D01*
X9730050Y-8224727D01*
X9727321Y-8214541D01*
X9722048Y-8205409D01*
X9714591Y-8197952D01*
X9705459Y-8192679D01*
X9695273Y-8189950D01*
X9684727Y-8189950D01*
X9674541Y-8192679D01*
X9674541Y-8192679D01*
X9665409Y-8197952D01*
X9657952Y-8205408D01*
X9652679Y-8214541D01*
X9652679Y-8214541D01*
X9649950Y-8224727D01*
X6550050Y-8224727D01*
X6550050Y-8154727D01*
X7464950Y-8154727D01*
X7464950Y-8165273D01*
X7467679Y-8175459D01*
X7472952Y-8184591D01*
X7480409Y-8192048D01*
X7489541Y-8197321D01*
X7499727Y-8200050D01*
X7499727Y-8200050D01*
X7510272Y-8200050D01*
X7510273Y-8200050D01*
X7520459Y-8197321D01*
X7529591Y-8192048D01*
X7537048Y-8184591D01*
X7542321Y-8175459D01*
X7545050Y-8165273D01*
X7545050Y-8154727D01*
X7542321Y-8144541D01*
X7537048Y-8135409D01*
X7529591Y-8127952D01*
X7520459Y-8122679D01*
X7510273Y-8119950D01*
X7499727Y-8119950D01*
X7489541Y-8122679D01*
X7489541Y-8122679D01*
X7480408Y-8127952D01*
X7472952Y-8135408D01*
X7467679Y-8144541D01*
X7467679Y-8144541D01*
X7464950Y-8154727D01*
X6550050Y-8154727D01*
X6550050Y-8067450D01*
X6552018Y-8060746D01*
X6557299Y-8056171D01*
X6562450Y-8055050D01*
X10337550Y-8055050D01*
X10344254Y-8057018D01*
G37*
%TD.AperFunction*%
%TD*%
M02*
