M48
; DRILL file KiCad 10.0.3 date 2026-09-21T21:17:41
; FORMAT={-:-/ absolute / inch / decimal}
; #@! TF.CreationDate,2026-09-21T21:17:41+02:00
; #@! TF.GenerationSoftware,Kicad,Pcbnew,10.0.3
; #@! TF.FileFunction,MixedPlating,1,4
FMAT,2
INCH
; #@! TA.AperFunction,Plated,PTH,ViaDrill
T1C0.0118
; #@! TA.AperFunction,Plated,PTH,ComponentDrill
T2C0.0118
%
G90
G05
T1
X0.0535Y0.1075
X0.063Y0.0657
X0.076Y0.7126
X0.0856Y0.2224
X0.087Y0.2894
X0.0906Y0.378
X0.0976Y0.7339
X0.0984Y0.252
X0.1016Y0.5472
X0.1027Y0.407
X0.1069Y0.4404
X0.1092Y0.5109
X0.1136Y0.4711
X0.1201Y0.3531
X0.1244Y0.5713
X0.1252Y0.3244
X0.1768Y0.1669
X0.1846Y0.0626
X0.1866Y0.6965
X0.1923Y0.3346
X0.1941Y0.3981
X0.1945Y0.2409
X0.1953Y0.2638
X0.2082Y0.3622
X0.3425Y0.5669
X0.3457Y0.265
X0.3469Y0.3374
X0.3472Y0.3988
X0.3492Y0.0579
X0.3504Y0.6634
X0.3504Y0.6122
X0.3591Y0.7449
X0.3665Y0.1449
X0.3677Y0.6969
X0.3957Y0.7657
X0.4256Y0.2614
X0.4567Y0.687
X0.5673Y0.252
X0.5854Y0.4016
X0.6626Y0.2449
X0.7157Y0.75
X0.7157Y0.6236
X0.7394Y0.4476
X0.7516Y0.239
X0.8Y0.7496
X0.8028Y0.6354
X0.8067Y0.5854
X0.8067Y0.528
X0.8071Y0.4988
X0.8165Y0.0929
X0.8264Y0.289
X0.9886Y0.5504
X0.9921Y0.7839
X0.9988Y0.5815
X1.0126Y0.037
X1.0209Y0.5484
X1.024Y0.2972
X1.0295Y0.1646
X1.0409Y0.4476
X1.0559Y0.748
X1.0996Y0.5661
X1.1039Y0.7209
X1.1043Y0.785
X1.1079Y0.4055
X1.1799Y0.3016
X1.2126Y0.1598
X1.2193Y0.5646
X1.2346Y0.589
X1.2354Y0.5031
X1.2362Y0.5398
X1.2417Y0.1512
X1.2457Y0.4118
X1.2531Y0.6988
X1.2531Y0.0535
X1.2539Y0.6681
X1.2559Y0.7382
X1.2736Y0.1831
X1.274Y0.2768
X1.2772Y0.5236
X1.2772Y0.4803
X1.278Y0.561
X1.2862Y0.7693
X1.3122Y0.1618
X1.3378Y0.3748
X1.3409Y0.1689
X1.3531Y0.7012
X1.3669Y0.3744
X1.4106Y0.465
X1.4343Y0.5524
X1.4508Y0.6142
X1.4622Y0.1575
X1.463Y0.3413
X1.4744Y0.4764
X1.4866Y0.1571
X1.4953Y0.0575
X1.5016Y0.2996
T2
X1.1213Y0.2161
X1.1685Y0.2161
X1.3783Y0.2181
X1.4256Y0.2181
M30
